{
DisplayStrings = (
"Hhp\012Hhh",
"\U00C3",
CG,
B,
D,
E,
F,
G,
HE,
I,
JK,
K,
LFE,
M,
MNH,
O,
P,
Q,
"/Q.alt u",
T,
U,
V,
W,
X,
Y,
Z,
"/a.alt2 d",
bp,
hop,
eoc,
"/f.alt f",
g,
/g.alt,
h,
i,
j,
k,
l,
m,
nmrh,
o,
p,
q,
r,
/s.alt,
t,
/t.alt,
nvnwnxnynznoni,
Wwv,
x,
/x.alt,
yv,
zk,
"\U00AA",
HO0x,
1,
2,
5,
/two.alt,
/five.alt,
/two.alt2,
"?.",
"\U00BF",
/ampersand.alt,
HXHYHZH,
",i",
",/quoteright",
";",
/quoteright,
/quotedblright,
/quotedblleft,
/quoteleft,
/quotereversed,
"\"",
"'",
"*",
"#",
hijklmnpqr,
"NnQno o",
"/Q.alt po",
"n/f.alt n/t.alt n\012nfntn",
/a.alt,
onhmpdrou,
a,
CcsSg,
/c.alt,
d,
/d.alt,
e,
nHdsoOp,
s,
/s.alt2,
u,
/u.alt,
v,
w,
/A.alt,
SCG,
/S.alt2,
":",
",.",
"!",
"\U00A1",
/quotedblbase,
hmu,
hmu/u.alt,
/Eng,
A,
/a.alt2,
R,
/R.alt,
f,
/f.alt,
"nononmna\012nvnwnnxn\012nHn\012nnnnn\012ooooo",
y,
A/A.alt,
"/Q.alt u/R.alt u",
R/R.alt,
/quotesinglbase,
nhjkl,
"nnann/a.alt2 nnbnndHnn/d.alt nnnnfnn/f.alt nnhnninnknnlnnmnnnHpnnqnnrnnunn/u.alt nn",
/two.001,
S,
280,
65,
6,
9,
72,
7/two.001,
4,
807,
7,
3,
"{(",
"H{H}H(H)p",
"{H",
"}",
"{H}",
"{",
"?",
"pf@aoifemooney",
"[",
"H|H//H",
"\U00B6Pg",
"P\U00B6Sp",
"\U00B5up",
"+=",
"\U00A53=",
"\U00A5",
"\U00B4",
"\U00B4/tilde",
"`",
0,
./dotaccent,
"\U00B4/dotaccent `/tilde",
"\U00A8H..",
/dotaccent,
/hungarumlaut,
"=",
"\U00B4/breve/caron \U00B8/circumflex \U00A8/dotaccent `/hungarumlaut \U00AF/ogonek/ring/tilde",
/tilde,
"(",
/breve/tilde,
/ring,
/breve/dotaccent/ring/tilde,
/caron,
/breve,
/breve/caron/ring/tilde,
"\U00AF",
/schwa,
"\U00ABH",
"H/guilsinglleft nH(H)",
/guilsinglright,
"H/guilsinglleft H",
"H\U00ABH\U00BBH/guilsinglleft H/guilsinglright H\012o\U00ABo\U00BBo/guilsinglleft o/guilsinglright o",
/circumflex,
"\U00B8",
"@O0",
"\U00A2",
$10,
$12345S,
"/two.001/seven.001 0123456789/two.alt/five.alt/two.alt2",
"@",
"C\U00A9@",
"\U00AER",
"\U00B00",
"\U00B0"
);
classes = (
{
automatic = 1;
code = "A B C D E F G H I J K L M N O P Q R S T U V W X Y Z R.alt";
name = Uppercase;
}
);

glyphs = (
{
color = 6;
glyphname = A;
lastChange = "2015-08-01 12:25:53 +0000";
layers = (
{
layerId = "B29C398E-974A-40D0-A0A0-00935056D4B4";
name = "Light Extended";
paths = (
{
closed = 1;
nodes = (
"1016 0 LINE",
"1016 23 LINE",
"678 23 LINE",
"678 0 LINE"
);
},
{
closed = 1;
nodes = (
"321 0 LINE",
"321 23 LINE",
"-18 23 LINE",
"-18 0 LINE"
);
},
{
closed = 1;
nodes = (
"701 207 LINE",
"295 207 LINE",
"277 184 LINE",
"718 184 LINE"
);
},
{
closed = 1;
nodes = (
"686 467 LINE",
"686 490 LINE",
"310 490 LINE",
"310 467 LINE"
);
},
{
closed = 1;
nodes = (
"137 13 LINE",
"166 13 LINE",
"500 472 LINE",
"497 472 LINE",
"833 13 LINE",
"862 13 LINE",
"517 480 LINE SMOOTH",
"479 480 LINE"
);
}
);
width = 999;
},
{
background = {
paths = (
{
closed = 1;
nodes = (
"153 13 LINE",
"336 335 LINE",
"519 13 LINE",
"646 13 LINE",
"339 522 LINE",
"31 13 LINE"
);
},
{
closed = 1;
nodes = (
"695 0 LINE",
"695 74 LINE",
"428 74 LINE",
"428 0 LINE"
);
},
{
closed = 1;
nodes = (
"249 0 LINE",
"249 74 LINE",
"-18 74 LINE",
"-18 0 LINE"
);
},
{
closed = 1;
nodes = (
"468 206 LINE",
"206 206 LINE",
"189 140 LINE",
"485 140 LINE"
);
}
);
};
layerId = "FA480B27-EBBD-4830-9868-98507D39050C";
name = Bold;
paths = (
{
closed = 1;
nodes = (
"694 0 LINE",
"694 73 LINE",
"426 73 LINE",
"426 0 LINE"
);
},
{
closed = 1;
nodes = (
"251 0 LINE",
"251 73 LINE",
"-18 73 LINE",
"-18 0 LINE"
);
},
{
closed = 1;
nodes = (
"470 214 LINE",
"204 214 LINE",
"186 148 LINE",
"487 148 LINE"
);
},
{
closed = 1;
nodes = (
"490 417 LINE",
"490 490 LINE",
"184 490 LINE",
"184 417 LINE"
);
},
{
closed = 1;
nodes = (
"32 13 LINE",
"141 13 LINE",
"365 440 LINE",
"309 440 LINE",
"533 13 LINE",
"645 13 LINE",
"396 449 LINE SMOOTH",
"279 449 LINE"
);
}
);
width = 677;
},
{
background = {
paths = (
{
closed = 1;
nodes = (
"127 13 LINE",
"338 472 LINE",
"549 13 LINE",
"576 13 LINE",
"339 522 LINE",
"102 13 LINE"
);
},
{
closed = 1;
nodes = (
"695 0 LINE",
"695 24 LINE",
"428 24 LINE",
"428 0 LINE"
);
},
{
closed = 1;
nodes = (
"249 0 LINE",
"249 24 LINE",
"-18 24 LINE",
"-18 0 LINE"
);
},
{
closed = 1;
nodes = (
"468 206 LINE",
"206 206 LINE",
"189 182 LINE",
"485 182 LINE"
);
}
);
};
layerId = "543F9737-16F7-428D-9F96-2EBD9FC8D3B6";
name = Light;
paths = (
{
closed = 1;
nodes = (
"694 0 LINE",
"694 24 LINE",
"426 24 LINE",
"426 0 LINE"
);
},
{
closed = 1;
nodes = (
"251 0 LINE",
"251 24 LINE",
"-18 24 LINE",
"-18 0 LINE"
);
},
{
closed = 1;
nodes = (
"470 207 LINE",
"204 207 LINE",
"186 183 LINE",
"487 183 LINE"
);
},
{
closed = 1;
nodes = (
"490 466 LINE",
"490 490 LINE",
"184 490 LINE",
"184 466 LINE"
);
},
{
closed = 1;
nodes = (
"102 13 LINE",
"127 13 LINE",
"337 472 LINE",
"337 472 LINE",
"547 13 LINE",
"575 13 LINE",
"357 480 LINE SMOOTH",
"317 480 LINE"
);
}
);
width = 677;
}
);
unicode = 0041;
},
{
color = 6;
glyphname = A.alt;
lastChange = "2015-08-01 12:25:53 +0000";
layers = (
{
background = {
paths = (
{
closed = 1;
nodes = (
"115 0 LINE",
"358 347 LINE",
"604 0 LINE",
"613 18 LINE",
"358 376 LINE",
"106 18 LINE"
);
},
{
closed = 1;
nodes = (
"504 151 LINE",
"210 151 LINE",
"197 133 LINE",
"517 133 LINE"
);
},
{
closed = 1;
nodes = (
"231 -1 LINE",
"231 18 LINE",
"-18 18 LINE",
"-18 -1 LINE"
);
},
{
closed = 1;
nodes = (
"488 18 LINE",
"488 -1 LINE",
"734 -1 LINE",
"735 18 LINE"
);
}
);
};
layerId = "B29C398E-974A-40D0-A0A0-00935056D4B4";
name = "Light Extended";
paths = (
{
closed = 1;
nodes = (
"166 13 LINE",
"496 482 LINE",
"827 13 LINE",
"856 13 LINE",
"496 522 LINE",
"137 13 LINE"
);
},
{
closed = 1;
nodes = (
"1010 0 LINE",
"1010 23 LINE",
"673 23 LINE",
"673 0 LINE"
);
},
{
closed = 1;
nodes = (
"319 0 LINE",
"319 23 LINE",
"-18 23 LINE",
"-18 0 LINE"
);
},
{
closed = 1;
nodes = (
"703 206 LINE",
"291 206 LINE",
"272 183 LINE",
"718 183 LINE"
);
}
);
width = 993;
},
{
layerId = "FA480B27-EBBD-4830-9868-98507D39050C";
name = Bold;
paths = (
{
closed = 1;
nodes = (
"146 13 LINE",
"336 363 LINE",
"526 13 LINE",
"646 13 LINE",
"339 536 LINE",
"31 13 LINE"
);
},
{
closed = 1;
nodes = (
"695 0 LINE",
"695 74 LINE",
"428 74 LINE",
"428 0 LINE"
);
},
{
closed = 1;
nodes = (
"249 0 LINE",
"249 74 LINE",
"-18 74 LINE",
"-18 0 LINE"
);
},
{
closed = 1;
nodes = (
"468 206 LINE",
"206 206 LINE",
"189 140 LINE",
"485 140 LINE"
);
}
);
width = 678;
},
{
layerId = "543F9737-16F7-428D-9F96-2EBD9FC8D3B6";
name = Light;
paths = (
{
closed = 1;
nodes = (
"127 13 LINE",
"338 472 LINE",
"549 13 LINE",
"576 13 LINE",
"339 522 LINE",
"102 13 LINE"
);
},
{
closed = 1;
nodes = (
"695 0 LINE",
"695 24 LINE",
"428 24 LINE",
"428 0 LINE"
);
},
{
closed = 1;
nodes = (
"249 0 LINE",
"249 24 LINE",
"-18 24 LINE",
"-18 0 LINE"
);
},
{
closed = 1;
nodes = (
"468 206 LINE",
"206 206 LINE",
"189 182 LINE",
"485 182 LINE"
);
}
);
width = 678;
}
);
},
{
glyphname = Atilde;
lastChange = "2015-08-01 12:21:47 +0000";
layers = (
{
components = (
{
name = A;
}
);
guideLines = (
{
position = "{786, 980}";
},
{
position = "{596, 734}";
}
);
layerId = "B29C398E-974A-40D0-A0A0-00935056D4B4";
name = "Light Extended";
paths = (
{
closed = 1;
nodes = (
"679 668 OFFCURVE",
"642 641 OFFCURVE",
"604 641 CURVE SMOOTH",
"572 641 OFFCURVE",
"542 662 OFFCURVE",
"510 685 CURVE SMOOTH",
"475 709 OFFCURVE",
"441 735 OFFCURVE",
"398 735 CURVE SMOOTH",
"333 735 OFFCURVE",
"298 685 OFFCURVE",
"287 617 CURVE",
"309 617 LINE",
"320 685 OFFCURVE",
"357 713 OFFCURVE",
"396 713 CURVE SMOOTH",
"429 713 OFFCURVE",
"458 692 OFFCURVE",
"490 669 CURVE SMOOTH",
"525 645 OFFCURVE",
"560 619 OFFCURVE",
"602 619 CURVE SMOOTH",
"666 619 OFFCURVE",
"701 668 OFFCURVE",
"712 735 CURVE",
"690 735 LINE"
);
}
);
width = 999;
},
{
layerId = "543F9737-16F7-428D-9F96-2EBD9FC8D3B6";
name = Light;
width = 420;
},
{
layerId = "FA480B27-EBBD-4830-9868-98507D39050C";
name = Bold;
width = 420;
}
);
unicode = 00C3;
},
{
color = 6;
glyphname = B;
lastChange = "2015-08-01 12:47:17 +0000";
layers = (
{
background = {
paths = (
{
closed = 1;
nodes = (
"263 14 LINE",
"263 478 LINE",
"238 478 LINE",
"238 14 LINE"
);
},
{
closed = 1;
nodes = (
"664 247 LINE",
"776 247 OFFCURVE",
"828 302 OFFCURVE",
"828 365 CURVE SMOOTH",
"828 443 OFFCURVE",
"769 490 OFFCURVE",
"666 490 CURVE SMOOTH",
"56 490 LINE",
"56 467 LINE",
"666 467 LINE SMOOTH",
"755 467 OFFCURVE",
"803 427 OFFCURVE",
"803 365 CURVE SMOOTH",
"803 305 OFFCURVE",
"746 263 OFFCURVE",
"656 263 CURVE SMOOTH",
"254 263 LINE",
"254 240 LINE",
"656 239 LINE SMOOTH",
"756 239 OFFCURVE",
"837 202 OFFCURVE",
"837 128 CURVE SMOOTH",
"837 57 OFFCURVE",
"778 23 OFFCURVE",
"675 23 CURVE SMOOTH",
"56 23 LINE",
"56 0 LINE",
"673 0 LINE SMOOTH",
"805 0 OFFCURVE",
"862 48 OFFCURVE",
"862 128 CURVE SMOOTH",
"862 205 OFFCURVE",
"794 255 OFFCURVE",
"664 255 CURVE"
);
}
);
};
layerId = "B29C398E-974A-40D0-A0A0-00935056D4B4";
name = "Light Extended";
paths = (
{
closed = 1;
nodes = (
"263 14 LINE",
"263 478 LINE",
"238 478 LINE",
"238 14 LINE"
);
},
{
closed = 1;
nodes = (
"664 247 LINE",
"775 247 OFFCURVE",
"828 300 OFFCURVE",
"828 369 CURVE SMOOTH",
"828 439 OFFCURVE",
"768 490 OFFCURVE",
"667 490 CURVE SMOOTH",
"56 490 LINE",
"56 467 LINE",
"664 467 LINE SMOOTH",
"743 467 OFFCURVE",
"803 435 OFFCURVE",
"803 369 CURVE SMOOTH",
"803 301 OFFCURVE",
"745 263 OFFCURVE",
"661 263 CURVE SMOOTH",
"254 263 LINE",
"254 240 LINE",
"656 239 LINE SMOOTH",
"755 239 OFFCURVE",
"837 207 OFFCURVE",
"837 129 CURVE SMOOTH",
"837 55 OFFCURVE",
"769 23 OFFCURVE",
"667 23 CURVE SMOOTH",
"56 23 LINE",
"56 0 LINE",
"673 0 LINE SMOOTH",
"790 0 OFFCURVE",
"862 45 OFFCURVE",
"862 128 CURVE SMOOTH",
"862 216 OFFCURVE",
"781 255 OFFCURVE",
"664 255 CURVE"
);
}
);
width = 923;
},
{
layerId = "FA480B27-EBBD-4830-9868-98507D39050C";
name = Bold;
width = 420;
},
{
layerId = "543F9737-16F7-428D-9F96-2EBD9FC8D3B6";
name = Light;
width = 420;
}
);
unicode = 0042;
},
{
color = 6;
glyphname = C;
lastChange = "2015-08-01 21:53:56 +0000";
layers = (
{
background = {
paths = (
{
closed = 1;
nodes = (
"797 173 LINE",
"759 82 OFFCURVE",
"640 -20 OFFCURVE",
"426 -20 CURVE",
"234 -20 OFFCURVE",
"70 79 OFFCURVE",
"70 249 CURVE",
"70 419 OFFCURVE",
"241 517 OFFCURVE",
"434 517 CURVE",
"605 517 OFFCURVE",
"719 445 OFFCURVE",
"789 348 CURVE",
"769 348 LINE",
"769 491 LINE",
"792 491 LINE",
"792 311 LINE",
"690 447 OFFCURVE",
"561 494 OFFCURVE",
"434 494 CURVE",
"249 494 OFFCURVE",
"95 401 OFFCURVE",
"95 249 CURVE",
"95 97 OFFCURVE",
"244 3 OFFCURVE",
"426 3 CURVE",
"624 3 OFFCURVE",
"743 103 OFFCURVE",
"774 182 CURVE"
);
}
);
};
layerId = "B29C398E-974A-40D0-A0A0-00935056D4B4";
name = "Light Extended";
paths = (
{
closed = 1;
nodes = (
"794 159 LINE",
"747 76 OFFCURVE",
"640 -20 OFFCURVE",
"426 -20 CURVE",
"234 -20 OFFCURVE",
"70 79 OFFCURVE",
"70 249 CURVE",
"70 419 OFFCURVE",
"241 517 OFFCURVE",
"434 517 CURVE",
"598 517 OFFCURVE",
"716 437 OFFCURVE",
"786 338 CURVE",
"769 338 LINE",
"769 517 LINE",
"792 517 LINE",
"792 301 LINE",
"690 437 OFFCURVE",
"573 494 OFFCURVE",
"434 494 CURVE",
"249 494 OFFCURVE",
"95 401 OFFCURVE",
"95 249 CURVE",
"95 97 OFFCURVE",
"244 3 OFFCURVE",
"426 3 CURVE",
"624 3 OFFCURVE",
"734 98 OFFCURVE",
"774 172 CURVE"
);
}
);
width = 858;
},
{
associatedMasterId = "B29C398E-974A-40D0-A0A0-00935056D4B4";
background = {
paths = (
{
closed = 1;
nodes = (
"748 293 LINE",
"771 300 LINE",
"771 301 OFFCURVE",
"739 354 OFFCURVE",
"673 408 CURVE SMOOTH",
"608 462 OFFCURVE",
"508 516 OFFCURVE",
"376 516 CURVE SMOOTH",
"251 516 OFFCURVE",
"157 479 OFFCURVE",
"94 425 CURVE SMOOTH",
"31 370 OFFCURVE",
"0 298 OFFCURVE",
"0 227 CURVE SMOOTH",
"0 155 OFFCURVE",
"31 84 OFFCURVE",
"94 31 CURVE SMOOTH",
"156 -22 OFFCURVE",
"250 -57 OFFCURVE",
"375 -57 CURVE SMOOTH",
"534 -57 OFFCURVE",
"634 -2 OFFCURVE",
"694 53 CURVE SMOOTH",
"748 102 OFFCURVE",
"770 158 OFFCURVE",
"773 166 CURVE",
"748 174 LINE",
"746 166 OFFCURVE",
"727 119 OFFCURVE",
"675 71 CURVE SMOOTH",
"620 21 OFFCURVE",
"527 -31 OFFCURVE",
"375 -31 CURVE SMOOTH",
"255 -31 OFFCURVE",
"167 2 OFFCURVE",
"111 50 CURVE SMOOTH",
"53 99 OFFCURVE",
"26 162 OFFCURVE",
"26 227 CURVE SMOOTH",
"26 291 OFFCURVE",
"53 356 OFFCURVE",
"111 406 CURVE SMOOTH",
"168 456 OFFCURVE",
"255 490 OFFCURVE",
"376 490 CURVE SMOOTH",
"501 490 OFFCURVE",
"594 439 OFFCURVE",
"657 388 CURVE SMOOTH",
"708 346 OFFCURVE",
"739 309 OFFCURVE",
"773 247 CURVE",
"773 490 LINE",
"748 490 LINE"
);
}
);
};
layerId = "4CE72ED2-500C-4544-8864-BE0CB7E60B06";
name = Background;
paths = (
{
closed = 1;
nodes = (
"748 302 LINE",
"771 300 LINE",
"685 449 OFFCURVE",
"545 516 OFFCURVE",
"376 516 CURVE SMOOTH",
"251 516 OFFCURVE",
"157 479 OFFCURVE",
"94 425 CURVE SMOOTH",
"31 370 OFFCURVE",
"0 298 OFFCURVE",
"0 227 CURVE SMOOTH",
"0 155 OFFCURVE",
"31 84 OFFCURVE",
"94 31 CURVE SMOOTH",
"156 -22 OFFCURVE",
"250 -57 OFFCURVE",
"375 -57 CURVE SMOOTH",
"534 -57 OFFCURVE",
"634 -2 OFFCURVE",
"694 53 CURVE SMOOTH",
"748 102 OFFCURVE",
"770 158 OFFCURVE",
"773 166 CURVE",
"748 174 LINE",
"746 166 OFFCURVE",
"727 119 OFFCURVE",
"675 71 CURVE SMOOTH",
"620 21 OFFCURVE",
"527 -31 OFFCURVE",
"375 -31 CURVE SMOOTH",
"255 -31 OFFCURVE",
"167 2 OFFCURVE",
"111 50 CURVE SMOOTH",
"53 99 OFFCURVE",
"26 162 OFFCURVE",
"26 227 CURVE SMOOTH",
"26 291 OFFCURVE",
"53 356 OFFCURVE",
"111 406 CURVE SMOOTH",
"168 456 OFFCURVE",
"255 490 OFFCURVE",
"376 490 CURVE SMOOTH",
"541 490 OFFCURVE",
"687 419 OFFCURVE",
"773 247 CURVE",
"773 490 LINE",
"748 490 LINE"
);
}
);
width = 829;
},
{
layerId = "FA480B27-EBBD-4830-9868-98507D39050C";
name = Bold;
width = 420;
},
{
layerId = "543F9737-16F7-428D-9F96-2EBD9FC8D3B6";
name = Light;
width = 420;
}
);
unicode = 0043;
},
{
glyphname = D;
lastChange = "2015-08-01 12:21:47 +0000";
layers = (
{
layerId = "B29C398E-974A-40D0-A0A0-00935056D4B4";
name = "Light Extended";
paths = (
{
closed = 1;
nodes = (
"545 0 LINE",
"750 0 OFFCURVE",
"889 85 OFFCURVE",
"889 245 CURVE",
"889 405 OFFCURVE",
"750 490 OFFCURVE",
"545 490 CURVE",
"56 490 LINE",
"56 467 LINE",
"545 467 LINE",
"739 467 OFFCURVE",
"864 388 OFFCURVE",
"864 245 CURVE",
"864 102 OFFCURVE",
"739 23 OFFCURVE",
"545 23 CURVE",
"56 23 LINE",
"56 0 LINE"
);
},
{
closed = 1;
nodes = (
"263 13 LINE",
"263 477 LINE",
"238 477 LINE",
"238 13 LINE"
);
}
);
width = 959;
},
{
background = {
paths = (
{
closed = 1;
nodes = (
"109 133 LINE",
"217 133 LINE",
"217 490 LINE",
"109 490 LINE"
);
},
{
closed = 1;
nodes = (
"39 490 LINE",
"39 431 LINE",
"211 431 LINE",
"211 490 LINE"
);
},
{
closed = 1;
nodes = (
"121 400 LINE",
"121 441 LINE",
"71 440 LINE"
);
}
);
};
layerId = "FA480B27-EBBD-4830-9868-98507D39050C";
name = Bold;
paths = (
{
closed = 1;
nodes = (
"329 0 LINE",
"484 0 OFFCURVE",
"627 78 OFFCURVE",
"627 245 CURVE",
"627 412 OFFCURVE",
"484 490 OFFCURVE",
"329 490 CURVE",
"39 490 LINE",
"39 417 LINE",
"305 417 LINE",
"398 417 OFFCURVE",
"512 386 OFFCURVE",
"512 245 CURVE",
"512 104 OFFCURVE",
"398 74 OFFCURVE",
"305 74 CURVE",
"39 74 LINE",
"39 0 LINE"
);
},
{
closed = 1;
nodes = (
"231 48 LINE",
"231 442 LINE",
"122 442 LINE",
"122 48 LINE"
);
}
);
width = 659;
},
{
layerId = "543F9737-16F7-428D-9F96-2EBD9FC8D3B6";
name = Light;
paths = (
{
closed = 1;
nodes = (
"322 0 LINE",
"470 0 OFFCURVE",
"585 99 OFFCURVE",
"585 245 CURVE",
"585 391 OFFCURVE",
"470 490 OFFCURVE",
"322 490 CURVE",
"59 490 LINE",
"59 465 LINE",
"322 465 LINE",
"460 465 OFFCURVE",
"560 372 OFFCURVE",
"560 245 CURVE",
"560 118 OFFCURVE",
"460 25 OFFCURVE",
"322 25 CURVE",
"59 25 LINE",
"59 0 LINE"
);
},
{
closed = 1;
nodes = (
"190 13 LINE",
"190 477 LINE",
"165 477 LINE",
"165 13 LINE"
);
}
);
width = 659;
}
);
unicode = 0044;
},
{
glyphname = E;
lastChange = "2015-08-01 13:02:55 +0000";
layers = (
{
background = {
paths = (
{
closed = 1;
nodes = (
"891 7 LINE",
"891 189 LINE",
"865 189 LINE",
"865 33 LINE",
"83 33 LINE",
"83 7 LINE"
);
},
{
closed = 1;
nodes = (
"291 25 LINE",
"291 479 LINE",
"265 479 LINE",
"265 25 LINE"
);
},
{
closed = 1;
nodes = (
"608 260 LINE",
"608 286 LINE",
"278 286 LINE",
"278 260 LINE"
);
},
{
closed = 1;
nodes = (
"621 144 LINE",
"621 390 LINE",
"595 390 LINE",
"595 144 LINE"
);
},
{
closed = 1;
nodes = (
"867 464 LINE",
"867 313 LINE",
"893 313 LINE",
"893 490 LINE",
"86 490 LINE",
"85 464 LINE"
);
}
);
};
guideLines = (
{
position = "{417, 307}";
}
);
layerId = "B29C398E-974A-40D0-A0A0-00935056D4B4";
name = "Light Extended";
paths = (
{
closed = 1;
nodes = (
"862 0 LINE",
"862 186 LINE",
"838 186 LINE",
"838 23 LINE",
"56 23 LINE",
"56 0 LINE"
);
},
{
closed = 1;
nodes = (
"583 246 LINE",
"583 269 LINE",
"260 269 LINE",
"260 246 LINE"
);
},
{
closed = 1;
nodes = (
"596 132 LINE",
"596 372 LINE",
"571 372 LINE",
"571 132 LINE"
);
},
{
closed = 1;
nodes = (
"837 467 LINE",
"837 307 LINE",
"862 307 LINE",
"862 490 LINE",
"56 490 LINE",
"56 467 LINE"
);
},
{
closed = 1;
nodes = (
"263 13 LINE",
"263 477 LINE",
"238 477 LINE",
"238 13 LINE"
);
}
);
width = 911;
},
{
layerId = "FA480B27-EBBD-4830-9868-98507D39050C";
name = Bold;
width = 420;
},
{
layerId = "543F9737-16F7-428D-9F96-2EBD9FC8D3B6";
name = Light;
width = 420;
}
);
unicode = 0045;
},
{
glyphname = F;
lastChange = "2015-08-01 12:21:47 +0000";
layers = (
{
layerId = "B29C398E-974A-40D0-A0A0-00935056D4B4";
name = "Light Extended";
paths = (
{
closed = 1;
nodes = (
"603 225 LINE",
"603 248 LINE",
"260 248 LINE",
"260 225 LINE"
);
},
{
closed = 1;
nodes = (
"615 112 LINE",
"615 353 LINE",
"591 353 LINE",
"591 112 LINE"
);
},
{
closed = 1;
nodes = (
"263 13 LINE",
"263 477 LINE",
"238 477 LINE",
"238 13 LINE"
);
},
{
closed = 1;
nodes = (
"455 0 LINE",
"455 23 LINE",
"56 23 LINE",
"56 0 LINE"
);
},
{
closed = 1;
nodes = (
"838 467 LINE",
"838 307 LINE",
"862 307 LINE",
"862 490 LINE",
"56 490 LINE",
"56 467 LINE"
);
}
);
width = 897;
},
{
layerId = "FA480B27-EBBD-4830-9868-98507D39050C";
name = Bold;
width = 420;
},
{
layerId = "543F9737-16F7-428D-9F96-2EBD9FC8D3B6";
name = Light;
width = 420;
}
);
unicode = 0046;
},
{
glyphname = G;
lastChange = "2015-08-01 12:53:36 +0000";
layers = (
{
background = {
paths = (
{
closed = 0;
nodes = (
"433 517 LINE",
"597 517 OFFCURVE",
"715 447 OFFCURVE",
"785 348 CURVE",
"768 348 LINE",
"768 491 LINE",
"791 491 LINE",
"791 311 LINE",
"689 447 OFFCURVE",
"572 494 OFFCURVE",
"433 494 CURVE"
);
}
);
};
layerId = "B29C398E-974A-40D0-A0A0-00935056D4B4";
name = "Light Extended";
paths = (
{
closed = 1;
nodes = (
"241 517 OFFCURVE",
"70 418 OFFCURVE",
"70 248 CURVE",
"70 79 OFFCURVE",
"234 -20 OFFCURVE",
"426 -20 CURVE",
"637 -20 OFFCURVE",
"793 80 OFFCURVE",
"799 243 CURVE",
"774 227 LINE",
"764 112 OFFCURVE",
"652 3 OFFCURVE",
"426 3 CURVE",
"244 3 OFFCURVE",
"95 97 OFFCURVE",
"95 248 CURVE",
"95 400 OFFCURVE",
"249 494 OFFCURVE",
"434 494 CURVE",
"566 494 OFFCURVE",
"689 448 OFFCURVE",
"791 311 CURVE",
"791 490 LINE",
"768 490 LINE",
"768 347 LINE",
"785 347 LINE",
"715 444 OFFCURVE",
"605 517 OFFCURVE",
"434 517 CURVE"
);
},
{
closed = 1;
nodes = (
"422 243 LINE",
"422 220 LINE",
"792 220 LINE",
"799 243 LINE"
);
}
);
width = 858;
},
{
layerId = "FA480B27-EBBD-4830-9868-98507D39050C";
name = Bold;
width = 420;
},
{
layerId = "543F9737-16F7-428D-9F96-2EBD9FC8D3B6";
name = Light;
width = 420;
}
);
unicode = 0047;
},
{
color = 6;
glyphname = H;
lastChange = "2015-08-01 12:55:22 +0000";
layers = (
{
layerId = "B29C398E-974A-40D0-A0A0-00935056D4B4";
name = "Light Extended";
paths = (
{
closed = 1;
nodes = (
"875 227 LINE",
"875 250 LINE",
"258 250 LINE",
"258 227 LINE"
);
},
{
closed = 1;
nodes = (
"442 0 LINE",
"442 23 LINE",
"56 23 LINE",
"56 0 LINE"
);
},
{
closed = 1;
nodes = (
"263 11 LINE",
"263 477 LINE",
"238 477 LINE",
"238 11 LINE"
);
},
{
closed = 1;
nodes = (
"442 467 LINE",
"442 490 LINE",
"56 490 LINE",
"56 467 LINE"
);
},
{
closed = 1;
nodes = (
"1075 0 LINE",
"1075 23 LINE",
"689 23 LINE",
"689 0 LINE"
);
},
{
closed = 1;
nodes = (
"894 13 LINE",
"894 479 LINE",
"869 479 LINE",
"869 13 LINE"
);
},
{
closed = 1;
nodes = (
"1075 467 LINE",
"1075 490 LINE",
"689 490 LINE",
"689 467 LINE"
);
}
);
width = 1131;
},
{
background = {
paths = (
{
closed = 1;
nodes = (
"754 59 LINE",
"470 59 LINE",
"470 0 LINE",
"754 0 LINE"
);
},
{
closed = 1;
nodes = (
"659 81 LINE",
"659 48 LINE",
"701 49 LINE"
);
},
{
closed = 1;
nodes = (
"566 48 LINE",
"566 81 LINE",
"523 49 LINE"
);
},
{
closed = 1;
nodes = (
"557 48 LINE",
"666 48 LINE",
"666 445 LINE",
"557 445 LINE"
);
},
{
closed = 1;
nodes = (
"470 431 LINE",
"754 431 LINE",
"754 490 LINE",
"470 490 LINE"
);
},
{
closed = 1;
nodes = (
"566 409 LINE",
"566 442 LINE",
"523 441 LINE"
);
},
{
closed = 1;
nodes = (
"659 442 LINE",
"659 409 LINE",
"701 441 LINE"
);
}
);
};
layerId = "FA480B27-EBBD-4830-9868-98507D39050C";
name = Bold;
paths = (
{
closed = 1;
nodes = (
"652 48 LINE",
"652 445 LINE",
"543 445 LINE",
"543 48 LINE"
);
},
{
closed = 1;
nodes = (
"322 0 LINE",
"322 74 LINE",
"39 74 LINE",
"39 0 LINE"
);
},
{
closed = 1;
nodes = (
"235 46 LINE",
"235 442 LINE",
"127 442 LINE",
"127 46 LINE"
);
},
{
closed = 1;
nodes = (
"616 206 LINE",
"616 279 LINE",
"164 279 LINE",
"164 206 LINE"
);
},
{
closed = 1;
nodes = (
"322 417 LINE",
"322 490 LINE",
"39 490 LINE",
"39 417 LINE"
);
},
{
closed = 1;
nodes = (
"740 0 LINE",
"740 74 LINE",
"456 74 LINE",
"456 0 LINE"
);
},
{
closed = 1;
nodes = (
"740 417 LINE",
"740 490 LINE",
"456 490 LINE",
"456 417 LINE"
);
}
);
width = 778;
},
{
background = {
paths = (
{
closed = 1;
nodes = (
"655 479 LINE",
"655 13 LINE",
"679 13 LINE",
"679 479 LINE"
);
},
{
closed = 1;
nodes = (
"543 25 LINE",
"543 0 LINE",
"791 0 LINE",
"791 25 LINE"
);
},
{
closed = 1;
nodes = (
"543 490 LINE",
"543 465 LINE",
"791 465 LINE",
"791 490 LINE"
);
}
);
};
layerId = "543F9737-16F7-428D-9F96-2EBD9FC8D3B6";
name = Light;
paths = (
{
closed = 1;
nodes = (
"606 13 LINE",
"606 479 LINE",
"581 479 LINE",
"581 13 LINE"
);
},
{
closed = 1;
nodes = (
"300 0 LINE",
"300 25 LINE",
"59 25 LINE",
"59 0 LINE"
);
},
{
closed = 1;
nodes = (
"196 13 LINE",
"196 479 LINE",
"172 479 LINE",
"172 13 LINE"
);
},
{
closed = 1;
nodes = (
"587 230 LINE",
"587 254 LINE",
"191 254 LINE",
"191 230 LINE"
);
},
{
closed = 1;
nodes = (
"300 465 LINE",
"300 490 LINE",
"59 490 LINE",
"59 465 LINE"
);
},
{
closed = 1;
nodes = (
"718 0 LINE",
"718 25 LINE",
"477 25 LINE",
"477 0 LINE"
);
},
{
closed = 1;
nodes = (
"718 465 LINE",
"718 490 LINE",
"477 490 LINE",
"477 465 LINE"
);
}
);
width = 777;
}
);
unicode = 0048;
},
{
glyphname = I;
lastChange = "2015-08-01 12:21:47 +0000";
layers = (
{
layerId = "B29C398E-974A-40D0-A0A0-00935056D4B4";
name = "Light Extended";
paths = (
{
closed = 1;
nodes = (
"465 0 LINE SMOOTH",
"465 23 LINE SMOOTH",
"56 23 LINE SMOOTH",
"56 0 LINE SMOOTH"
);
},
{
closed = 1;
nodes = (
"248 477 LINE SMOOTH",
"248 13 LINE SMOOTH",
"273 13 LINE SMOOTH",
"273 477 LINE SMOOTH"
);
},
{
closed = 1;
nodes = (
"56 490 LINE SMOOTH",
"56 467 LINE SMOOTH",
"465 467 LINE SMOOTH",
"465 490 LINE SMOOTH"
);
}
);
width = 521;
},
{
layerId = "FA480B27-EBBD-4830-9868-98507D39050C";
name = Bold;
width = 420;
},
{
layerId = "543F9737-16F7-428D-9F96-2EBD9FC8D3B6";
name = Light;
width = 420;
}
);
unicode = 0049;
},
{
color = 6;
glyphname = J;
lastChange = "2015-08-01 13:02:05 +0000";
layers = (
{
background = {
paths = (
{
closed = 1;
nodes = (
"615 467 LINE",
"615 490 LINE",
"190 490 LINE",
"190 467 LINE"
);
},
{
closed = 1;
nodes = (
"2 103 LINE",
"41 45 OFFCURVE",
"115 -20 OFFCURVE",
"233 -20 CURVE SMOOTH",
"365 -20 OFFCURVE",
"455 55 OFFCURVE",
"455 176 CURVE SMOOTH",
"455 477 LINE",
"430 477 LINE",
"430 176 LINE SMOOTH",
"430 58 OFFCURVE",
"339 3 OFFCURVE",
"233 3 CURVE SMOOTH",
"132 3 OFFCURVE",
"61 62 OFFCURVE",
"21 117 CURVE"
);
}
);
};
layerId = "B29C398E-974A-40D0-A0A0-00935056D4B4";
name = "Light Extended";
paths = (
{
closed = 1;
nodes = (
"615 467 LINE",
"615 490 LINE",
"190 490 LINE",
"190 467 LINE"
);
},
{
closed = 1;
nodes = (
"4 101 LINE",
"43 45 OFFCURVE",
"115 -20 OFFCURVE",
"233 -20 CURVE SMOOTH",
"365 -20 OFFCURVE",
"455 55 OFFCURVE",
"455 176 CURVE SMOOTH",
"455 477 LINE",
"430 477 LINE",
"430 176 LINE SMOOTH",
"430 58 OFFCURVE",
"339 3 OFFCURVE",
"233 3 CURVE SMOOTH",
"132 3 OFFCURVE",
"61 62 OFFCURVE",
"21 117 CURVE"
);
}
);
width = 643;
},
{
layerId = "FA480B27-EBBD-4830-9868-98507D39050C";
name = Bold;
width = 420;
},
{
layerId = "543F9737-16F7-428D-9F96-2EBD9FC8D3B6";
name = Light;
width = 420;
}
);
unicode = 004A;
},
{
color = 6;
glyphname = K;
lastChange = "2015-08-01 13:02:05 +0000";
layers = (
{
background = {
paths = (
{
closed = 1;
nodes = (
"465 0 LINE SMOOTH",
"465 23 LINE SMOOTH",
"56 23 LINE SMOOTH",
"56 0 LINE SMOOTH"
);
},
{
closed = 1;
nodes = (
"248 477 LINE SMOOTH",
"248 13 LINE SMOOTH",
"273 13 LINE SMOOTH",
"273 477 LINE SMOOTH"
);
},
{
closed = 1;
nodes = (
"56 490 LINE SMOOTH",
"56 467 LINE SMOOTH",
"465 467 LINE SMOOTH",
"465 490 LINE SMOOTH"
);
},
{
closed = 1;
nodes = (
"815 485 LINE",
"253 137 LINE",
"267 118 LINE",
"825 465 LINE"
);
},
{
closed = 1;
nodes = (
"820 25 LINE",
"501 279 LINE",
"485 263 LINE",
"812 1 LINE"
);
},
{
closed = 1;
nodes = (
"972 467 LINE SMOOTH",
"972 490 LINE SMOOTH",
"620 490 LINE SMOOTH",
"620 467 LINE SMOOTH"
);
},
{
closed = 1;
nodes = (
"972 0 LINE SMOOTH",
"972 23 LINE SMOOTH",
"620 23 LINE SMOOTH",
"620 0 LINE SMOOTH"
);
}
);
};
layerId = "B29C398E-974A-40D0-A0A0-00935056D4B4";
name = "Light Extended";
paths = (
{
closed = 1;
nodes = (
"465 0 LINE SMOOTH",
"465 23 LINE SMOOTH",
"56 23 LINE SMOOTH",
"56 0 LINE SMOOTH"
);
},
{
closed = 1;
nodes = (
"248 477 LINE SMOOTH",
"248 13 LINE SMOOTH",
"273 13 LINE SMOOTH",
"273 477 LINE SMOOTH"
);
},
{
closed = 1;
nodes = (
"56 490 LINE SMOOTH",
"56 467 LINE SMOOTH",
"465 467 LINE SMOOTH",
"465 490 LINE SMOOTH"
);
},
{
closed = 1;
nodes = (
"804 477 LINE",
"260 141 LINE",
"260 114 LINE",
"844 477 LINE"
);
},
{
closed = 1;
nodes = (
"850 10 LINE",
"501 279 LINE",
"485 263 LINE",
"815 10 LINE"
);
},
{
closed = 1;
nodes = (
"972 467 LINE SMOOTH",
"972 490 LINE SMOOTH",
"620 490 LINE SMOOTH",
"620 467 LINE SMOOTH"
);
},
{
closed = 1;
nodes = (
"982 0 LINE SMOOTH",
"982 23 LINE SMOOTH",
"630 23 LINE SMOOTH",
"630 0 LINE SMOOTH"
);
}
);
width = 990;
},
{
layerId = "FA480B27-EBBD-4830-9868-98507D39050C";
name = Bold;
width = 420;
},
{
layerId = "543F9737-16F7-428D-9F96-2EBD9FC8D3B6";
name = Light;
width = 420;
}
);
unicode = 004B;
},
{
color = 6;
glyphname = L;
lastChange = "2015-08-01 13:03:02 +0000";
layers = (
{
layerId = "B29C398E-974A-40D0-A0A0-00935056D4B4";
name = "Light Extended";
paths = (
{
closed = 1;
nodes = (
"238 13 LINE",
"263 13 LINE",
"263 477 LINE",
"238 477 LINE"
);
},
{
closed = 1;
nodes = (
"56 467 LINE",
"455 467 LINE",
"455 490 LINE",
"56 490 LINE"
);
},
{
closed = 1;
nodes = (
"789 0 LINE",
"789 186 LINE",
"764 186 LINE",
"764 23 LINE",
"56 23 LINE",
"56 0 LINE"
);
}
);
width = 824;
},
{
layerId = "FA480B27-EBBD-4830-9868-98507D39050C";
name = Bold;
width = 420;
},
{
layerId = "543F9737-16F7-428D-9F96-2EBD9FC8D3B6";
name = Light;
width = 420;
}
);
unicode = 004C;
},
{
color = 6;
glyphname = M;
lastChange = "2015-08-01 14:58:24 +0000";
layers = (
{
background = {
paths = (
{
closed = 1;
nodes = (
"997 490 LINE",
"968 490 LINE",
"614 12 LINE",
"259 490 LINE",
"228 490 LINE",
"614 -27 LINE"
);
},
{
closed = 1;
nodes = (
"395 0 LINE",
"395 23 LINE",
"56 23 LINE",
"56 0 LINE"
);
},
{
closed = 1;
nodes = (
"258 12 LINE",
"258 477 LINE",
"233 477 LINE",
"233 12 LINE"
);
},
{
closed = 1;
nodes = (
"258 467 LINE",
"258 490 LINE",
"56 490 LINE",
"56 467 LINE"
);
},
{
closed = 1;
nodes = (
"1171 0 LINE",
"1171 23 LINE",
"832 23 LINE",
"832 0 LINE"
);
},
{
closed = 1;
nodes = (
"994 12 LINE",
"994 477 LINE",
"969 477 LINE",
"969 12 LINE"
);
},
{
closed = 1;
nodes = (
"1171 467 LINE",
"1171 490 LINE",
"969 490 LINE",
"969 467 LINE"
);
}
);
};
layerId = "B29C398E-974A-40D0-A0A0-00935056D4B4";
name = "Light Extended";
paths = (
{
closed = 1;
nodes = (
"998 490 LINE",
"969 490 LINE",
"614 11 LINE",
"258 490 LINE",
"227 490 LINE",
"614 -27 LINE"
);
},
{
closed = 1;
nodes = (
"395 0 LINE",
"395 23 LINE",
"56 23 LINE",
"56 0 LINE"
);
},
{
closed = 1;
nodes = (
"258 12 LINE",
"258 477 LINE",
"233 477 LINE",
"233 12 LINE"
);
},
{
closed = 1;
nodes = (
"258 467 LINE",
"258 490 LINE",
"56 490 LINE",
"56 467 LINE"
);
},
{
closed = 1;
nodes = (
"1171 0 LINE",
"1171 23 LINE",
"832 23 LINE",
"832 0 LINE"
);
},
{
closed = 1;
nodes = (
"994 12 LINE",
"994 477 LINE",
"969 477 LINE",
"969 12 LINE"
);
},
{
closed = 1;
nodes = (
"1171 467 LINE",
"1171 490 LINE",
"969 490 LINE",
"969 467 LINE"
);
}
);
width = 1227;
},
{
layerId = "FA480B27-EBBD-4830-9868-98507D39050C";
name = Bold;
paths = (
{
closed = 1;
nodes = (
"714 490 LINE",
"620 490 LINE",
"433 126 LINE",
"239 490 LINE",
"134 490 LINE",
"426 -46 LINE"
);
},
{
closed = 1;
nodes = (
"305 0 LINE",
"305 74 LINE",
"39 74 LINE",
"39 0 LINE"
);
},
{
closed = 1;
nodes = (
"225 46 LINE",
"225 442 LINE",
"127 442 LINE",
"127 46 LINE"
);
},
{
closed = 1;
nodes = (
"225 417 LINE",
"225 490 LINE",
"39 490 LINE",
"39 417 LINE"
);
},
{
closed = 1;
nodes = (
"823 0 LINE",
"823 74 LINE",
"547 74 LINE",
"547 0 LINE"
);
},
{
closed = 1;
nodes = (
"735 46 LINE",
"735 442 LINE",
"627 442 LINE",
"627 46 LINE"
);
},
{
closed = 1;
nodes = (
"823 417 LINE",
"823 490 LINE",
"627 490 LINE",
"627 417 LINE"
);
}
);
width = 862;
},
{
layerId = "543F9737-16F7-428D-9F96-2EBD9FC8D3B6";
name = Light;
paths = (
{
closed = 1;
nodes = (
"680 490 LINE",
"652 490 LINE",
"430 20 LINE",
"207 490 LINE",
"179 490 LINE",
"429 -29 LINE"
);
},
{
closed = 1;
nodes = (
"288 0 LINE",
"288 24 LINE",
"57 24 LINE",
"57 0 LINE"
);
},
{
closed = 1;
nodes = (
"190 12 LINE",
"190 477 LINE",
"166 477 LINE",
"166 12 LINE"
);
},
{
closed = 1;
nodes = (
"200 466 LINE",
"200 490 LINE",
"61 490 LINE",
"61 466 LINE"
);
},
{
closed = 1;
nodes = (
"798 0 LINE",
"798 24 LINE",
"568 24 LINE",
"568 0 LINE"
);
},
{
closed = 1;
nodes = (
"693 12 LINE",
"693 477 LINE",
"669 477 LINE",
"669 12 LINE"
);
},
{
closed = 1;
nodes = (
"798 466 LINE",
"798 490 LINE",
"669 490 LINE",
"669 466 LINE"
);
}
);
width = 862;
}
);
unicode = 004D;
},
{
color = 6;
glyphname = N;
lastChange = "2015-08-01 14:58:24 +0000";
layers = (
{
background = {
paths = (
{
closed = 0;
nodes = (
"59 490 LINE",
"59 467 LINE"
);
}
);
};
layerId = "B29C398E-974A-40D0-A0A0-00935056D4B4";
name = "Light Extended";
paths = (
{
closed = 1;
nodes = (
"262 12 LINE",
"262 490 LINE",
"237 490 LINE",
"237 12 LINE"
);
},
{
closed = 1;
nodes = (
"218 490 LINE",
"909 -26 LINE",
"909 477 LINE",
"884 477 LINE",
"884 24 LINE",
"262 490 LINE"
);
},
{
closed = 1;
nodes = (
"262 490 LINE",
"56 490 LINE",
"56 467 LINE",
"262 467 LINE"
);
},
{
closed = 1;
nodes = (
"1090 467 LINE",
"1090 490 LINE",
"704 490 LINE",
"704 467 LINE"
);
},
{
closed = 1;
nodes = (
"56 23 LINE",
"56 0 LINE",
"442 0 LINE",
"442 23 LINE"
);
}
);
width = 1100;
},
{
layerId = "FA480B27-EBBD-4830-9868-98507D39050C";
name = Bold;
width = 420;
},
{
layerId = "543F9737-16F7-428D-9F96-2EBD9FC8D3B6";
name = Light;
width = 420;
}
);
unicode = 004E;
},
{
glyphname = O;
lastChange = "2015-08-01 12:21:47 +0000";
layers = (
{
background = {
paths = (
{
closed = 1;
nodes = (
"208 -27 OFFCURVE",
"84 47 OFFCURVE",
"84 175 CURVE",
"84 303 OFFCURVE",
"208 377 OFFCURVE",
"358 377 CURVE",
"507 377 OFFCURVE",
"631 303 OFFCURVE",
"631 175 CURVE",
"631 47 OFFCURVE",
"507 -27 OFFCURVE",
"358 -27 CURVE"
);
},
{
closed = 1;
nodes = (
"216 359 OFFCURVE",
"102 290 OFFCURVE",
"102 175 CURVE",
"102 60 OFFCURVE",
"216 -9 OFFCURVE",
"358 -9 CURVE",
"500 -9 OFFCURVE",
"613 60 OFFCURVE",
"613 175 CURVE",
"613 290 OFFCURVE",
"500 359 OFFCURVE",
"358 359 CURVE"
);
}
);
};
layerId = "B29C398E-974A-40D0-A0A0-00935056D4B4";
name = "Light Extended";
paths = (
{
closed = 1;
nodes = (
"669 -20 OFFCURVE",
"836 78 OFFCURVE",
"836 248 CURVE",
"836 417 OFFCURVE",
"669 516 OFFCURVE",
"453 516 CURVE",
"237 516 OFFCURVE",
"70 417 OFFCURVE",
"70 248 CURVE",
"70 78 OFFCURVE",
"237 -20 OFFCURVE",
"453 -20 CURVE"
);
},
{
closed = 1;
nodes = (
"247 3 OFFCURVE",
"95 96 OFFCURVE",
"95 248 CURVE",
"95 400 OFFCURVE",
"247 493 OFFCURVE",
"453 493 CURVE",
"658 493 OFFCURVE",
"811 400 OFFCURVE",
"811 248 CURVE",
"811 96 OFFCURVE",
"658 3 OFFCURVE",
"453 3 CURVE"
);
}
);
width = 906;
},
{
layerId = "FA480B27-EBBD-4830-9868-98507D39050C";
name = Bold;
paths = (
{
closed = 1;
nodes = (
"479 -27 OFFCURVE",
"608 62 OFFCURVE",
"608 245 CURVE",
"608 428 OFFCURVE",
"479 517 OFFCURVE",
"320 517 CURVE",
"160 517 OFFCURVE",
"31 428 OFFCURVE",
"31 245 CURVE",
"31 62 OFFCURVE",
"160 -27 OFFCURVE",
"320 -27 CURVE"
);
},
{
closed = 1;
nodes = (
"213 54 OFFCURVE",
"147 139 OFFCURVE",
"147 245 CURVE",
"147 351 OFFCURVE",
"213 436 OFFCURVE",
"320 436 CURVE",
"428 436 OFFCURVE",
"493 351 OFFCURVE",
"493 245 CURVE",
"493 139 OFFCURVE",
"428 54 OFFCURVE",
"320 54 CURVE"
);
}
);
width = 640;
},
{
layerId = "543F9737-16F7-428D-9F96-2EBD9FC8D3B6";
name = Light;
paths = (
{
closed = 1;
nodes = (
"458 -27 OFFCURVE",
"573 72 OFFCURVE",
"573 245 CURVE",
"573 418 OFFCURVE",
"458 517 OFFCURVE",
"320 517 CURVE",
"181 517 OFFCURVE",
"67 418 OFFCURVE",
"67 245 CURVE",
"67 72 OFFCURVE",
"181 -27 OFFCURVE",
"320 -27 CURVE"
);
},
{
closed = 1;
nodes = (
"191 -3 OFFCURVE",
"91 90 OFFCURVE",
"91 245 CURVE",
"91 400 OFFCURVE",
"191 493 OFFCURVE",
"320 493 CURVE",
"448 493 OFFCURVE",
"549 400 OFFCURVE",
"549 245 CURVE",
"549 90 OFFCURVE",
"448 -3 OFFCURVE",
"320 -3 CURVE"
);
}
);
width = 640;
}
);
unicode = 004F;
},
{
glyphname = P;
lastChange = "2015-08-01 12:21:47 +0000";
layers = (
{
layerId = "B29C398E-974A-40D0-A0A0-00935056D4B4";
name = "Light Extended";
paths = (
{
closed = 1;
nodes = (
"263 13 LINE",
"263 477 LINE",
"238 477 LINE",
"238 13 LINE"
);
},
{
closed = 1;
nodes = (
"455 0 LINE",
"455 23 LINE",
"56 23 LINE",
"56 0 LINE"
);
},
{
closed = 1;
nodes = (
"694 193 LINE SMOOTH",
"806 193 OFFCURVE",
"874 258 OFFCURVE",
"874 340 CURVE SMOOTH",
"874 431 OFFCURVE",
"804 490 OFFCURVE",
"694 490 CURVE SMOOTH",
"56 490 LINE",
"56 467 LINE",
"701 467 LINE SMOOTH",
"790 467 OFFCURVE",
"849 415 OFFCURVE",
"849 340 CURVE SMOOTH",
"849 267 OFFCURVE",
"787 216 OFFCURVE",
"701 216 CURVE SMOOTH",
"251 216 LINE",
"251 193 LINE"
);
}
);
width = 923;
},
{
layerId = "FA480B27-EBBD-4830-9868-98507D39050C";
name = Bold;
width = 420;
},
{
layerId = "543F9737-16F7-428D-9F96-2EBD9FC8D3B6";
name = Light;
width = 420;
}
);
unicode = 0050;
},
{
color = 6;
glyphname = Q;
lastChange = "2015-08-01 14:59:19 +0000";
layers = (
{
background = {
paths = (
{
closed = 1;
nodes = (
"115 87 LINE",
"115 69 LINE",
"265 69 LINE SMOOTH",
"302 69 OFFCURVE",
"328 56 OFFCURVE",
"352 24 CURVE SMOOTH",
"372 -1 OFFCURVE",
"389 -34 OFFCURVE",
"413 -62 CURVE SMOOTH",
"445 -97 OFFCURVE",
"479 -109 OFFCURVE",
"531 -109 CURVE SMOOTH",
"607 -109 OFFCURVE",
"667 -57 OFFCURVE",
"667 22 CURVE",
"650 22 LINE",
"650 -50 OFFCURVE",
"594 -92 OFFCURVE",
"531 -92 CURVE SMOOTH",
"467 -92 OFFCURVE",
"437 -67 OFFCURVE",
"406 -22 CURVE SMOOTH",
"389 1 OFFCURVE",
"375 28 OFFCURVE",
"354 50 CURVE SMOOTH",
"331 75 OFFCURVE",
"302 87 OFFCURVE",
"265 87 CURVE SMOOTH"
);
}
);
};
layerId = "B29C398E-974A-40D0-A0A0-00935056D4B4";
name = "Light Extended";
paths = (
{
closed = 1;
nodes = (
"874 -9 LINE",
"864 -87 OFFCURVE",
"808 -135 OFFCURVE",
"731 -135 CURVE SMOOTH",
"646 -135 OFFCURVE",
"588 -71 OFFCURVE",
"510 23 CURVE SMOOTH",
"417 134 OFFCURVE",
"350 193 OFFCURVE",
"174 193 CURVE SMOOTH",
"93 193 LINE",
"93 170 LINE",
"174 170 LINE SMOOTH",
"336 170 OFFCURVE",
"404 113 OFFCURVE",
"485 17 CURVE SMOOTH",
"575 -93 OFFCURVE",
"634 -158 OFFCURVE",
"731 -158 CURVE SMOOTH",
"823 -158 OFFCURVE",
"886 -99 OFFCURVE",
"897 -13 CURVE"
);
},
{
closed = 1;
nodes = (
"669 -20 OFFCURVE",
"836 78 OFFCURVE",
"836 248 CURVE",
"836 417 OFFCURVE",
"669 516 OFFCURVE",
"453 516 CURVE",
"237 516 OFFCURVE",
"70 417 OFFCURVE",
"70 248 CURVE",
"70 78 OFFCURVE",
"237 -20 OFFCURVE",
"453 -20 CURVE"
);
},
{
closed = 1;
nodes = (
"247 3 OFFCURVE",
"95 96 OFFCURVE",
"95 248 CURVE",
"95 400 OFFCURVE",
"247 493 OFFCURVE",
"453 493 CURVE",
"658 493 OFFCURVE",
"811 400 OFFCURVE",
"811 248 CURVE",
"811 96 OFFCURVE",
"658 3 OFFCURVE",
"453 3 CURVE"
);
}
);
width = 932;
},
{
layerId = "FA480B27-EBBD-4830-9868-98507D39050C";
name = Bold;
width = 420;
},
{
layerId = "543F9737-16F7-428D-9F96-2EBD9FC8D3B6";
name = Light;
width = 420;
}
);
unicode = 0051;
},
{
color = 6;
glyphname = Q.alt;
lastChange = "2015-08-01 15:16:23 +0000";
layers = (
{
background = {
paths = (
{
closed = 1;
nodes = (
"538 196 OFFCURVE",
"428 265 OFFCURVE",
"130 265 CURVE SMOOTH",
"83 265 LINE",
"83 242 LINE",
"130 242 LINE SMOOTH",
"395 242 OFFCURVE",
"507 191 OFFCURVE",
"661 -1 CURVE SMOOTH",
"830 -214 OFFCURVE",
"952 -351 OFFCURVE",
"1156 -351 CURVE SMOOTH",
"1296 -351 OFFCURVE",
"1387 -305 OFFCURVE",
"1465 -234 CURVE",
"1449 -216 LINE",
"1378 -281 OFFCURVE",
"1292 -328 OFFCURVE",
"1156 -328 CURVE SMOOTH",
"973 -328 OFFCURVE",
"853 -205 OFFCURVE",
"692 0 CURVE SMOOTH"
);
},
{
closed = 1;
nodes = (
"669 -20 OFFCURVE",
"836 78 OFFCURVE",
"836 248 CURVE",
"836 417 OFFCURVE",
"669 516 OFFCURVE",
"453 516 CURVE",
"237 516 OFFCURVE",
"70 417 OFFCURVE",
"70 248 CURVE",
"70 78 OFFCURVE",
"237 -20 OFFCURVE",
"453 -20 CURVE"
);
},
{
closed = 1;
nodes = (
"247 3 OFFCURVE",
"95 96 OFFCURVE",
"95 248 CURVE",
"95 400 OFFCURVE",
"247 493 OFFCURVE",
"453 493 CURVE",
"658 493 OFFCURVE",
"811 400 OFFCURVE",
"811 248 CURVE",
"811 96 OFFCURVE",
"658 3 OFFCURVE",
"453 3 CURVE"
);
}
);
};
guideLines = (
{
position = "{603, 27}";
}
);
layerId = "B29C398E-974A-40D0-A0A0-00935056D4B4";
name = "Light Extended";
paths = (
{
closed = 1;
nodes = (
"552 185 OFFCURVE",
"428 265 OFFCURVE",
"180 265 CURVE SMOOTH",
"83 265 LINE",
"83 242 LINE",
"180 242 LINE SMOOTH",
"407 242 OFFCURVE",
"527 174 OFFCURVE",
"681 19 CURVE SMOOTH",
"883 -185 OFFCURVE",
"1022 -280 OFFCURVE",
"1212 -280 CURVE SMOOTH",
"1356 -280 OFFCURVE",
"1456 -227 OFFCURVE",
"1522 -184 CURVE",
"1509 -165 LINE",
"1448 -206 OFFCURVE",
"1352 -257 OFFCURVE",
"1212 -257 CURVE SMOOTH",
"1043 -257 OFFCURVE",
"912 -177 OFFCURVE",
"716 20 CURVE SMOOTH"
);
},
{
closed = 1;
nodes = (
"669 -20 OFFCURVE",
"836 78 OFFCURVE",
"836 248 CURVE",
"836 417 OFFCURVE",
"669 516 OFFCURVE",
"453 516 CURVE",
"237 516 OFFCURVE",
"70 417 OFFCURVE",
"70 248 CURVE",
"70 78 OFFCURVE",
"237 -20 OFFCURVE",
"453 -20 CURVE"
);
},
{
closed = 1;
nodes = (
"247 3 OFFCURVE",
"95 96 OFFCURVE",
"95 248 CURVE",
"95 400 OFFCURVE",
"247 493 OFFCURVE",
"453 493 CURVE",
"658 493 OFFCURVE",
"811 400 OFFCURVE",
"811 248 CURVE",
"811 96 OFFCURVE",
"658 3 OFFCURVE",
"453 3 CURVE"
);
}
);
width = 905;
},
{
layerId = "FA480B27-EBBD-4830-9868-98507D39050C";
name = Bold;
width = 420;
},
{
layerId = "543F9737-16F7-428D-9F96-2EBD9FC8D3B6";
name = Light;
width = 420;
}
);
},
{
color = 4;
glyphname = R;
lastChange = "2015-08-01 15:21:29 +0000";
layers = (
{
background = {
paths = (
{
closed = 1;
nodes = (
"452 209 LINE SMOOTH",
"536 209 OFFCURVE",
"583 156 OFFCURVE",
"630 95 CURVE SMOOTH",
"681 29 OFFCURVE",
"727 -37 OFFCURVE",
"829 -37 CURVE SMOOTH",
"948 -37 OFFCURVE",
"1012 64 OFFCURVE",
"1012 179 CURVE",
"987 179 LINE",
"987 73 OFFCURVE",
"929 -14 OFFCURVE",
"829 -14 CURVE SMOOTH",
"746 -14 OFFCURVE",
"702 45 OFFCURVE",
"651 108 CURVE SMOOTH",
"590 183 OFFCURVE",
"553 224 OFFCURVE",
"440 225 CURVE SMOOTH",
"353 225 LINE",
"353 209 LINE"
);
},
{
closed = 1;
nodes = (
"263 14 LINE",
"263 477 LINE",
"238 477 LINE",
"238 14 LINE"
);
},
{
closed = 1;
nodes = (
"454 1 LINE",
"454 24 LINE",
"56 23 LINE",
"56 0 LINE"
);
},
{
closed = 1;
nodes = (
"737 209 LINE",
"841 209 OFFCURVE",
"900 279 OFFCURVE",
"900 348 CURVE SMOOTH",
"900 427 OFFCURVE",
"840 490 OFFCURVE",
"737 490 CURVE",
"56 490 LINE",
"56 467 LINE",
"737 467 LINE",
"826 467 OFFCURVE",
"875 411 OFFCURVE",
"875 348 CURVE SMOOTH",
"875 287 OFFCURVE",
"823 232 OFFCURVE",
"737 232 CURVE",
"258 232 LINE",
"258 209 LINE"
);
}
);
};
layerId = "B29C398E-974A-40D0-A0A0-00935056D4B4";
name = "Light Extended";
paths = (
{
closed = 1;
nodes = (
"452 209 LINE SMOOTH",
"536 209 OFFCURVE",
"581 154 OFFCURVE",
"630 95 CURVE SMOOTH",
"685 29 OFFCURVE",
"747 -37 OFFCURVE",
"839 -37 CURVE SMOOTH",
"949 -37 OFFCURVE",
"1012 37 OFFCURVE",
"1012 148 CURVE SMOOTH",
"1012 169 LINE",
"987 169 LINE",
"987 148 LINE SMOOTH",
"987 48 OFFCURVE",
"931 -14 OFFCURVE",
"839 -14 CURVE SMOOTH",
"756 -14 OFFCURVE",
"705 45 OFFCURVE",
"651 108 CURVE SMOOTH",
"588 182 OFFCURVE",
"548 223 OFFCURVE",
"440 223 CURVE SMOOTH",
"258 223 LINE",
"258 209 LINE"
);
},
{
closed = 1;
nodes = (
"263 14 LINE",
"263 477 LINE",
"238 477 LINE",
"238 14 LINE"
);
},
{
closed = 1;
nodes = (
"454 1 LINE",
"454 24 LINE",
"56 23 LINE",
"56 0 LINE"
);
},
{
closed = 1;
nodes = (
"717 211 LINE SMOOTH",
"841 211 OFFCURVE",
"900 279 OFFCURVE",
"900 348 CURVE SMOOTH",
"900 427 OFFCURVE",
"840 490 OFFCURVE",
"717 490 CURVE SMOOTH",
"56 490 LINE",
"56 467 LINE",
"717 467 LINE SMOOTH",
"826 467 OFFCURVE",
"875 411 OFFCURVE",
"875 348 CURVE SMOOTH",
"875 287 OFFCURVE",
"823 232 OFFCURVE",
"717 232 CURVE SMOOTH",
"258 232 LINE",
"258 211 LINE"
);
}
);
width = 1047;
},
{
layerId = "FA480B27-EBBD-4830-9868-98507D39050C";
name = Bold;
width = 420;
},
{
layerId = "543F9737-16F7-428D-9F96-2EBD9FC8D3B6";
name = Light;
width = 420;
}
);
unicode = 0052;
},
{
color = 6;
glyphname = R.alt;
lastChange = "2015-08-01 15:23:00 +0000";
layers = (
{
background = {
paths = (
{
closed = 1;
nodes = (
"263 18 LINE",
"263 475 LINE",
"238 475 LINE",
"238 18 LINE"
);
},
{
closed = 1;
nodes = (
"456 0 LINE",
"456 23 LINE",
"56 23 LINE",
"56 0 LINE"
);
},
{
closed = 1;
nodes = (
"613 213 LINE SMOOTH",
"729 213 OFFCURVE",
"815 264 OFFCURVE",
"815 350 CURVE SMOOTH",
"815 433 OFFCURVE",
"754 490 OFFCURVE",
"638 490 CURVE SMOOTH",
"56 490 LINE",
"56 467 LINE",
"638 467 LINE SMOOTH",
"741 467 OFFCURVE",
"790 417 OFFCURVE",
"790 350 CURVE SMOOTH",
"790 276 OFFCURVE",
"711 236 OFFCURVE",
"613 236 CURVE SMOOTH",
"251 236 LINE",
"251 213 LINE"
);
},
{
closed = 1;
nodes = (
"302 225 LINE",
"281 213 LINE",
"403 213 LINE SMOOTH",
"566 213 OFFCURVE",
"642 173 OFFCURVE",
"762 -8 CURVE SMOOTH",
"904 -223 OFFCURVE",
"1051 -353 OFFCURVE",
"1266 -353 CURVE SMOOTH",
"1433 -353 OFFCURVE",
"1537 -286 OFFCURVE",
"1595 -248 CURVE",
"1584 -229 LINE",
"1531 -265 OFFCURVE",
"1429 -330 OFFCURVE",
"1266 -330 CURVE SMOOTH",
"1072 -330 OFFCURVE",
"928 -214 OFFCURVE",
"790 -7 CURVE SMOOTH",
"672 170 OFFCURVE",
"610 225 OFFCURVE",
"405 225 CURVE SMOOTH"
);
}
);
};
guideLines = (
{
position = "{475, -263}";
}
);
layerId = "B29C398E-974A-40D0-A0A0-00935056D4B4";
name = "Light Extended";
paths = (
{
closed = 1;
nodes = (
"263 18 LINE",
"263 475 LINE",
"238 475 LINE",
"238 18 LINE"
);
},
{
closed = 1;
nodes = (
"456 0 LINE",
"456 23 LINE",
"56 23 LINE",
"56 0 LINE"
);
},
{
closed = 1;
nodes = (
"251 227 LINE",
"252 213 LINE",
"403 213 LINE SMOOTH",
"566 213 OFFCURVE",
"627 167 OFFCURVE",
"762 12 CURVE SMOOTH",
"894 -140 OFFCURVE",
"1031 -280 OFFCURVE",
"1246 -280 CURVE SMOOTH",
"1413 -280 OFFCURVE",
"1508 -214 OFFCURVE",
"1566 -176 CURVE",
"1554 -156 LINE",
"1501 -192 OFFCURVE",
"1409 -257 OFFCURVE",
"1246 -257 CURVE SMOOTH",
"1052 -257 OFFCURVE",
"922 -134 OFFCURVE",
"795 13 CURVE SMOOTH",
"660 169 OFFCURVE",
"593 227 OFFCURVE",
"405 227 CURVE SMOOTH"
);
},
{
closed = 1;
nodes = (
"631 214 LINE SMOOTH",
"755 214 OFFCURVE",
"814 283 OFFCURVE",
"814 353 CURVE SMOOTH",
"814 432 OFFCURVE",
"754 490 OFFCURVE",
"631 490 CURVE SMOOTH",
"56 490 LINE",
"56 467 LINE",
"631 467 LINE SMOOTH",
"740 467 OFFCURVE",
"789 416 OFFCURVE",
"789 353 CURVE SMOOTH",
"789 291 OFFCURVE",
"737 235 OFFCURVE",
"631 235 CURVE SMOOTH",
"258 235 LINE",
"258 214 LINE"
);
}
);
width = 893;
},
{
layerId = "FA480B27-EBBD-4830-9868-98507D39050C";
name = Bold;
width = 420;
},
{
layerId = "543F9737-16F7-428D-9F96-2EBD9FC8D3B6";
name = Light;
width = 420;
}
);
},
{
color = 6;
glyphname = S;
lastChange = "2015-08-01 21:54:10 +0000";
layers = (
{
background = {
paths = (
{
closed = 1;
nodes = (
"237 494 OFFCURVE",
"136 450 OFFCURVE",
"136 375 CURVE SMOOTH",
"136 305 OFFCURVE",
"221 281 OFFCURVE",
"424 258 CURVE SMOOTH",
"658 232 OFFCURVE",
"771 218 OFFCURVE",
"771 119 CURVE SMOOTH",
"771 20 OFFCURVE",
"652 -20 OFFCURVE",
"491 -20 CURVE",
"319 -20 OFFCURVE",
"165 55 OFFCURVE",
"112 120 CURVE",
"134 120 LINE",
"134 0 LINE",
"109 0 LINE",
"109 158 LINE",
"185 64 OFFCURVE",
"343 3 OFFCURVE",
"492 3 CURVE",
"636 3 OFFCURVE",
"747 43 OFFCURVE",
"747 119 CURVE SMOOTH",
"747 196 OFFCURVE",
"652 209 OFFCURVE",
"423 234 CURVE SMOOTH",
"206 257 OFFCURVE",
"111 281 OFFCURVE",
"111 375 CURVE SMOOTH",
"111 466 OFFCURVE",
"211 517 OFFCURVE",
"368 517 CURVE",
"567 517 OFFCURVE",
"680 440 OFFCURVE",
"732 375 CURVE",
"711 375 LINE",
"711 490 LINE",
"736 490 LINE",
"736 338 LINE",
"659 431 OFFCURVE",
"543 494 OFFCURVE",
"366 494 CURVE"
);
}
);
};
layerId = "B29C398E-974A-40D0-A0A0-00935056D4B4";
name = "Light Extended";
paths = (
{
closed = 1;
nodes = (
"227 494 OFFCURVE",
"136 455 OFFCURVE",
"136 375 CURVE SMOOTH",
"136 305 OFFCURVE",
"211 275 OFFCURVE",
"434 257 CURVE SMOOTH",
"673 238 OFFCURVE",
"771 207 OFFCURVE",
"771 113 CURVE SMOOTH",
"771 24 OFFCURVE",
"667 -20 OFFCURVE",
"526 -20 CURVE SMOOTH",
"354 -20 OFFCURVE",
"190 55 OFFCURVE",
"117 130 CURVE",
"132 130 LINE",
"132 -20 LINE",
"109 -20 LINE",
"109 168 LINE",
"205 64 OFFCURVE",
"378 3 OFFCURVE",
"527 3 CURVE SMOOTH",
"651 3 OFFCURVE",
"747 37 OFFCURVE",
"747 113 CURVE SMOOTH",
"747 190 OFFCURVE",
"659 217 OFFCURVE",
"433 233 CURVE SMOOTH",
"188 250 OFFCURVE",
"111 294 OFFCURVE",
"111 375 CURVE SMOOTH",
"111 466 OFFCURVE",
"206 517 OFFCURVE",
"368 517 CURVE SMOOTH",
"552 517 OFFCURVE",
"655 440 OFFCURVE",
"727 365 CURVE",
"713 365 LINE",
"713 517 LINE",
"736 517 LINE",
"736 328 LINE",
"639 431 OFFCURVE",
"533 494 OFFCURVE",
"366 494 CURVE SMOOTH"
);
}
);
width = 848;
},
{
layerId = "FA480B27-EBBD-4830-9868-98507D39050C";
name = Bold;
width = 420;
},
{
layerId = "543F9737-16F7-428D-9F96-2EBD9FC8D3B6";
name = Light;
width = 420;
}
);
unicode = 0053;
},
{
glyphname = S.alt2;
lastChange = "2015-08-01 12:21:47 +0000";
layers = (
{
layerId = "B29C398E-974A-40D0-A0A0-00935056D4B4";
name = "Light Extended";
paths = (
{
closed = 1;
nodes = (
"645 -20 OFFCURVE",
"785 24 OFFCURVE",
"785 123 CURVE SMOOTH",
"785 222 OFFCURVE",
"672 242 OFFCURVE",
"424 262 CURVE SMOOTH",
"203 280 OFFCURVE",
"118 312 OFFCURVE",
"118 382 CURVE SMOOTH",
"118 457 OFFCURVE",
"234 494 OFFCURVE",
"397 494 CURVE SMOOTH",
"519 494 OFFCURVE",
"666 466 OFFCURVE",
"761 435 CURVE",
"761 459 LINE",
"662 493 OFFCURVE",
"528 517 OFFCURVE",
"397 517 CURVE SMOOTH",
"206 517 OFFCURVE",
"94 473 OFFCURVE",
"94 382 CURVE SMOOTH",
"94 288 OFFCURVE",
"188 256 OFFCURVE",
"423 237 CURVE SMOOTH",
"666 218 OFFCURVE",
"761 200 OFFCURVE",
"761 123 CURVE SMOOTH",
"761 47 OFFCURVE",
"629 3 OFFCURVE",
"475 3 CURVE SMOOTH",
"329 3 OFFCURVE",
"174 40 OFFCURVE",
"63 95 CURVE",
"63 67 LINE",
"174 15 OFFCURVE",
"321 -20 OFFCURVE",
"473 -20 CURVE SMOOTH"
);
}
);
width = 848;
},
{
layerId = "FA480B27-EBBD-4830-9868-98507D39050C";
name = Bold;
width = 420;
},
{
layerId = "543F9737-16F7-428D-9F96-2EBD9FC8D3B6";
name = Light;
width = 420;
}
);
},
{
glyphname = T;
lastChange = "2015-08-01 12:21:47 +0000";
layers = (
{
layerId = "B29C398E-974A-40D0-A0A0-00935056D4B4";
name = "Light Extended";
paths = (
{
closed = 1;
nodes = (
"614 0 LINE",
"614 23 LINE",
"204 23 LINE",
"204 0 LINE"
);
},
{
closed = 1;
nodes = (
"397 477 LINE",
"397 13 LINE",
"422 13 LINE",
"422 477 LINE"
);
},
{
closed = 1;
nodes = (
"39 490 LINE",
"39 307 LINE",
"64 307 LINE",
"64 467 LINE",
"755 467 LINE",
"755 307 LINE",
"780 307 LINE",
"780 490 LINE"
);
}
);
width = 819;
},
{
layerId = "FA480B27-EBBD-4830-9868-98507D39050C";
name = Bold;
width = 420;
},
{
layerId = "543F9737-16F7-428D-9F96-2EBD9FC8D3B6";
name = Light;
width = 420;
}
);
unicode = 0054;
},
{
glyphname = U;
lastChange = "2015-08-01 12:21:47 +0000";
layers = (
{
background = {
paths = (
{
closed = 1;
nodes = (
"846 160 LINE SMOOTH",
"846 133 OFFCURVE",
"838 108 OFFCURVE",
"821 85 CURVE SMOOTH",
"797 51 OFFCURVE",
"756 22 OFFCURVE",
"704 1 CURVE SMOOTH",
"653 -19 OFFCURVE",
"592 -31 OFFCURVE",
"529 -31 CURVE SMOOTH",
"451 -31 OFFCURVE",
"373 -10 OFFCURVE",
"316 25 CURVE SMOOTH",
"287 41 OFFCURVE",
"263 62 OFFCURVE",
"247 85 CURVE SMOOTH",
"231 108 OFFCURVE",
"223 133 OFFCURVE",
"222 160 CURVE",
"222 477 LINE",
"197 477 LINE",
"197 160 LINE SMOOTH",
"197 127 OFFCURVE",
"207 97 OFFCURVE",
"226 70 CURVE SMOOTH",
"254 31 OFFCURVE",
"299 -1 OFFCURVE",
"352 -22 CURVE SMOOTH",
"406 -44 OFFCURVE",
"467 -57 OFFCURVE",
"529 -57 CURVE SMOOTH",
"617 -57 OFFCURVE",
"701 -35 OFFCURVE",
"765 2 CURVE SMOOTH",
"797 21 OFFCURVE",
"824 43 OFFCURVE",
"842 70 CURVE SMOOTH",
"862 97 OFFCURVE",
"872 127 OFFCURVE",
"872 160 CURVE SMOOTH",
"872 477 LINE",
"846 477 LINE"
);
},
{
closed = 1;
nodes = (
"420 464 LINE",
"420 490 LINE",
"-15 490 LINE",
"-15 464 LINE"
);
},
{
closed = 1;
nodes = (
"1082 464 LINE",
"1082 490 LINE",
"647 490 LINE",
"647 464 LINE"
);
}
);
};
layerId = "B29C398E-974A-40D0-A0A0-00935056D4B4";
name = "Light Extended";
paths = (
{
closed = 1;
nodes = (
"407 467 LINE",
"407 490 LINE",
"14 490 LINE",
"14 467 LINE"
);
},
{
closed = 1;
nodes = (
"705 -20 OFFCURVE",
"830 69 OFFCURVE",
"830 244 CURVE SMOOTH",
"830 477 LINE",
"808 477 LINE",
"805 232 LINE SMOOTH",
"803 79 OFFCURVE",
"686 3 OFFCURVE",
"512 3 CURVE",
"337 3 OFFCURVE",
"219 79 OFFCURVE",
"218 233 CURVE SMOOTH",
"215 477 LINE",
"193 477 LINE",
"193 244 LINE SMOOTH",
"193 69 OFFCURVE",
"319 -20 OFFCURVE",
"512 -20 CURVE"
);
},
{
closed = 1;
nodes = (
"1009 490 LINE",
"616 490 LINE",
"616 467 LINE",
"1009 467 LINE"
);
}
);
width = 1023;
},
{
layerId = "FA480B27-EBBD-4830-9868-98507D39050C";
name = Bold;
width = 420;
},
{
layerId = "543F9737-16F7-428D-9F96-2EBD9FC8D3B6";
name = Light;
width = 420;
}
);
unicode = 0055;
},
{
glyphname = V;
lastChange = "2015-08-01 12:21:47 +0000";
layers = (
{
layerId = "B29C398E-974A-40D0-A0A0-00935056D4B4";
name = "Light Extended";
paths = (
{
closed = 1;
nodes = (
"785 477 LINE",
"476 12 LINE",
"168 477 LINE",
"137 477 LINE",
"475 -31 LINE",
"814 477 LINE"
);
},
{
closed = 1;
nodes = (
"-18 490 LINE",
"-18 467 LINE",
"319 467 LINE",
"319 490 LINE"
);
},
{
closed = 1;
nodes = (
"631 490 LINE",
"631 467 LINE",
"968 467 LINE",
"968 490 LINE"
);
}
);
width = 951;
},
{
layerId = "FA480B27-EBBD-4830-9868-98507D39050C";
name = Bold;
width = 420;
},
{
layerId = "543F9737-16F7-428D-9F96-2EBD9FC8D3B6";
name = Light;
width = 420;
}
);
unicode = 0056;
},
{
glyphname = W;
lastChange = "2015-08-01 12:21:47 +0000";
layers = (
{
background = {
paths = (
{
closed = 1;
nodes = (
"795 477 LINE",
"465 12 LINE",
"137 477 LINE",
"105 477 LINE",
"465 -31 LINE",
"825 477 LINE"
);
},
{
closed = 1;
nodes = (
"-49 490 LINE",
"-49 466 LINE",
"288 466 LINE",
"288 490 LINE"
);
},
{
closed = 1;
nodes = (
"642 490 LINE",
"642 466 LINE",
"979 466 LINE",
"979 490 LINE"
);
}
);
};
layerId = "B29C398E-974A-40D0-A0A0-00935056D4B4";
name = "Light Extended";
paths = (
{
closed = 1;
nodes = (
"746 477 LINE",
"438 13 LINE",
"172 477 LINE",
"143 477 LINE",
"437 -31 LINE",
"775 477 LINE"
);
},
{
closed = 1;
nodes = (
"-14 490 LINE",
"-14 468 LINE",
"309 468 LINE",
"309 490 LINE"
);
},
{
closed = 1;
nodes = (
"383 490 LINE",
"383 468 LINE",
"853 468 LINE",
"853 490 LINE"
);
},
{
closed = 1;
nodes = (
"1068 477 LINE",
"799 13 LINE",
"493 477 LINE",
"465 477 LINE",
"801 -31 LINE",
"1095 477 LINE"
);
},
{
closed = 1;
nodes = (
"929 490 LINE",
"929 468 LINE",
"1252 468 LINE",
"1252 490 LINE"
);
}
);
width = 1238;
},
{
layerId = "FA480B27-EBBD-4830-9868-98507D39050C";
name = Bold;
width = 420;
},
{
layerId = "543F9737-16F7-428D-9F96-2EBD9FC8D3B6";
name = Light;
width = 420;
}
);
unicode = 0057;
},
{
color = 6;
glyphname = X;
lastChange = "2015-08-01 15:44:14 +0000";
layers = (
{
background = {
paths = (
{
closed = 1;
nodes = (
"25 490 LINE",
"25 467 LINE",
"362 467 LINE",
"362 490 LINE SMOOTH"
);
},
{
closed = 1;
nodes = (
"885 0 LINE",
"885 23 LINE",
"549 23 LINE",
"549 0 LINE"
);
},
{
closed = 1;
nodes = (
"738 12 LINE",
"195 477 LINE",
"157 477 LINE",
"700 12 LINE"
);
},
{
closed = 1;
nodes = (
"749 477 LINE",
"712 477 LINE",
"169 12 LINE",
"207 12 LINE"
);
},
{
closed = 1;
nodes = (
"547 467 LINE",
"884 467 LINE",
"884 490 LINE",
"547 490 LINE SMOOTH"
);
},
{
closed = 1;
nodes = (
"360 23 LINE",
"24 23 LINE",
"24 0 LINE",
"360 0 LINE"
);
}
);
};
layerId = "B29C398E-974A-40D0-A0A0-00935056D4B4";
name = "Light Extended";
paths = (
{
closed = 1;
nodes = (
"25 490 LINE",
"25 467 LINE",
"362 467 LINE",
"362 490 LINE SMOOTH"
);
},
{
closed = 1;
nodes = (
"885 0 LINE",
"885 23 LINE",
"549 23 LINE",
"549 0 LINE"
);
},
{
closed = 1;
nodes = (
"739 12 LINE",
"466 246 LINE",
"463 246 LINE",
"194 477 LINE",
"157 477 LINE",
"444 231 LINE",
"447 231 LINE",
"702 12 LINE"
);
},
{
closed = 1;
nodes = (
"548 467 LINE",
"885 467 LINE",
"885 490 LINE",
"548 490 LINE SMOOTH"
);
},
{
closed = 1;
nodes = (
"361 23 LINE",
"25 23 LINE",
"25 0 LINE",
"361 0 LINE"
);
},
{
closed = 1;
nodes = (
"463 231 LINE",
"466 231 LINE",
"753 477 LINE",
"718 477 LINE",
"449 246 LINE",
"446 246 LINE",
"173 12 LINE",
"208 12 LINE"
);
}
);
width = 910;
},
{
layerId = "FA480B27-EBBD-4830-9868-98507D39050C";
name = Bold;
width = 420;
},
{
layerId = "543F9737-16F7-428D-9F96-2EBD9FC8D3B6";
name = Light;
width = 420;
}
);
unicode = 0058;
},
{
glyphname = Y;
lastChange = "2015-08-01 12:21:47 +0000";
layers = (
{
background = {
paths = (
{
closed = 1;
nodes = (
"320 18 LINE",
"115 18 LINE",
"115 0 LINE",
"338 0 LINE",
"338 106 LINE",
"320 106 LINE"
);
},
{
closed = 1;
nodes = (
"546 0 LINE",
"546 18 LINE",
"328 18 LINE",
"328 0 LINE"
);
},
{
closed = 1;
nodes = (
"515 350 LINE",
"322 112 LINE",
"336 100 LINE",
"523 332 LINE",
"694 332 LINE",
"694 350 LINE"
);
},
{
closed = 1;
nodes = (
"144 350 LINE",
"-36 350 LINE",
"-36 332 LINE",
"135 332 LINE",
"323 100 LINE",
"337 112 LINE"
);
}
);
};
layerId = "B29C398E-974A-40D0-A0A0-00935056D4B4";
name = "Light Extended";
paths = (
{
closed = 1;
nodes = (
"739 488 LINE",
"451 165 LINE",
"468 148 LINE",
"751 465 LINE"
);
},
{
closed = 1;
nodes = (
"178 490 LINE",
"166 465 LINE",
"450 148 LINE",
"470 165 LINE"
);
},
{
closed = 1;
nodes = (
"472 174 LINE",
"447 174 LINE",
"447 0 LINE",
"472 0 LINE"
);
},
{
closed = 1;
nodes = (
"654 0 LINE",
"654 23 LINE",
"265 23 LINE",
"265 0 LINE"
);
},
{
closed = 1;
nodes = (
"578 490 LINE",
"578 467 LINE",
"914 467 LINE",
"914 490 LINE"
);
},
{
closed = 1;
nodes = (
"4 490 LINE",
"4 467 LINE",
"341 467 LINE",
"341 490 LINE"
);
}
);
width = 918;
},
{
layerId = "FA480B27-EBBD-4830-9868-98507D39050C";
name = Bold;
width = 420;
},
{
layerId = "543F9737-16F7-428D-9F96-2EBD9FC8D3B6";
name = Light;
width = 420;
}
);
unicode = 0059;
},
{
glyphname = Z;
lastChange = "2015-08-01 12:21:47 +0000";
layers = (
{
layerId = "B29C398E-974A-40D0-A0A0-00935056D4B4";
name = "Light Extended";
paths = (
{
closed = 1;
nodes = (
"686 183 LINE",
"711 183 LINE",
"711 0 LINE",
"56 0 LINE",
"56 13 LINE",
"638 458 LINE",
"668 469 LINE",
"668 470 LINE",
"638 467 LINE",
"78 467 LINE",
"78 307 LINE",
"53 307 LINE",
"53 490 LINE",
"707 490 LINE",
"707 477 LINE",
"125 32 LINE",
"95 21 LINE",
"95 20 LINE",
"125 23 LINE",
"686 23 LINE"
);
}
);
width = 763;
},
{
layerId = "FA480B27-EBBD-4830-9868-98507D39050C";
name = Bold;
width = 420;
},
{
layerId = "543F9737-16F7-428D-9F96-2EBD9FC8D3B6";
name = Light;
width = 420;
}
);
unicode = 005A;
},
{
color = 6;
glyphname = a;
lastChange = "2015-08-15 16:26:23 +0000";
layers = (
{
background = {
paths = (
{
closed = 1;
nodes = (
"627 98 LINE",
"627 32 OFFCURVE",
"674 -16 OFFCURVE",
"737 -16 CURVE SMOOTH",
"827 -16 OFFCURVE",
"855 63 OFFCURVE",
"855 116 CURVE",
"830 116 LINE",
"830 60 OFFCURVE",
"803 8 OFFCURVE",
"739 8 CURVE SMOOTH",
"693 8 OFFCURVE",
"651 43 OFFCURVE",
"651 98 CURVE",
"651 207 LINE",
"651 307 OFFCURVE",
"594 377 OFFCURVE",
"450 377 CURVE",
"337 377 OFFCURVE",
"224 364 OFFCURVE",
"99 336 CURVE",
"99 310 LINE",
"225 339 OFFCURVE",
"337 353 OFFCURVE",
"450 353 CURVE",
"581 353 OFFCURVE",
"627 291 OFFCURVE",
"627 207 CURVE"
);
},
{
closed = 1;
nodes = (
"70 15 OFFCURVE",
"144 -20 OFFCURVE",
"244 -20 CURVE",
"373 -20 OFFCURVE",
"515 22 OFFCURVE",
"637 77 CURVE",
"637 100 LINE",
"510 46 OFFCURVE",
"371 4 OFFCURVE",
"244 4 CURVE",
"159 4 OFFCURVE",
"95 32 OFFCURVE",
"95 99 CURVE",
"95 167 OFFCURVE",
"186 205 OFFCURVE",
"302 205 CURVE",
"407 205 OFFCURVE",
"528 185 OFFCURVE",
"637 157 CURVE",
"637 181 LINE",
"528 207 OFFCURVE",
"422 229 OFFCURVE",
"302 229 CURVE",
"172 229 OFFCURVE",
"70 185 OFFCURVE",
"70 99 CURVE"
);
}
);
};
layerId = "B29C398E-974A-40D0-A0A0-00935056D4B4";
name = "Light Extended";
paths = (
{
closed = 1;
nodes = (
"721 -20 OFFCURVE",
"748 -8 OFFCURVE",
"772 9 CURVE",
"762 29 LINE",
"739 12 OFFCURVE",
"718 3 OFFCURVE",
"691 3 CURVE SMOOTH",
"658 3 OFFCURVE",
"627 28 OFFCURVE",
"627 84 CURVE SMOOTH",
"627 207 LINE SMOOTH",
"627 307 OFFCURVE",
"552 377 OFFCURVE",
"394 377 CURVE SMOOTH",
"295 377 OFFCURVE",
"193 354 OFFCURVE",
"92 322 CURVE",
"92 297 LINE",
"194 329 OFFCURVE",
"291 354 OFFCURVE",
"394 354 CURVE SMOOTH",
"539 354 OFFCURVE",
"602 291 OFFCURVE",
"602 207 CURVE SMOOTH",
"602 84 LINE SMOOTH",
"602 18 OFFCURVE",
"639 -20 OFFCURVE",
"690 -20 CURVE SMOOTH"
);
},
{
closed = 1;
nodes = (
"377 -20 OFFCURVE",
"504 11 OFFCURVE",
"613 67 CURVE",
"613 89 LINE",
"499 35 OFFCURVE",
"375 3 OFFCURVE",
"267 3 CURVE",
"174 3 OFFCURVE",
"95 28 OFFCURVE",
"95 89 CURVE",
"95 158 OFFCURVE",
"187 183 OFFCURVE",
"311 183 CURVE SMOOTH",
"414 183 OFFCURVE",
"526 168 OFFCURVE",
"613 153 CURVE",
"613 176 LINE",
"526 191 OFFCURVE",
"416 206 OFFCURVE",
"295 206 CURVE SMOOTH",
"173 206 OFFCURVE",
"70 174 OFFCURVE",
"70 89 CURVE",
"70 11 OFFCURVE",
"146 -20 OFFCURVE",
"267 -20 CURVE"
);
}
);
width = 767;
},
{
guideLines = (
{
position = "{285, 377}";
}
);
layerId = "FA480B27-EBBD-4830-9868-98507D39050C";
name = Bold;
paths = (
{
closed = 1;
nodes = (
"456 -16 OFFCURVE",
"480 -4 OFFCURVE",
"496 7 CURVE",
"475 78 LINE",
"468 71 OFFCURVE",
"459 67 OFFCURVE",
"450 67 CURVE SMOOTH",
"440 67 OFFCURVE",
"435 76 OFFCURVE",
"435 89 CURVE SMOOTH",
"435 221 LINE SMOOTH",
"435 321 OFFCURVE",
"377 377 OFFCURVE",
"268 377 CURVE SMOOTH",
"194 377 OFFCURVE",
"124 363 OFFCURVE",
"54 341 CURVE",
"54 253 LINE",
"119 276 OFFCURVE",
"177 290 OFFCURVE",
"232 290 CURVE SMOOTH",
"279 290 OFFCURVE",
"327 273 OFFCURVE",
"327 221 CURVE SMOOTH",
"327 76 LINE SMOOTH",
"327 21 OFFCURVE",
"370 -16 OFFCURVE",
"423 -16 CURVE SMOOTH"
);
},
{
closed = 1;
nodes = (
"235 -20 OFFCURVE",
"300 1 OFFCURVE",
"356 52 CURVE",
"358 118 LINE",
"308 79 OFFCURVE",
"248 62 OFFCURVE",
"216 62 CURVE",
"178 62 OFFCURVE",
"144 67 OFFCURVE",
"144 105 CURVE",
"144 138 OFFCURVE",
"190 148 OFFCURVE",
"237 148 CURVE",
"278 148 OFFCURVE",
"311 144 OFFCURVE",
"358 132 CURVE",
"358 193 LINE",
"302 210 OFFCURVE",
"256 218 OFFCURVE",
"195 218 CURVE",
"99 218 OFFCURVE",
"32 171 OFFCURVE",
"31 96 CURVE",
"32 19 OFFCURVE",
"93 -20 OFFCURVE",
"176 -20 CURVE"
);
}
);
width = 520;
},
{
layerId = "543F9737-16F7-428D-9F96-2EBD9FC8D3B6";
name = Light;
paths = (
{
closed = 1;
nodes = (
"442 -20 OFFCURVE",
"456 -15 OFFCURVE",
"465 -8 CURVE",
"459 14 LINE",
"452 8 OFFCURVE",
"440 4 OFFCURVE",
"426 4 CURVE SMOOTH",
"407 4 OFFCURVE",
"393 19 OFFCURVE",
"393 58 CURVE SMOOTH",
"393 256 LINE",
"393 321 OFFCURVE",
"349 377 OFFCURVE",
"254 377 CURVE",
"211 377 OFFCURVE",
"157 369 OFFCURVE",
"88 350 CURVE",
"88 326 LINE",
"157 346 OFFCURVE",
"211 353 OFFCURVE",
"254 353 CURVE",
"336 353 OFFCURVE",
"369 305 OFFCURVE",
"369 256 CURVE",
"369 58 LINE SMOOTH",
"369 8 OFFCURVE",
"388 -20 OFFCURVE",
"425 -20 CURVE SMOOTH"
);
},
{
closed = 1;
nodes = (
"251 -20 OFFCURVE",
"312 -1 OFFCURVE",
"379 67 CURVE",
"379 86 LINE",
"312 25 OFFCURVE",
"249 4 OFFCURVE",
"200 4 CURVE SMOOTH",
"160 4 OFFCURVE",
"98 29 OFFCURVE",
"98 97 CURVE SMOOTH",
"98 158 OFFCURVE",
"158 191 OFFCURVE",
"216 191 CURVE SMOOTH",
"258 191 OFFCURVE",
"312 187 OFFCURVE",
"379 165 CURVE",
"379 184 LINE",
"316 204 OFFCURVE",
"273 215 OFFCURVE",
"216 215 CURVE SMOOTH",
"151 215 OFFCURVE",
"74 175 OFFCURVE",
"74 97 CURVE SMOOTH",
"74 12 OFFCURVE",
"145 -20 OFFCURVE",
"200 -20 CURVE SMOOTH"
);
}
);
width = 520;
}
);
rightMetricsKey = "=n";
unicode = 0061;
},
{
glyphname = a.alt;
lastChange = "2015-08-01 12:21:47 +0000";
layers = (
{
background = {
paths = (
{
closed = 1;
nodes = (
"627 98 LINE",
"627 32 OFFCURVE",
"674 -16 OFFCURVE",
"737 -16 CURVE SMOOTH",
"827 -16 OFFCURVE",
"855 63 OFFCURVE",
"855 116 CURVE",
"830 116 LINE",
"830 60 OFFCURVE",
"803 8 OFFCURVE",
"739 8 CURVE SMOOTH",
"693 8 OFFCURVE",
"651 43 OFFCURVE",
"651 98 CURVE",
"651 207 LINE",
"651 307 OFFCURVE",
"594 377 OFFCURVE",
"450 377 CURVE",
"337 377 OFFCURVE",
"224 364 OFFCURVE",
"99 336 CURVE",
"99 310 LINE",
"225 339 OFFCURVE",
"337 353 OFFCURVE",
"450 353 CURVE",
"581 353 OFFCURVE",
"627 291 OFFCURVE",
"627 207 CURVE"
);
},
{
closed = 1;
nodes = (
"70 15 OFFCURVE",
"144 -20 OFFCURVE",
"244 -20 CURVE",
"373 -20 OFFCURVE",
"515 22 OFFCURVE",
"637 77 CURVE",
"637 100 LINE",
"510 46 OFFCURVE",
"371 4 OFFCURVE",
"244 4 CURVE",
"159 4 OFFCURVE",
"95 32 OFFCURVE",
"95 99 CURVE",
"95 167 OFFCURVE",
"186 205 OFFCURVE",
"302 205 CURVE",
"407 205 OFFCURVE",
"528 185 OFFCURVE",
"637 157 CURVE",
"637 181 LINE",
"528 207 OFFCURVE",
"422 229 OFFCURVE",
"302 229 CURVE",
"172 229 OFFCURVE",
"70 185 OFFCURVE",
"70 99 CURVE"
);
}
);
};
layerId = "B29C398E-974A-40D0-A0A0-00935056D4B4";
name = "Light Extended";
paths = (
{
closed = 1;
nodes = (
"783 -20 OFFCURVE",
"806 39 OFFCURVE",
"806 88 CURVE SMOOTH",
"806 102 LINE",
"781 102 LINE",
"781 88 LINE SMOOTH",
"781 39 OFFCURVE",
"760 3 OFFCURVE",
"718 3 CURVE SMOOTH",
"672 3 OFFCURVE",
"651 39 OFFCURVE",
"651 98 CURVE SMOOTH",
"651 207 LINE SMOOTH",
"651 307 OFFCURVE",
"594 377 OFFCURVE",
"450 377 CURVE SMOOTH",
"337 377 OFFCURVE",
"224 364 OFFCURVE",
"99 336 CURVE",
"99 311 LINE",
"225 340 OFFCURVE",
"337 354 OFFCURVE",
"450 354 CURVE SMOOTH",
"581 354 OFFCURVE",
"627 291 OFFCURVE",
"627 207 CURVE SMOOTH",
"627 98 LINE SMOOTH",
"627 29 OFFCURVE",
"653 -20 OFFCURVE",
"716 -20 CURVE SMOOTH"
);
},
{
closed = 1;
nodes = (
"373 -20 OFFCURVE",
"515 22 OFFCURVE",
"637 77 CURVE",
"637 99 LINE",
"510 46 OFFCURVE",
"371 3 OFFCURVE",
"244 3 CURVE SMOOTH",
"159 3 OFFCURVE",
"95 31 OFFCURVE",
"95 99 CURVE SMOOTH",
"95 168 OFFCURVE",
"186 206 OFFCURVE",
"302 206 CURVE SMOOTH",
"407 206 OFFCURVE",
"528 186 OFFCURVE",
"637 158 CURVE",
"637 181 LINE",
"528 207 OFFCURVE",
"422 229 OFFCURVE",
"302 229 CURVE SMOOTH",
"172 229 OFFCURVE",
"70 185 OFFCURVE",
"70 99 CURVE SMOOTH",
"70 15 OFFCURVE",
"144 -20 OFFCURVE",
"244 -20 CURVE SMOOTH"
);
}
);
width = 858;
},
{
guideLines = (
{
position = "{285, 377}";
}
);
layerId = "FA480B27-EBBD-4830-9868-98507D39050C";
name = Bold;
paths = (
{
closed = 1;
nodes = (
"489 -20 OFFCURVE",
"524 13 OFFCURVE",
"524 72 CURVE SMOOTH",
"524 119 LINE",
"473 119 LINE",
"473 71 LINE SMOOTH",
"473 57 OFFCURVE",
"468 45 OFFCURVE",
"454 45 CURVE SMOOTH",
"440 45 OFFCURVE",
"435 57 OFFCURVE",
"435 71 CURVE SMOOTH",
"435 221 LINE",
"435 321 OFFCURVE",
"377 377 OFFCURVE",
"268 377 CURVE SMOOTH",
"194 377 OFFCURVE",
"124 363 OFFCURVE",
"54 341 CURVE",
"54 253 LINE",
"119 276 OFFCURVE",
"177 290 OFFCURVE",
"232 290 CURVE SMOOTH",
"279 290 OFFCURVE",
"327 273 OFFCURVE",
"327 221 CURVE",
"327 72 LINE SMOOTH",
"327 17 OFFCURVE",
"367 -20 OFFCURVE",
"429 -20 CURVE SMOOTH"
);
},
{
closed = 1;
nodes = (
"241 -20 OFFCURVE",
"314 6 OFFCURVE",
"375 70 CURVE",
"375 134 LINE",
"323 83 OFFCURVE",
"252 62 OFFCURVE",
"216 62 CURVE",
"178 62 OFFCURVE",
"144 67 OFFCURVE",
"144 105 CURVE",
"144 138 OFFCURVE",
"190 148 OFFCURVE",
"237 148 CURVE",
"283 148 OFFCURVE",
"319 143 OFFCURVE",
"375 128 CURVE",
"375 188 LINE",
"312 208 OFFCURVE",
"263 218 OFFCURVE",
"195 218 CURVE",
"99 218 OFFCURVE",
"32 171 OFFCURVE",
"31 96 CURVE",
"32 19 OFFCURVE",
"93 -20 OFFCURVE",
"176 -20 CURVE"
);
}
);
width = 534;
},
{
layerId = "543F9737-16F7-428D-9F96-2EBD9FC8D3B6";
name = Light;
paths = (
{
closed = 1;
nodes = (
"481 -20 OFFCURVE",
"510 13 OFFCURVE",
"510 55 CURVE SMOOTH",
"510 74 LINE",
"487 74 LINE",
"487 55 LINE SMOOTH",
"487 24 OFFCURVE",
"473 4 OFFCURVE",
"441 4 CURVE SMOOTH",
"412 4 OFFCURVE",
"393 22 OFFCURVE",
"393 55 CURVE SMOOTH",
"393 256 LINE",
"393 321 OFFCURVE",
"349 377 OFFCURVE",
"254 377 CURVE",
"211 377 OFFCURVE",
"157 369 OFFCURVE",
"88 350 CURVE",
"88 326 LINE",
"157 346 OFFCURVE",
"211 353 OFFCURVE",
"254 353 CURVE",
"336 353 OFFCURVE",
"369 305 OFFCURVE",
"369 256 CURVE",
"369 55 LINE SMOOTH",
"369 11 OFFCURVE",
"396 -20 OFFCURVE",
"440 -20 CURVE SMOOTH"
);
},
{
closed = 1;
nodes = (
"251 -20 OFFCURVE",
"312 -1 OFFCURVE",
"379 67 CURVE",
"379 86 LINE",
"312 25 OFFCURVE",
"249 4 OFFCURVE",
"200 4 CURVE SMOOTH",
"160 4 OFFCURVE",
"98 29 OFFCURVE",
"98 97 CURVE SMOOTH",
"98 158 OFFCURVE",
"158 191 OFFCURVE",
"216 191 CURVE SMOOTH",
"258 191 OFFCURVE",
"312 187 OFFCURVE",
"379 165 CURVE",
"379 184 LINE",
"316 204 OFFCURVE",
"273 215 OFFCURVE",
"216 215 CURVE SMOOTH",
"151 215 OFFCURVE",
"74 175 OFFCURVE",
"74 97 CURVE SMOOTH",
"74 12 OFFCURVE",
"145 -20 OFFCURVE",
"200 -20 CURVE SMOOTH"
);
}
);
width = 534;
}
);
},
{
color = 6;
glyphname = a.alt2;
lastChange = "2015-08-01 22:35:08 +0000";
layers = (
{
background = {
paths = (
{
closed = 1;
nodes = (
"785 -20 OFFCURVE",
"808 -8 OFFCURVE",
"832 9 CURVE",
"823 29 LINE",
"799 12 OFFCURVE",
"781 3 OFFCURVE",
"755 3 CURVE SMOOTH",
"722 3 OFFCURVE",
"687 28 OFFCURVE",
"687 84 CURVE",
"687 207 LINE",
"662 207 LINE",
"662 84 LINE",
"662 18 OFFCURVE",
"703 -20 OFFCURVE",
"753 -20 CURVE SMOOTH"
);
},
{
closed = 1;
nodes = (
"687 181 LINE",
"687 357 LINE",
"662 357 LINE",
"662 181 LINE"
);
},
{
closed = 1;
nodes = (
"606 334 OFFCURVE",
"502 376 OFFCURVE",
"372 375 CURVE",
"220 376 OFFCURVE",
"70 300 OFFCURVE",
"70 164 CURVE",
"70 48 OFFCURVE",
"165 -20 OFFCURVE",
"308 -20 CURVE",
"438 -20 OFFCURVE",
"560 44 OFFCURVE",
"676 127 CURVE",
"676 151 LINE",
"551 62 OFFCURVE",
"422 3 OFFCURVE",
"308 3 CURVE",
"175 3 OFFCURVE",
"95 69 OFFCURVE",
"95 164 CURVE",
"95 283 OFFCURVE",
"230 353 OFFCURVE",
"372 352 CURVE",
"491 353 OFFCURVE",
"605 310 OFFCURVE",
"678 270 CURVE",
"678 293 LINE"
);
}
);
};
layerId = "B29C398E-974A-40D0-A0A0-00935056D4B4";
name = "Light Extended";
paths = (
{
closed = 1;
nodes = (
"606 334 OFFCURVE",
"502 376 OFFCURVE",
"372 375 CURVE",
"220 376 OFFCURVE",
"70 300 OFFCURVE",
"70 164 CURVE",
"70 48 OFFCURVE",
"165 -20 OFFCURVE",
"308 -20 CURVE",
"438 -20 OFFCURVE",
"560 44 OFFCURVE",
"676 127 CURVE",
"676 151 LINE",
"551 62 OFFCURVE",
"422 3 OFFCURVE",
"308 3 CURVE",
"175 3 OFFCURVE",
"95 69 OFFCURVE",
"95 164 CURVE",
"95 283 OFFCURVE",
"230 353 OFFCURVE",
"372 352 CURVE",
"491 353 OFFCURVE",
"605 310 OFFCURVE",
"678 270 CURVE",
"678 293 LINE"
);
},
{
closed = 1;
nodes = (
"662 84 LINE SMOOTH",
"662 18 OFFCURVE",
"699 -20 OFFCURVE",
"750 -20 CURVE SMOOTH",
"781 -20 OFFCURVE",
"808 -8 OFFCURVE",
"832 9 CURVE",
"822 29 LINE",
"799 12 OFFCURVE",
"778 3 OFFCURVE",
"751 3 CURVE SMOOTH",
"718 3 OFFCURVE",
"687 28 OFFCURVE",
"687 84 CURVE SMOOTH",
"687 357 LINE SMOOTH",
"662 357 LINE"
);
}
);
width = 827;
},
{
layerId = "FA480B27-EBBD-4830-9868-98507D39050C";
name = Bold;
paths = (
{
closed = 1;
nodes = (
"293 -20 OFFCURVE",
"354 26 OFFCURVE",
"403 85 CURVE",
"403 157 LINE",
"349 105 OFFCURVE",
"296 67 OFFCURVE",
"237 67 CURVE SMOOTH",
"181 67 OFFCURVE",
"144 109 OFFCURVE",
"144 169 CURVE",
"144 241 OFFCURVE",
"187 288 OFFCURVE",
"243 288 CURVE SMOOTH",
"294 288 OFFCURVE",
"354 249 OFFCURVE",
"405 214 CURVE",
"405 279 LINE",
"355 324 OFFCURVE",
"295 376 OFFCURVE",
"221 376 CURVE SMOOTH",
"115 376 OFFCURVE",
"28 289 OFFCURVE",
"28 165 CURVE",
"28 41 OFFCURVE",
"122 -20 OFFCURVE",
"216 -20 CURVE SMOOTH"
);
},
{
closed = 1;
nodes = (
"477 -16 OFFCURVE",
"500 -4 OFFCURVE",
"516 7 CURVE",
"495 78 LINE",
"488 71 OFFCURVE",
"479 67 OFFCURVE",
"470 67 CURVE SMOOTH",
"460 67 OFFCURVE",
"456 76 OFFCURVE",
"456 89 CURVE SMOOTH",
"456 221 LINE",
"347 221 LINE",
"347 76 LINE",
"347 21 OFFCURVE",
"391 -16 OFFCURVE",
"443 -16 CURVE SMOOTH"
);
},
{
closed = 1;
nodes = (
"456 203 LINE",
"456 357 LINE",
"347 357 LINE",
"347 203 LINE"
);
}
);
width = 537;
},
{
background = {
paths = (
{
closed = 1;
nodes = (
"414 83 LINE SMOOTH",
"414 39 OFFCURVE",
"444 8 OFFCURVE",
"488 8 CURVE SMOOTH",
"529 8 OFFCURVE",
"555 45 OFFCURVE",
"555 83 CURVE SMOOTH",
"555 102 LINE",
"533 102 LINE",
"533 83 LINE SMOOTH",
"533 55 OFFCURVE",
"522 32 OFFCURVE",
"489 32 CURVE SMOOTH",
"460 32 OFFCURVE",
"439 50 OFFCURVE",
"439 83 CURVE SMOOTH",
"439 221 LINE",
"414 221 LINE"
);
}
);
};
layerId = "543F9737-16F7-428D-9F96-2EBD9FC8D3B6";
name = Light;
paths = (
{
closed = 1;
nodes = (
"304 -20 OFFCURVE",
"358 12 OFFCURVE",
"404 71 CURVE",
"404 94 LINE",
"354 35 OFFCURVE",
"293 4 OFFCURVE",
"235 4 CURVE SMOOTH",
"161 4 OFFCURVE",
"98 69 OFFCURVE",
"98 174 CURVE",
"98 285 OFFCURVE",
"178 342 OFFCURVE",
"243 342 CURVE",
"306 342 OFFCURVE",
"358 307 OFFCURVE",
"407 267 CURVE",
"407 290 LINE",
"360 333 OFFCURVE",
"316 365 OFFCURVE",
"243 365 CURVE",
"167 365 OFFCURVE",
"74 305 OFFCURVE",
"74 174 CURVE",
"74 46 OFFCURVE",
"147 -20 OFFCURVE",
"235 -20 CURVE SMOOTH"
);
},
{
closed = 1;
nodes = (
"463 -20 OFFCURVE",
"477 -15 OFFCURVE",
"487 -8 CURVE",
"481 14 LINE",
"474 8 OFFCURVE",
"461 4 OFFCURVE",
"448 4 CURVE SMOOTH",
"428 4 OFFCURVE",
"415 19 OFFCURVE",
"415 58 CURVE",
"415 232 LINE",
"391 232 LINE",
"391 58 LINE",
"391 8 OFFCURVE",
"410 -20 OFFCURVE",
"447 -20 CURVE SMOOTH"
);
},
{
closed = 1;
nodes = (
"415 227 LINE",
"415 357 LINE",
"391 357 LINE",
"391 227 LINE"
);
}
);
width = 537;
}
);
rightMetricsKey = "=n";
},
{
glyphname = b;
lastChange = "2015-08-01 12:21:47 +0000";
layers = (
{
layerId = "B29C398E-974A-40D0-A0A0-00935056D4B4";
name = "Light Extended";
paths = (
{
closed = 1;
nodes = (
"147 -20 LINE",
"172 -20 LINE",
"172 357 LINE",
"147 357 LINE"
);
},
{
closed = 1;
nodes = (
"172 560 LINE",
"147 560 LINE",
"147 181 LINE",
"172 181 LINE"
);
},
{
closed = 1;
nodes = (
"163 560 LINE",
"-35 560 LINE",
"-35 537 LINE",
"163 537 LINE"
);
},
{
closed = 1;
nodes = (
"227 22 OFFCURVE",
"332 -20 OFFCURVE",
"461 -20 CURVE",
"614 -20 OFFCURVE",
"764 62 OFFCURVE",
"764 199 CURVE",
"764 307 OFFCURVE",
"669 376 OFFCURVE",
"526 376 CURVE",
"396 376 OFFCURVE",
"274 312 OFFCURVE",
"158 228 CURVE",
"158 205 LINE",
"283 293 OFFCURVE",
"412 353 OFFCURVE",
"526 353 CURVE",
"659 353 OFFCURVE",
"739 287 OFFCURVE",
"739 199 CURVE",
"739 80 OFFCURVE",
"603 2 OFFCURVE",
"461 3 CURVE",
"342 2 OFFCURVE",
"229 45 OFFCURVE",
"155 85 CURVE",
"155 63 LINE"
);
}
);
width = 834;
},
{
layerId = "FA480B27-EBBD-4830-9868-98507D39050C";
name = Bold;
width = 420;
},
{
layerId = "543F9737-16F7-428D-9F96-2EBD9FC8D3B6";
name = Light;
width = 420;
}
);
unicode = 0062;
},
{
color = 6;
glyphname = c;
lastChange = "2015-08-01 21:58:02 +0000";
layers = (
{
background = {
paths = (
{
closed = 1;
nodes = (
"232 353 OFFCURVE",
"95 290 OFFCURVE",
"95 171 CURVE",
"95 72 OFFCURVE",
"198 2 OFFCURVE",
"345 3 CURVE",
"474 2 OFFCURVE",
"578 38 OFFCURVE",
"657 89 CURVE",
"669 67 LINE",
"586 18 OFFCURVE",
"475 -20 OFFCURVE",
"345 -20 CURVE",
"188 -20 OFFCURVE",
"70 52 OFFCURVE",
"70 171 CURVE",
"70 307 OFFCURVE",
"222 376 OFFCURVE",
"377 375 CURVE",
"496 375 OFFCURVE",
"609 332 OFFCURVE",
"658 269 CURVE",
"637 276 LINE",
"637 375 LINE",
"662 375 LINE",
"662 239 LINE",
"589 325 OFFCURVE",
"474 352 OFFCURVE",
"375 352 CURVE"
);
}
);
};
layerId = "B29C398E-974A-40D0-A0A0-00935056D4B4";
name = "Light Extended";
paths = (
{
closed = 1;
nodes = (
"232 353 OFFCURVE",
"95 290 OFFCURVE",
"95 171 CURVE SMOOTH",
"95 72 OFFCURVE",
"198 2 OFFCURVE",
"345 3 CURVE SMOOTH",
"484 2 OFFCURVE",
"590 45 OFFCURVE",
"653 103 CURVE",
"668 85 LINE",
"600 22 OFFCURVE",
"495 -20 OFFCURVE",
"345 -20 CURVE SMOOTH",
"188 -20 OFFCURVE",
"70 52 OFFCURVE",
"70 171 CURVE SMOOTH",
"70 307 OFFCURVE",
"222 376 OFFCURVE",
"367 375 CURVE SMOOTH",
"491 375 OFFCURVE",
"603 324 OFFCURVE",
"654 261 CURVE",
"639 266 LINE",
"639 375 LINE",
"662 375 LINE",
"662 229 LINE",
"589 315 OFFCURVE",
"474 352 OFFCURVE",
"365 352 CURVE SMOOTH"
);
}
);
width = 741;
},
{
layerId = "FA480B27-EBBD-4830-9868-98507D39050C";
name = Bold;
width = 420;
},
{
layerId = "543F9737-16F7-428D-9F96-2EBD9FC8D3B6";
name = Light;
width = 420;
}
);
unicode = 0063;
},
{
glyphname = c.alt;
lastChange = "2015-08-01 12:21:47 +0000";
layers = (
{
layerId = "B29C398E-974A-40D0-A0A0-00935056D4B4";
name = "Light Extended";
paths = (
{
closed = 1;
nodes = (
"578 362 OFFCURVE",
"495 379 OFFCURVE",
"384 379 CURVE",
"229 379 OFFCURVE",
"70 311 OFFCURVE",
"70 171 CURVE",
"70 48 OFFCURVE",
"188 -20 OFFCURVE",
"335 -20 CURVE",
"461 -20 OFFCURVE",
"575 14 OFFCURVE",
"662 60 CURVE",
"662 87 LINE",
"573 36 OFFCURVE",
"460 2 OFFCURVE",
"335 3 CURVE",
"198 2 OFFCURVE",
"95 69 OFFCURVE",
"95 171 CURVE",
"95 293 OFFCURVE",
"239 356 OFFCURVE",
"384 356 CURVE",
"495 356 OFFCURVE",
"577 336 OFFCURVE",
"639 316 CURVE",
"639 227 LINE",
"664 227 LINE",
"664 333 LINE"
);
}
);
width = 741;
},
{
layerId = "FA480B27-EBBD-4830-9868-98507D39050C";
name = Bold;
width = 420;
},
{
layerId = "543F9737-16F7-428D-9F96-2EBD9FC8D3B6";
name = Light;
width = 420;
}
);
},
{
color = 6;
glyphname = d;
lastChange = "2015-08-01 22:35:21 +0000";
layers = (
{
background = {
paths = (
{
closed = 1;
nodes = (
"781 -20 OFFCURVE",
"808 -8 OFFCURVE",
"832 9 CURVE",
"823 29 LINE",
"799 12 OFFCURVE",
"778 3 OFFCURVE",
"751 3 CURVE SMOOTH",
"718 3 OFFCURVE",
"687 28 OFFCURVE",
"687 84 CURVE SMOOTH",
"687 560 LINE",
"662 560 LINE",
"662 84 LINE SMOOTH",
"662 18 OFFCURVE",
"699 -20 OFFCURVE",
"750 -20 CURVE SMOOTH"
);
},
{
closed = 1;
nodes = (
"606 334 OFFCURVE",
"502 376 OFFCURVE",
"372 375 CURVE",
"220 376 OFFCURVE",
"70 300 OFFCURVE",
"70 164 CURVE",
"70 48 OFFCURVE",
"165 -20 OFFCURVE",
"308 -20 CURVE",
"438 -20 OFFCURVE",
"560 44 OFFCURVE",
"676 127 CURVE",
"676 151 LINE",
"551 62 OFFCURVE",
"422 3 OFFCURVE",
"308 3 CURVE",
"175 3 OFFCURVE",
"95 69 OFFCURVE",
"95 164 CURVE",
"95 283 OFFCURVE",
"230 353 OFFCURVE",
"372 352 CURVE",
"491 353 OFFCURVE",
"605 310 OFFCURVE",
"678 270 CURVE",
"678 293 LINE"
);
}
);
};
layerId = "B29C398E-974A-40D0-A0A0-00935056D4B4";
name = "Light Extended";
paths = (
{
closed = 1;
nodes = (
"678 537 LINE",
"678 560 LINE",
"479 560 LINE",
"479 537 LINE"
);
},
{
closed = 1;
nodes = (
"606 334 OFFCURVE",
"502 376 OFFCURVE",
"372 375 CURVE",
"220 376 OFFCURVE",
"70 300 OFFCURVE",
"70 164 CURVE",
"70 48 OFFCURVE",
"165 -20 OFFCURVE",
"308 -20 CURVE",
"438 -20 OFFCURVE",
"560 44 OFFCURVE",
"676 127 CURVE",
"676 151 LINE",
"551 62 OFFCURVE",
"422 3 OFFCURVE",
"308 3 CURVE",
"175 3 OFFCURVE",
"95 69 OFFCURVE",
"95 164 CURVE",
"95 283 OFFCURVE",
"230 353 OFFCURVE",
"372 352 CURVE",
"491 353 OFFCURVE",
"605 310 OFFCURVE",
"678 270 CURVE",
"678 293 LINE"
);
},
{
closed = 1;
nodes = (
"662 18 OFFCURVE",
"699 -20 OFFCURVE",
"750 -20 CURVE SMOOTH",
"781 -20 OFFCURVE",
"808 -8 OFFCURVE",
"832 9 CURVE",
"822 29 LINE",
"799 12 OFFCURVE",
"778 3 OFFCURVE",
"751 3 CURVE SMOOTH",
"718 3 OFFCURVE",
"687 28 OFFCURVE",
"687 84 CURVE SMOOTH",
"687 560 LINE",
"662 560 LINE",
"662 84 LINE SMOOTH"
);
}
);
width = 827;
},
{
layerId = "FA480B27-EBBD-4830-9868-98507D39050C";
name = Bold;
paths = (
{
closed = 1;
nodes = (
"293 -20 OFFCURVE",
"354 26 OFFCURVE",
"403 85 CURVE",
"403 157 LINE",
"349 105 OFFCURVE",
"296 67 OFFCURVE",
"237 67 CURVE SMOOTH",
"181 67 OFFCURVE",
"144 109 OFFCURVE",
"144 169 CURVE",
"144 241 OFFCURVE",
"187 288 OFFCURVE",
"243 288 CURVE SMOOTH",
"294 288 OFFCURVE",
"354 249 OFFCURVE",
"405 214 CURVE",
"405 279 LINE",
"355 324 OFFCURVE",
"295 376 OFFCURVE",
"221 376 CURVE SMOOTH",
"115 376 OFFCURVE",
"28 289 OFFCURVE",
"28 165 CURVE",
"28 41 OFFCURVE",
"122 -20 OFFCURVE",
"216 -20 CURVE SMOOTH"
);
},
{
closed = 1;
nodes = (
"477 -16 OFFCURVE",
"500 -4 OFFCURVE",
"516 7 CURVE",
"495 78 LINE",
"488 71 OFFCURVE",
"479 67 OFFCURVE",
"470 67 CURVE SMOOTH",
"460 67 OFFCURVE",
"456 76 OFFCURVE",
"456 89 CURVE SMOOTH",
"456 518 LINE",
"347 518 LINE",
"347 76 LINE SMOOTH",
"347 21 OFFCURVE",
"391 -16 OFFCURVE",
"443 -16 CURVE SMOOTH"
);
},
{
closed = 1;
nodes = (
"456 445 LINE",
"456 518 LINE",
"252 518 LINE",
"252 445 LINE"
);
}
);
width = 537;
},
{
background = {
paths = (
{
closed = 1;
nodes = (
"414 83 LINE SMOOTH",
"414 39 OFFCURVE",
"444 8 OFFCURVE",
"488 8 CURVE SMOOTH",
"529 8 OFFCURVE",
"555 45 OFFCURVE",
"555 83 CURVE SMOOTH",
"555 102 LINE",
"533 102 LINE",
"533 83 LINE SMOOTH",
"533 55 OFFCURVE",
"522 32 OFFCURVE",
"489 32 CURVE SMOOTH",
"460 32 OFFCURVE",
"439 50 OFFCURVE",
"439 83 CURVE SMOOTH",
"439 221 LINE",
"414 221 LINE"
);
}
);
};
layerId = "543F9737-16F7-428D-9F96-2EBD9FC8D3B6";
name = Light;
paths = (
{
closed = 1;
nodes = (
"304 -20 OFFCURVE",
"358 22 OFFCURVE",
"404 74 CURVE",
"404 94 LINE",
"354 42 OFFCURVE",
"293 4 OFFCURVE",
"235 4 CURVE SMOOTH",
"161 4 OFFCURVE",
"102 69 OFFCURVE",
"102 174 CURVE",
"102 285 OFFCURVE",
"178 342 OFFCURVE",
"243 342 CURVE",
"306 342 OFFCURVE",
"358 307 OFFCURVE",
"407 270 CURVE",
"407 290 LINE",
"360 330 OFFCURVE",
"316 365 OFFCURVE",
"243 365 CURVE",
"167 365 OFFCURVE",
"77 305 OFFCURVE",
"77 174 CURVE",
"77 46 OFFCURVE",
"147 -20 OFFCURVE",
"235 -20 CURVE SMOOTH"
);
},
{
closed = 1;
nodes = (
"463 -20 OFFCURVE",
"477 -15 OFFCURVE",
"487 -8 CURVE",
"481 14 LINE",
"474 8 OFFCURVE",
"461 4 OFFCURVE",
"448 4 CURVE SMOOTH",
"428 4 OFFCURVE",
"415 19 OFFCURVE",
"415 58 CURVE SMOOTH",
"415 490 LINE",
"391 490 LINE",
"391 58 LINE SMOOTH",
"391 8 OFFCURVE",
"410 -20 OFFCURVE",
"447 -20 CURVE SMOOTH"
);
},
{
closed = 1;
nodes = (
"415 465 LINE",
"415 490 LINE",
"273 490 LINE",
"273 465 LINE"
);
}
);
width = 537;
}
);
rightMetricsKey = "=n";
unicode = 0064;
},
{
glyphname = d.alt;
lastChange = "2015-08-01 22:29:41 +0000";
layers = (
{
layerId = "B29C398E-974A-40D0-A0A0-00935056D4B4";
name = "Light Extended";
paths = (
{
closed = 1;
nodes = (
"678 537 LINE",
"678 560 LINE",
"479 560 LINE",
"479 537 LINE"
);
},
{
closed = 1;
nodes = (
"662 29 OFFCURVE",
"689 -20 OFFCURVE",
"752 -20 CURVE SMOOTH",
"819 -20 OFFCURVE",
"841 39 OFFCURVE",
"841 88 CURVE SMOOTH",
"841 102 LINE",
"817 102 LINE",
"817 88 LINE SMOOTH",
"817 38 OFFCURVE",
"795 3 OFFCURVE",
"753 3 CURVE SMOOTH",
"708 3 OFFCURVE",
"687 38 OFFCURVE",
"687 98 CURVE SMOOTH",
"687 560 LINE",
"662 560 LINE",
"662 98 LINE SMOOTH"
);
},
{
closed = 1;
nodes = (
"606 334 OFFCURVE",
"502 376 OFFCURVE",
"372 375 CURVE",
"220 376 OFFCURVE",
"70 300 OFFCURVE",
"70 164 CURVE",
"70 48 OFFCURVE",
"165 -20 OFFCURVE",
"308 -20 CURVE",
"438 -20 OFFCURVE",
"560 44 OFFCURVE",
"676 127 CURVE",
"676 151 LINE",
"551 62 OFFCURVE",
"422 3 OFFCURVE",
"308 3 CURVE",
"175 3 OFFCURVE",
"95 69 OFFCURVE",
"95 164 CURVE",
"95 283 OFFCURVE",
"230 353 OFFCURVE",
"372 352 CURVE",
"491 353 OFFCURVE",
"605 310 OFFCURVE",
"678 270 CURVE",
"678 293 LINE"
);
},
{
closed = 1;
nodes = (
"678 537 LINE",
"678 560 LINE",
"479 560 LINE",
"479 537 LINE"
);
},
{
closed = 1;
nodes = (
"662 29 OFFCURVE",
"689 -20 OFFCURVE",
"752 -20 CURVE SMOOTH",
"819 -20 OFFCURVE",
"841 39 OFFCURVE",
"841 88 CURVE SMOOTH",
"841 102 LINE",
"817 102 LINE",
"817 88 LINE SMOOTH",
"817 38 OFFCURVE",
"795 3 OFFCURVE",
"753 3 CURVE SMOOTH",
"708 3 OFFCURVE",
"687 38 OFFCURVE",
"687 98 CURVE SMOOTH",
"687 560 LINE",
"662 560 LINE",
"662 98 LINE SMOOTH"
);
},
{
closed = 1;
nodes = (
"606 334 OFFCURVE",
"502 376 OFFCURVE",
"372 375 CURVE",
"220 376 OFFCURVE",
"70 300 OFFCURVE",
"70 164 CURVE",
"70 48 OFFCURVE",
"165 -20 OFFCURVE",
"308 -20 CURVE",
"438 -20 OFFCURVE",
"560 44 OFFCURVE",
"676 127 CURVE",
"676 151 LINE",
"551 62 OFFCURVE",
"422 3 OFFCURVE",
"308 3 CURVE",
"175 3 OFFCURVE",
"95 69 OFFCURVE",
"95 164 CURVE",
"95 283 OFFCURVE",
"230 353 OFFCURVE",
"372 352 CURVE",
"491 353 OFFCURVE",
"605 310 OFFCURVE",
"678 270 CURVE",
"678 293 LINE"
);
}
);
width = 861;
},
{
layerId = "FA480B27-EBBD-4830-9868-98507D39050C";
name = Bold;
paths = (
{
closed = 1;
nodes = (
"293 -20 OFFCURVE",
"354 26 OFFCURVE",
"403 85 CURVE",
"403 157 LINE",
"349 105 OFFCURVE",
"296 67 OFFCURVE",
"237 67 CURVE SMOOTH",
"181 67 OFFCURVE",
"144 109 OFFCURVE",
"144 169 CURVE",
"144 241 OFFCURVE",
"194 288 OFFCURVE",
"250 288 CURVE SMOOTH",
"305 288 OFFCURVE",
"354 267 OFFCURVE",
"405 241 CURVE",
"405 307 LINE",
"355 342 OFFCURVE",
"306 376 OFFCURVE",
"227 376 CURVE SMOOTH",
"122 376 OFFCURVE",
"28 289 OFFCURVE",
"28 165 CURVE",
"28 41 OFFCURVE",
"122 -20 OFFCURVE",
"216 -20 CURVE SMOOTH"
);
},
{
closed = 1;
nodes = (
"510 -20 OFFCURVE",
"544 13 OFFCURVE",
"544 72 CURVE SMOOTH",
"544 119 LINE",
"493 119 LINE",
"493 71 LINE SMOOTH",
"493 57 OFFCURVE",
"488 45 OFFCURVE",
"474 45 CURVE SMOOTH",
"460 45 OFFCURVE",
"456 57 OFFCURVE",
"456 71 CURVE SMOOTH",
"456 515 LINE",
"347 515 LINE",
"347 72 LINE SMOOTH",
"347 17 OFFCURVE",
"387 -20 OFFCURVE",
"449 -20 CURVE SMOOTH"
);
},
{
closed = 1;
nodes = (
"456 441 LINE",
"456 515 LINE",
"252 515 LINE",
"252 441 LINE"
);
}
);
width = 554;
},
{
background = {
paths = (
{
closed = 1;
nodes = (
"414 83 LINE SMOOTH",
"414 39 OFFCURVE",
"444 8 OFFCURVE",
"488 8 CURVE SMOOTH",
"529 8 OFFCURVE",
"555 45 OFFCURVE",
"555 83 CURVE SMOOTH",
"555 102 LINE",
"533 102 LINE",
"533 83 LINE SMOOTH",
"533 55 OFFCURVE",
"522 32 OFFCURVE",
"489 32 CURVE SMOOTH",
"460 32 OFFCURVE",
"439 50 OFFCURVE",
"439 83 CURVE SMOOTH",
"439 221 LINE",
"414 221 LINE"
);
}
);
};
layerId = "543F9737-16F7-428D-9F96-2EBD9FC8D3B6";
name = Light;
paths = (
{
closed = 1;
nodes = (
"304 -20 OFFCURVE",
"358 22 OFFCURVE",
"404 74 CURVE",
"404 94 LINE",
"354 42 OFFCURVE",
"293 4 OFFCURVE",
"235 4 CURVE SMOOTH",
"161 4 OFFCURVE",
"102 69 OFFCURVE",
"102 174 CURVE",
"102 285 OFFCURVE",
"178 342 OFFCURVE",
"243 342 CURVE",
"306 342 OFFCURVE",
"358 307 OFFCURVE",
"407 270 CURVE",
"407 290 LINE",
"360 330 OFFCURVE",
"316 365 OFFCURVE",
"243 365 CURVE",
"167 365 OFFCURVE",
"77 305 OFFCURVE",
"77 174 CURVE",
"77 46 OFFCURVE",
"147 -20 OFFCURVE",
"235 -20 CURVE SMOOTH"
);
},
{
closed = 1;
nodes = (
"502 -20 OFFCURVE",
"531 13 OFFCURVE",
"531 55 CURVE SMOOTH",
"531 74 LINE",
"509 74 LINE",
"509 55 LINE SMOOTH",
"509 24 OFFCURVE",
"494 4 OFFCURVE",
"462 4 CURVE SMOOTH",
"433 4 OFFCURVE",
"415 21 OFFCURVE",
"415 55 CURVE SMOOTH",
"415 490 LINE",
"391 490 LINE",
"391 55 LINE SMOOTH",
"391 11 OFFCURVE",
"417 -20 OFFCURVE",
"461 -20 CURVE SMOOTH"
);
},
{
closed = 1;
nodes = (
"415 465 LINE",
"415 490 LINE",
"273 490 LINE",
"273 465 LINE"
);
}
);
width = 554;
}
);
},
{
glyphname = e;
lastChange = "2015-08-01 12:21:47 +0000";
layers = (
{
background = {
paths = (
{
closed = 1;
nodes = (
"636 185 OFFCURVE",
"533 151 OFFCURVE",
"424 145 CURVE",
"319 139 OFFCURVE",
"197 158 OFFCURVE",
"86 181 CURVE",
"88 157 LINE",
"198 137 OFFCURVE",
"305 115 OFFCURVE",
"425 121 CURVE",
"548 127 OFFCURVE",
"662 167 OFFCURVE",
"657 251 CURVE",
"653 337 OFFCURVE",
"529 384 OFFCURVE",
"377 376 CURVE",
"237 369 OFFCURVE",
"70 307 OFFCURVE",
"70 164 CURVE",
"70 34 OFFCURVE",
"209 -27 OFFCURVE",
"363 -27 CURVE",
"486 -27 OFFCURVE",
"584 3 OFFCURVE",
"662 50 CURVE",
"662 78 LINE",
"582 28 OFFCURVE",
"488 -4 OFFCURVE",
"363 -3 CURVE",
"219 -4 OFFCURVE",
"95 55 OFFCURVE",
"95 164 CURVE",
"95 289 OFFCURVE",
"248 346 OFFCURVE",
"379 352 CURVE",
"520 359 OFFCURVE",
"630 313 OFFCURVE",
"633 255 CURVE"
);
}
);
};
layerId = "B29C398E-974A-40D0-A0A0-00935056D4B4";
name = "Light Extended";
paths = (
{
closed = 1;
nodes = (
"647 74 LINE",
"571 30 OFFCURVE",
"480 2 OFFCURVE",
"363 3 CURVE",
"234 2 OFFCURVE",
"95 62 OFFCURVE",
"95 167 CURVE",
"95 290 OFFCURVE",
"255 353 OFFCURVE",
"400 353 CURVE SMOOTH",
"530 353 OFFCURVE",
"632 324 OFFCURVE",
"632 258 CURVE SMOOTH",
"632 192 OFFCURVE",
"523 165 OFFCURVE",
"408 165 CURVE SMOOTH",
"310 165 OFFCURVE",
"179 188 OFFCURVE",
"89 217 CURVE",
"90 194 LINE",
"179 165 OFFCURVE",
"310 142 OFFCURVE",
"408 142 CURVE SMOOTH",
"538 142 OFFCURVE",
"657 179 OFFCURVE",
"657 260 CURVE SMOOTH",
"657 340 OFFCURVE",
"543 376 OFFCURVE",
"404 376 CURVE SMOOTH",
"244 376 OFFCURVE",
"70 307 OFFCURVE",
"70 167 CURVE",
"70 41 OFFCURVE",
"224 -20 OFFCURVE",
"363 -20 CURVE",
"484 -20 OFFCURVE",
"581 9 OFFCURVE",
"658 55 CURVE"
);
}
);
width = 732;
},
{
layerId = "FA480B27-EBBD-4830-9868-98507D39050C";
name = Bold;
width = 420;
},
{
layerId = "543F9737-16F7-428D-9F96-2EBD9FC8D3B6";
name = Light;
width = 420;
}
);
unicode = 0065;
},
{
glyphname = f;
lastChange = "2015-08-01 22:33:46 +0000";
layers = (
{
background = {
paths = (
{
closed = 1;
nodes = (
"130 0 LINE",
"482 0 LINE",
"482 25 LINE",
"130 25 LINE"
);
},
{
closed = 1;
nodes = (
"262 0 LINE",
"287 0 LINE",
"287 428 LINE",
"287 515 OFFCURVE",
"336 560 OFFCURVE",
"432 560 CURVE SMOOTH",
"500 560 OFFCURVE",
"561 545 OFFCURVE",
"592 531 CURVE",
"592 449 LINE",
"617 449 LINE",
"617 548 LINE",
"571 568 OFFCURVE",
"508 585 OFFCURVE",
"434 585 CURVE SMOOTH",
"319 585 OFFCURVE",
"262 524 OFFCURVE",
"262 426 CURVE"
);
},
{
closed = 1;
nodes = (
"511 357 LINE",
"158 357 LINE",
"158 333 LINE",
"511 333 LINE"
);
}
);
};
layerId = "B29C398E-974A-40D0-A0A0-00935056D4B4";
name = "Light Extended";
paths = (
{
closed = 1;
nodes = (
"90 0 LINE",
"440 0 LINE",
"440 23 LINE",
"90 23 LINE"
);
},
{
closed = 1;
nodes = (
"220 0 LINE",
"245 0 LINE",
"245 428 LINE",
"245 515 OFFCURVE",
"287 562 OFFCURVE",
"383 562 CURVE SMOOTH",
"440 562 OFFCURVE",
"513 544 OFFCURVE",
"567 520 CURVE",
"575 543 LINE",
"519 565 OFFCURVE",
"449 585 OFFCURVE",
"385 585 CURVE SMOOTH",
"270 585 OFFCURVE",
"220 524 OFFCURVE",
"220 426 CURVE"
);
},
{
closed = 1;
nodes = (
"469 357 LINE",
"90 357 LINE",
"90 334 LINE",
"469 334 LINE"
);
}
);
width = 532;
},
{
layerId = "FA480B27-EBBD-4830-9868-98507D39050C";
name = Bold;
width = 420;
},
{
layerId = "543F9737-16F7-428D-9F96-2EBD9FC8D3B6";
name = Light;
width = 420;
}
);
leftMetricsKey = "=n";
unicode = 0066;
},
{
glyphname = f.alt;
lastChange = "2015-08-01 22:34:25 +0000";
layers = (
{
background = {
paths = (
{
closed = 1;
nodes = (
"103 357 LINE",
"103 333 LINE",
"386 333 LINE",
"386 357 LINE"
);
},
{
closed = 1;
nodes = (
"75 0 LINE",
"392 0 LINE",
"392 25 LINE",
"75 25 LINE"
);
},
{
closed = 1;
nodes = (
"152 416 OFFCURVE",
"208 407 OFFCURVE",
"208 381 CURVE",
"208 0 LINE",
"232 0 LINE",
"232 384 LINE",
"232 413 OFFCURVE",
"176 427 OFFCURVE",
"176 449 CURVE",
"176 529 OFFCURVE",
"222 560 OFFCURVE",
"290 560 CURVE SMOOTH",
"343 560 OFFCURVE",
"384 547 OFFCURVE",
"411 531 CURVE",
"411 449 LINE",
"436 449 LINE",
"436 548 LINE",
"394 569 OFFCURVE",
"352 585 OFFCURVE",
"292 585 CURVE SMOOTH",
"205 585 OFFCURVE",
"151 538 OFFCURVE",
"152 447 CURVE"
);
}
);
};
layerId = "B29C398E-974A-40D0-A0A0-00935056D4B4";
name = "Light Extended";
paths = (
{
closed = 1;
nodes = (
"160 419 OFFCURVE",
"196 380 OFFCURVE",
"229 348 CURVE",
"229 0 LINE",
"254 0 LINE",
"254 348 LINE",
"221 384 OFFCURVE",
"185 425 OFFCURVE",
"185 472 CURVE",
"185 526 OFFCURVE",
"237 562 OFFCURVE",
"318 562 CURVE SMOOTH",
"397 562 OFFCURVE",
"455 540 OFFCURVE",
"503 520 CURVE",
"513 541 LINE",
"458 564 OFFCURVE",
"397 585 OFFCURVE",
"319 585 CURVE SMOOTH",
"221 585 OFFCURVE",
"160 537 OFFCURVE",
"160 471 CURVE"
);
},
{
closed = 1;
nodes = (
"90 357 LINE",
"90 334 LINE",
"436 334 LINE",
"436 357 LINE"
);
},
{
closed = 1;
nodes = (
"90 0 LINE",
"442 0 LINE",
"442 23 LINE",
"90 23 LINE"
);
}
);
width = 492;
},
{
layerId = "FA480B27-EBBD-4830-9868-98507D39050C";
name = Bold;
width = 420;
},
{
layerId = "543F9737-16F7-428D-9F96-2EBD9FC8D3B6";
name = Light;
width = 420;
}
);
leftMetricsKey = "=f";
},
{
glyphname = g;
lastChange = "2015-08-01 12:21:47 +0000";
layers = (
{
guideLines = (
{
position = "{69, 219}";
}
);
layerId = "B29C398E-974A-40D0-A0A0-00935056D4B4";
name = "Light Extended";
paths = (
{
closed = 1;
nodes = (
"501 118 OFFCURVE",
"618 159 OFFCURVE",
"618 248 CURVE",
"618 337 OFFCURVE",
"501 377 OFFCURVE",
"365 377 CURVE",
"230 377 OFFCURVE",
"113 337 OFFCURVE",
"113 248 CURVE",
"113 159 OFFCURVE",
"230 116 OFFCURVE",
"365 118 CURVE"
);
},
{
closed = 1;
nodes = (
"242 141 OFFCURVE",
"138 178 OFFCURVE",
"138 248 CURVE",
"138 320 OFFCURVE",
"242 354 OFFCURVE",
"365 354 CURVE",
"490 354 OFFCURVE",
"595 320 OFFCURVE",
"595 248 CURVE",
"595 178 OFFCURVE",
"490 141 OFFCURVE",
"365 141 CURVE"
);
},
{
closed = 1;
nodes = (
"532 -169 OFFCURVE",
"679 -125 OFFCURVE",
"679 -34 CURVE SMOOTH",
"679 27 OFFCURVE",
"619 55 OFFCURVE",
"543 55 CURVE SMOOTH",
"468 55 OFFCURVE",
"304 22 OFFCURVE",
"227 22 CURVE SMOOTH",
"123 22 OFFCURVE",
"90 59 OFFCURVE",
"90 90 CURVE SMOOTH",
"90 132 OFFCURVE",
"137 155 OFFCURVE",
"172 167 CURVE",
"153 176 LINE",
"118 166 OFFCURVE",
"67 137 OFFCURVE",
"67 87 CURVE SMOOTH",
"67 52 OFFCURVE",
"97 0 OFFCURVE",
"225 0 CURVE SMOOTH",
"305 0 OFFCURVE",
"464 32 OFFCURVE",
"543 32 CURVE SMOOTH",
"609 32 OFFCURVE",
"655 13 OFFCURVE",
"655 -34 CURVE SMOOTH",
"655 -111 OFFCURVE",
"517 -147 OFFCURVE",
"337 -147 CURVE SMOOTH",
"155 -147 OFFCURVE",
"83 -104 OFFCURVE",
"83 -50 CURVE SMOOTH",
"83 -18 OFFCURVE",
"110 10 OFFCURVE",
"143 21 CURVE",
"125 30 LINE",
"98 20 OFFCURVE",
"59 -11 OFFCURVE",
"59 -53 CURVE SMOOTH",
"59 -119 OFFCURVE",
"141 -169 OFFCURVE",
"339 -169 CURVE SMOOTH"
);
},
{
closed = 1;
nodes = (
"677 456 LINE",
"612 453 OFFCURVE",
"559 411 OFFCURVE",
"545 335 CURVE",
"556 319 LINE",
"574 400 OFFCURVE",
"620 428 OFFCURVE",
"677 431 CURVE"
);
}
);
width = 711;
},
{
layerId = "543F9737-16F7-428D-9F96-2EBD9FC8D3B6";
name = Light;
width = 420;
},
{
layerId = "FA480B27-EBBD-4830-9868-98507D39050C";
name = Bold;
width = 420;
}
);
unicode = 0067;
},
{
glyphname = g.alt;
lastChange = "2015-08-01 12:21:47 +0000";
layers = (
{
background = {
paths = (
{
closed = 1;
nodes = (
"550 -27 OFFCURVE",
"692 42 OFFCURVE",
"692 175 CURVE",
"692 312 OFFCURVE",
"550 377 OFFCURVE",
"372 377 CURVE",
"194 376 OFFCURVE",
"53 312 OFFCURVE",
"53 175 CURVE",
"53 42 OFFCURVE",
"194 -28 OFFCURVE",
"372 -27 CURVE"
);
},
{
closed = 1;
nodes = (
"540 353 OFFCURVE",
"667 295 OFFCURVE",
"667 175 CURVE",
"667 60 OFFCURVE",
"540 -4 OFFCURVE",
"372 -4 CURVE",
"204 -4 OFFCURVE",
"77 60 OFFCURVE",
"77 175 CURVE",
"77 295 OFFCURVE",
"204 352 OFFCURVE",
"372 353 CURVE"
);
}
);
};
layerId = "B29C398E-974A-40D0-A0A0-00935056D4B4";
name = "Light Extended";
paths = (
{
closed = 1;
nodes = (
"478 353 OFFCURVE",
"578 315 OFFCURVE",
"669 269 CURVE",
"673 293 LINE",
"583 339 OFFCURVE",
"484 376 OFFCURVE",
"369 375 CURVE",
"218 376 OFFCURVE",
"70 293 OFFCURVE",
"70 160 CURVE",
"70 48 OFFCURVE",
"165 -20 OFFCURVE",
"294 -20 CURVE",
"424 -20 OFFCURVE",
"560 51 OFFCURVE",
"676 134 CURVE",
"676 158 LINE",
"551 69 OFFCURVE",
"408 3 OFFCURVE",
"294 3 CURVE",
"175 3 OFFCURVE",
"95 69 OFFCURVE",
"95 160 CURVE",
"95 276 OFFCURVE",
"229 353 OFFCURVE",
"369 352 CURVE"
);
},
{
closed = 1;
nodes = (
"102 -143 LINE",
"176 -177 OFFCURVE",
"299 -210 OFFCURVE",
"410 -210 CURVE SMOOTH",
"592 -210 OFFCURVE",
"687 -121 OFFCURVE",
"686 18 CURVE",
"686 357 LINE",
"661 357 LINE",
"661 17 LINE",
"661 -106 OFFCURVE",
"575 -187 OFFCURVE",
"411 -187 CURVE SMOOTH",
"305 -187 OFFCURVE",
"183 -154 OFFCURVE",
"109 -120 CURVE"
);
}
);
width = 795;
},
{
layerId = "FA480B27-EBBD-4830-9868-98507D39050C";
name = Bold;
width = 420;
},
{
layerId = "543F9737-16F7-428D-9F96-2EBD9FC8D3B6";
name = Light;
width = 420;
}
);
},
{
glyphname = h;
lastChange = "2015-08-01 22:30:42 +0000";
layers = (
{
layerId = "B29C398E-974A-40D0-A0A0-00935056D4B4";
name = "Light Extended";
paths = (
{
closed = 1;
nodes = (
"190 0 LINE",
"215 0 LINE",
"215 560 LINE",
"190 560 LINE"
);
},
{
closed = 1;
nodes = (
"10 560 LINE",
"10 537 LINE",
"215 537 LINE",
"215 560 LINE"
);
},
{
closed = 1;
nodes = (
"10 0 LINE",
"398 0 LINE",
"398 23 LINE",
"10 23 LINE"
);
},
{
closed = 1;
nodes = (
"389 377 OFFCURVE",
"266 273 OFFCURVE",
"202 221 CURVE",
"202 198 LINE",
"266 249 OFFCURVE",
"389 354 OFFCURVE",
"525 354 CURVE SMOOTH",
"671 354 OFFCURVE",
"705 247 OFFCURVE",
"705 145 CURVE",
"705 0 LINE",
"730 0 LINE",
"730 145 LINE",
"730 267 OFFCURVE",
"681 377 OFFCURVE",
"525 377 CURVE SMOOTH"
);
},
{
closed = 1;
nodes = (
"523 23 LINE",
"523 0 LINE",
"891 0 LINE",
"891 23 LINE"
);
}
);
width = 886;
},
{
layerId = "543F9737-16F7-428D-9F96-2EBD9FC8D3B6";
name = Light;
width = 420;
},
{
layerId = "FA480B27-EBBD-4830-9868-98507D39050C";
name = Bold;
width = 420;
}
);
leftMetricsKey = "=p";
rightMetricsKey = "=n";
unicode = 0068;
},
{
glyphname = i;
lastChange = "2015-08-01 22:30:14 +0000";
layers = (
{
layerId = "B29C398E-974A-40D0-A0A0-00935056D4B4";
name = "Light Extended";
paths = (
{
closed = 1;
nodes = (
"220 0 LINE",
"245 0 LINE",
"245 357 LINE",
"220 357 LINE"
);
},
{
closed = 1;
nodes = (
"40 23 LINE",
"40 0 LINE",
"406 0 LINE",
"406 23 LINE"
);
},
{
closed = 1;
nodes = (
"40 357 LINE",
"40 334 LINE",
"245 334 LINE",
"245 357 LINE"
);
},
{
closed = 1;
nodes = (
"192 530 OFFCURVE",
"175 517 OFFCURVE",
"175 499 CURVE",
"175 482 OFFCURVE",
"192 469 OFFCURVE",
"222 469 CURVE",
"253 469 OFFCURVE",
"269 482 OFFCURVE",
"269 499 CURVE",
"269 517 OFFCURVE",
"253 530 OFFCURVE",
"222 530 CURVE"
);
}
);
width = 409;
},
{
layerId = "FA480B27-EBBD-4830-9868-98507D39050C";
name = Bold;
width = 420;
},
{
layerId = "543F9737-16F7-428D-9F96-2EBD9FC8D3B6";
name = Light;
width = 420;
}
);
leftMetricsKey = "=n";
unicode = 0069;
},
{
glyphname = j;
lastChange = "2015-08-01 12:21:47 +0000";
layers = (
{
layerId = "B29C398E-974A-40D0-A0A0-00935056D4B4";
name = "Light Extended";
paths = (
{
closed = 1;
nodes = (
"-35 -185 LINE",
"7 -198 OFFCURVE",
"53 -210 OFFCURVE",
"105 -210 CURVE SMOOTH",
"189 -210 OFFCURVE",
"250 -149 OFFCURVE",
"249 -52 CURVE",
"249 344 LINE",
"224 344 LINE",
"224 -53 LINE",
"224 -141 OFFCURVE",
"172 -187 OFFCURVE",
"106 -187 CURVE SMOOTH",
"59 -187 OFFCURVE",
"14 -176 OFFCURVE",
"-28 -163 CURVE"
);
},
{
closed = 1;
nodes = (
"43 357 LINE",
"43 334 LINE",
"249 334 LINE",
"249 357 LINE"
);
},
{
closed = 1;
nodes = (
"197 530 OFFCURVE",
"179 517 OFFCURVE",
"179 499 CURVE",
"179 482 OFFCURVE",
"197 469 OFFCURVE",
"227 469 CURVE",
"258 469 OFFCURVE",
"274 482 OFFCURVE",
"274 499 CURVE",
"274 517 OFFCURVE",
"258 530 OFFCURVE",
"227 530 CURVE"
);
}
);
width = 382;
},
{
layerId = "FA480B27-EBBD-4830-9868-98507D39050C";
name = Bold;
width = 420;
},
{
layerId = "543F9737-16F7-428D-9F96-2EBD9FC8D3B6";
name = Light;
width = 420;
}
);
unicode = 006A;
},
{
glyphname = k;
lastChange = "2015-08-01 22:31:25 +0000";
layers = (
{
background = {
paths = (
{
closed = 1;
nodes = (
"191 0 LINE",
"215 0 LINE",
"215 560 LINE",
"191 560 LINE"
);
},
{
closed = 1;
nodes = (
"8 560 LINE",
"8 536 LINE",
"215 536 LINE",
"215 560 LINE"
);
},
{
closed = 1;
nodes = (
"30 0 LINE",
"398 0 LINE",
"398 25 LINE",
"30 25 LINE"
);
},
{
closed = 1;
nodes = (
"244 165 OFFCURVE",
"358 153 OFFCURVE",
"450 153 CURVE SMOOTH",
"585 153 OFFCURVE",
"695 191 OFFCURVE",
"695 260 CURVE SMOOTH",
"695 321 OFFCURVE",
"644 354 OFFCURVE",
"548 354 CURVE",
"431 354 OFFCURVE",
"314 293 OFFCURVE",
"201 212 CURVE",
"201 241 LINE",
"312 321 OFFCURVE",
"417 376 OFFCURVE",
"548 376 CURVE",
"663 376 OFFCURVE",
"719 330 OFFCURVE",
"719 261 CURVE SMOOTH",
"719 179 OFFCURVE",
"609 130 OFFCURVE",
"447 130 CURVE SMOOTH",
"344 130 OFFCURVE",
"244 146 OFFCURVE",
"198 155 CURVE",
"200 173 LINE"
);
},
{
closed = 0;
nodes = (
"597 99 LINE",
"537 186 OFFCURVE",
"494 233 OFFCURVE",
"382 233 CURVE SMOOTH",
"301 233 LINE",
"301 209 LINE",
"397 209 LINE SMOOTH",
"487 209 OFFCURVE",
"525 154 OFFCURVE",
"574 83 CURVE"
);
},
{
closed = 0;
nodes = (
"574 98 LINE",
"574 32 OFFCURVE",
"621 -16 OFFCURVE",
"684 -16 CURVE SMOOTH",
"775 -16 OFFCURVE",
"802 63 OFFCURVE",
"802 116 CURVE",
"777 116 LINE",
"777 60 OFFCURVE",
"750 8 OFFCURVE",
"686 8 CURVE SMOOTH",
"640 8 OFFCURVE",
"598 43 OFFCURVE",
"598 98 CURVE"
);
}
);
};
layerId = "B29C398E-974A-40D0-A0A0-00935056D4B4";
name = "Light Extended";
paths = (
{
closed = 1;
nodes = (
"190 0 LINE",
"215 0 LINE",
"215 560 LINE",
"190 560 LINE"
);
},
{
closed = 1;
nodes = (
"10 560 LINE",
"10 537 LINE",
"215 537 LINE",
"215 560 LINE"
);
},
{
closed = 1;
nodes = (
"10 0 LINE",
"398 0 LINE",
"398 23 LINE",
"10 23 LINE"
);
},
{
closed = 1;
nodes = (
"198 169 LINE",
"244 160 OFFCURVE",
"344 143 OFFCURVE",
"447 143 CURVE SMOOTH",
"623 143 OFFCURVE",
"733 190 OFFCURVE",
"733 272 CURVE SMOOTH",
"733 337 OFFCURVE",
"672 376 OFFCURVE",
"555 376 CURVE SMOOTH",
"443 376 OFFCURVE",
"317 320 OFFCURVE",
"201 241 CURVE",
"201 221 LINE",
"317 297 OFFCURVE",
"440 353 OFFCURVE",
"552 353 CURVE SMOOTH",
"649 353 OFFCURVE",
"708 326 OFFCURVE",
"708 271 CURVE SMOOTH",
"708 201 OFFCURVE",
"601 166 OFFCURVE",
"450 166 CURVE SMOOTH",
"358 166 OFFCURVE",
"244 179 OFFCURVE",
"200 186 CURVE"
);
},
{
closed = 1;
nodes = (
"786 103 LINE",
"775 34 OFFCURVE",
"721 2 OFFCURVE",
"663 2 CURVE SMOOTH",
"581 2 OFFCURVE",
"532 55 OFFCURVE",
"459 151 CURVE",
"434 151 LINE",
"498 57 OFFCURVE",
"570 -20 OFFCURVE",
"661 -20 CURVE SMOOTH",
"741 -20 OFFCURVE",
"794 31 OFFCURVE",
"807 99 CURVE"
);
}
);
width = 842;
},
{
layerId = "FA480B27-EBBD-4830-9868-98507D39050C";
name = Bold;
width = 420;
},
{
layerId = "543F9737-16F7-428D-9F96-2EBD9FC8D3B6";
name = Light;
width = 420;
}
);
leftMetricsKey = "=h";
unicode = 006B;
},
{
glyphname = l;
lastChange = "2015-08-01 22:31:21 +0000";
layers = (
{
layerId = "B29C398E-974A-40D0-A0A0-00935056D4B4";
name = "Light Extended";
paths = (
{
closed = 1;
nodes = (
"190 0 LINE",
"215 0 LINE",
"215 560 LINE",
"190 560 LINE"
);
},
{
closed = 1;
nodes = (
"10 560 LINE",
"10 537 LINE",
"215 537 LINE",
"215 560 LINE"
);
},
{
closed = 1;
nodes = (
"10 0 LINE",
"375 0 LINE",
"375 23 LINE",
"10 23 LINE"
);
}
);
width = 379;
},
{
layerId = "FA480B27-EBBD-4830-9868-98507D39050C";
name = Bold;
width = 420;
},
{
layerId = "543F9737-16F7-428D-9F96-2EBD9FC8D3B6";
name = Light;
width = 420;
}
);
leftMetricsKey = "=h";
unicode = 006C;
},
{
glyphname = m;
lastChange = "2015-08-01 22:25:03 +0000";
layers = (
{
layerId = "B29C398E-974A-40D0-A0A0-00935056D4B4";
name = "Light Extended";
paths = (
{
closed = 1;
nodes = (
"222 0 LINE",
"247 0 LINE",
"247 357 LINE",
"222 357 LINE"
);
},
{
closed = 1;
nodes = (
"40 23 LINE",
"40 0 LINE",
"408 0 LINE",
"408 23 LINE"
);
},
{
closed = 1;
nodes = (
"40 357 LINE",
"40 334 LINE",
"247 334 LINE",
"247 357 LINE"
);
},
{
closed = 1;
nodes = (
"375 377 OFFCURVE",
"289 300 OFFCURVE",
"234 221 CURVE",
"234 198 LINE",
"303 279 OFFCURVE",
"375 354 OFFCURVE",
"483 354 CURVE SMOOTH",
"601 354 OFFCURVE",
"626 268 OFFCURVE",
"626 166 CURVE",
"626 0 LINE",
"650 0 LINE",
"650 166 LINE",
"650 288 OFFCURVE",
"611 377 OFFCURVE",
"483 377 CURVE SMOOTH"
);
},
{
closed = 1;
nodes = (
"478 23 LINE",
"478 0 LINE",
"811 0 LINE",
"811 23 LINE"
);
},
{
closed = 1;
nodes = (
"778 377 OFFCURVE",
"692 300 OFFCURVE",
"637 221 CURVE",
"637 198 LINE",
"706 279 OFFCURVE",
"778 354 OFFCURVE",
"886 354 CURVE SMOOTH",
"1005 354 OFFCURVE",
"1029 268 OFFCURVE",
"1029 166 CURVE",
"1029 0 LINE",
"1054 0 LINE",
"1054 166 LINE",
"1054 288 OFFCURVE",
"1014 377 OFFCURVE",
"886 377 CURVE SMOOTH"
);
},
{
closed = 1;
nodes = (
"881 23 LINE",
"881 0 LINE",
"1214 0 LINE",
"1214 23 LINE"
);
}
);
width = 1209;
},
{
layerId = "FA480B27-EBBD-4830-9868-98507D39050C";
name = Bold;
width = 420;
},
{
layerId = "543F9737-16F7-428D-9F96-2EBD9FC8D3B6";
name = Light;
width = 420;
}
);
leftMetricsKey = "=n";
rightMetricsKey = "=n";
unicode = 006D;
},
{
glyphname = n;
lastChange = "2015-08-01 22:24:39 +0000";
layers = (
{
layerId = "B29C398E-974A-40D0-A0A0-00935056D4B4";
name = "Light Extended";
paths = (
{
closed = 1;
nodes = (
"222 0 LINE",
"247 0 LINE",
"247 357 LINE",
"222 357 LINE"
);
},
{
closed = 1;
nodes = (
"40 23 LINE",
"40 0 LINE",
"408 0 LINE",
"408 23 LINE"
);
},
{
closed = 1;
nodes = (
"40 357 LINE",
"40 334 LINE",
"247 334 LINE",
"247 357 LINE"
);
},
{
closed = 1;
nodes = (
"421 377 OFFCURVE",
"298 273 OFFCURVE",
"234 221 CURVE",
"234 198 LINE",
"298 249 OFFCURVE",
"421 354 OFFCURVE",
"557 354 CURVE SMOOTH",
"703 354 OFFCURVE",
"737 247 OFFCURVE",
"737 145 CURVE",
"737 0 LINE",
"762 0 LINE",
"762 145 LINE",
"762 267 OFFCURVE",
"713 377 OFFCURVE",
"557 377 CURVE SMOOTH"
);
},
{
closed = 1;
nodes = (
"555 23 LINE",
"555 0 LINE",
"923 0 LINE",
"923 23 LINE"
);
}
);
width = 918;
},
{
layerId = "543F9737-16F7-428D-9F96-2EBD9FC8D3B6";
name = Light;
paths = (
{
closed = 1;
nodes = (
"148 0 LINE",
"172 0 LINE",
"172 358 LINE",
"148 358 LINE"
);
},
{
closed = 1;
nodes = (
"56 25 LINE",
"56 0 LINE",
"248 0 LINE",
"248 25 LINE"
);
},
{
closed = 1;
nodes = (
"56 358 LINE",
"56 333 LINE",
"172 333 LINE",
"172 358 LINE"
);
},
{
closed = 1;
nodes = (
"286 367 OFFCURVE",
"226 305 OFFCURVE",
"159 218 CURVE",
"159 193 LINE",
"228 279 OFFCURVE",
"290 343 OFFCURVE",
"359 343 CURVE SMOOTH",
"421 343 OFFCURVE",
"453 303 OFFCURVE",
"453 233 CURVE SMOOTH",
"453 0 LINE",
"477 0 LINE",
"477 233 LINE SMOOTH",
"477 324 OFFCURVE",
"434 367 OFFCURVE",
"363 367 CURVE SMOOTH"
);
},
{
closed = 1;
nodes = (
"375 25 LINE",
"375 0 LINE",
"561 0 LINE",
"561 25 LINE"
);
}
);
width = 592;
},
{
layerId = "FA480B27-EBBD-4830-9868-98507D39050C";
name = Bold;
paths = (
{
closed = 1;
nodes = (
"105 0 LINE",
"214 0 LINE",
"214 357 LINE",
"105 357 LINE"
);
},
{
closed = 1;
nodes = (
"35 74 LINE",
"35 0 LINE",
"270 0 LINE",
"270 74 LINE"
);
},
{
closed = 1;
nodes = (
"35 357 LINE",
"35 284 LINE",
"207 284 LINE",
"207 357 LINE"
);
},
{
closed = 1;
nodes = (
"304 376 OFFCURVE",
"241 330 OFFCURVE",
"173 242 CURVE",
"173 144 LINE",
"227 216 OFFCURVE",
"293 278 OFFCURVE",
"345 278 CURVE SMOOTH",
"387 278 OFFCURVE",
"407 251 OFFCURVE",
"407 206 CURVE SMOOTH",
"407 0 LINE",
"516 0 LINE",
"516 207 LINE SMOOTH",
"516 319 OFFCURVE",
"473 376 OFFCURVE",
"381 376 CURVE SMOOTH"
);
},
{
closed = 1;
nodes = (
"354 74 LINE",
"354 0 LINE",
"582 0 LINE",
"582 74 LINE"
);
}
);
width = 592;
}
);
unicode = 006E;
},
{
glyphname = o;
lastChange = "2015-08-01 12:21:47 +0000";
layers = (
{
layerId = "B29C398E-974A-40D0-A0A0-00935056D4B4";
name = "Light Extended";
paths = (
{
closed = 1;
nodes = (
"568 -20 OFFCURVE",
"709 50 OFFCURVE",
"709 179 CURVE",
"709 312 OFFCURVE",
"568 377 OFFCURVE",
"389 377 CURVE",
"211 376 OFFCURVE",
"70 312 OFFCURVE",
"70 179 CURVE",
"70 50 OFFCURVE",
"211 -20 OFFCURVE",
"389 -20 CURVE SMOOTH"
);
},
{
closed = 1;
nodes = (
"222 3 OFFCURVE",
"95 66 OFFCURVE",
"95 179 CURVE",
"95 295 OFFCURVE",
"222 353 OFFCURVE",
"389 354 CURVE",
"557 354 OFFCURVE",
"685 295 OFFCURVE",
"685 179 CURVE",
"685 66 OFFCURVE",
"557 3 OFFCURVE",
"389 3 CURVE SMOOTH"
);
}
);
width = 779;
},
{
guideLines = (
{
position = "{260, 377}";
}
);
layerId = "543F9737-16F7-428D-9F96-2EBD9FC8D3B6";
name = Light;
paths = (
{
closed = 1;
nodes = (
"363 -26 OFFCURVE",
"451 52 OFFCURVE",
"451 175 CURVE",
"451 298 OFFCURVE",
"363 376 OFFCURVE",
"258 377 CURVE",
"153 376 OFFCURVE",
"65 298 OFFCURVE",
"65 175 CURVE",
"65 52 OFFCURVE",
"153 -26 OFFCURVE",
"258 -27 CURVE"
);
},
{
closed = 1;
nodes = (
"161 -4 OFFCURVE",
"90 68 OFFCURVE",
"90 175 CURVE",
"90 282 OFFCURVE",
"161 354 OFFCURVE",
"258 354 CURVE",
"356 354 OFFCURVE",
"427 282 OFFCURVE",
"427 175 CURVE",
"427 68 OFFCURVE",
"356 -4 OFFCURVE",
"258 -4 CURVE"
);
}
);
width = 514;
},
{
layerId = "FA480B27-EBBD-4830-9868-98507D39050C";
name = Bold;
paths = (
{
closed = 1;
nodes = (
"383 -27 OFFCURVE",
"486 42 OFFCURVE",
"486 175 CURVE",
"486 308 OFFCURVE",
"376 377 OFFCURVE",
"257 377 CURVE",
"138 377 OFFCURVE",
"28 308 OFFCURVE",
"28 175 CURVE",
"28 42 OFFCURVE",
"138 -27 OFFCURVE",
"257 -27 CURVE"
);
},
{
closed = 1;
nodes = (
"197 53 OFFCURVE",
"144 99 OFFCURVE",
"144 175 CURVE",
"144 251 OFFCURVE",
"197 297 OFFCURVE",
"257 297 CURVE",
"317 297 OFFCURVE",
"370 251 OFFCURVE",
"370 175 CURVE",
"370 99 OFFCURVE",
"317 53 OFFCURVE",
"257 53 CURVE"
);
}
);
width = 514;
}
);
unicode = 006F;
},
{
glyphname = p;
lastChange = "2015-08-01 22:31:30 +0000";
layers = (
{
background = {
paths = (
{
closed = 1;
nodes = (
"193 -140 LINE",
"217 -140 LINE",
"217 357 LINE",
"193 357 LINE"
);
},
{
closed = 1;
nodes = (
"10 -115 LINE",
"10 -140 LINE",
"378 -140 LINE",
"378 -115 LINE"
);
},
{
closed = 1;
nodes = (
"10 357 LINE",
"10 333 LINE",
"217 333 LINE",
"217 357 LINE"
);
},
{
closed = 0;
nodes = (
"827 145 LINE",
"827 271 OFFCURVE",
"763 376 OFFCURVE",
"585 376 CURVE",
"456 376 OFFCURVE",
"319 305 OFFCURVE",
"204 221 CURVE",
"204 197 LINE",
"329 286 OFFCURVE",
"471 352 OFFCURVE",
"585 352 CURVE",
"753 352 OFFCURVE",
"802 250 OFFCURVE",
"802 145 CURVE"
);
},
{
closed = 0;
nodes = (
"136 175 LINE",
"136 42 OFFCURVE",
"294 -27 OFFCURVE",
"480 -27 CURVE",
"667 -27 OFFCURVE",
"824 42 OFFCURVE",
"824 175 CURVE"
);
},
{
closed = 0;
nodes = (
"800 175 LINE",
"800 60 OFFCURVE",
"656 -4 OFFCURVE",
"480 -4 CURVE",
"304 -4 OFFCURVE",
"161 60 OFFCURVE",
"161 175 CURVE"
);
}
);
};
layerId = "B29C398E-974A-40D0-A0A0-00935056D4B4";
name = "Light Extended";
paths = (
{
closed = 1;
nodes = (
"193 -165 LINE",
"217 -165 LINE",
"217 357 LINE",
"193 357 LINE"
);
},
{
closed = 1;
nodes = (
"10 357 LINE",
"10 334 LINE",
"217 334 LINE",
"217 357 LINE"
);
},
{
closed = 1;
nodes = (
"273 22 OFFCURVE",
"378 -20 OFFCURVE",
"507 -20 CURVE",
"660 -20 OFFCURVE",
"809 55 OFFCURVE",
"809 192 CURVE",
"809 307 OFFCURVE",
"714 376 OFFCURVE",
"571 376 CURVE",
"442 376 OFFCURVE",
"319 312 OFFCURVE",
"204 228 CURVE",
"204 205 LINE",
"329 293 OFFCURVE",
"457 353 OFFCURVE",
"571 353 CURVE",
"703 353 OFFCURVE",
"784 287 OFFCURVE",
"784 192 CURVE",
"784 72 OFFCURVE",
"648 2 OFFCURVE",
"507 3 CURVE",
"388 2 OFFCURVE",
"275 45 OFFCURVE",
"201 85 CURVE",
"201 63 LINE"
);
},
{
closed = 1;
nodes = (
"32 -165 LINE",
"400 -165 LINE",
"400 -142 LINE",
"32 -142 LINE"
);
}
);
width = 879;
},
{
layerId = "FA480B27-EBBD-4830-9868-98507D39050C";
name = Bold;
width = 420;
},
{
layerId = "543F9737-16F7-428D-9F96-2EBD9FC8D3B6";
name = Light;
width = 420;
}
);
leftMetricsKey = "=h";
unicode = 0070;
},
{
glyphname = q;
lastChange = "2015-08-01 22:34:48 +0000";
layers = (
{
background = {
paths = (
{
closed = 1;
nodes = (
"692 537 LINE",
"692 560 LINE",
"493 560 LINE",
"493 537 LINE"
);
},
{
closed = 1;
nodes = (
"676 29 OFFCURVE",
"703 -20 OFFCURVE",
"766 -20 CURVE SMOOTH",
"833 -20 OFFCURVE",
"855 39 OFFCURVE",
"855 88 CURVE SMOOTH",
"855 102 LINE",
"831 102 LINE",
"831 88 LINE SMOOTH",
"831 39 OFFCURVE",
"809 4 OFFCURVE",
"767 4 CURVE SMOOTH",
"722 4 OFFCURVE",
"701 39 OFFCURVE",
"701 98 CURVE SMOOTH",
"701 560 LINE",
"676 560 LINE",
"676 98 LINE SMOOTH"
);
},
{
closed = 1;
nodes = (
"620 334 OFFCURVE",
"516 376 OFFCURVE",
"386 375 CURVE",
"234 376 OFFCURVE",
"84 293 OFFCURVE",
"84 157 CURVE",
"84 41 OFFCURVE",
"179 -27 OFFCURVE",
"322 -27 CURVE",
"451 -27 OFFCURVE",
"574 44 OFFCURVE",
"690 127 CURVE",
"690 151 LINE",
"565 62 OFFCURVE",
"436 -4 OFFCURVE",
"322 -4 CURVE",
"189 -4 OFFCURVE",
"109 62 OFFCURVE",
"109 157 CURVE",
"109 276 OFFCURVE",
"244 353 OFFCURVE",
"386 352 CURVE",
"505 353 OFFCURVE",
"619 310 OFFCURVE",
"692 270 CURVE",
"692 293 LINE"
);
},
{
closed = 1;
nodes = (
"692 537 LINE",
"692 560 LINE",
"493 560 LINE",
"493 537 LINE"
);
},
{
closed = 1;
nodes = (
"676 29 OFFCURVE",
"703 -20 OFFCURVE",
"766 -20 CURVE SMOOTH",
"833 -20 OFFCURVE",
"855 39 OFFCURVE",
"855 88 CURVE SMOOTH",
"855 102 LINE",
"831 102 LINE",
"831 88 LINE SMOOTH",
"831 39 OFFCURVE",
"809 4 OFFCURVE",
"767 4 CURVE SMOOTH",
"722 4 OFFCURVE",
"701 39 OFFCURVE",
"701 98 CURVE SMOOTH",
"701 560 LINE",
"676 560 LINE",
"676 98 LINE SMOOTH"
);
},
{
closed = 1;
nodes = (
"620 334 OFFCURVE",
"516 376 OFFCURVE",
"386 375 CURVE",
"234 376 OFFCURVE",
"84 293 OFFCURVE",
"84 157 CURVE",
"84 41 OFFCURVE",
"179 -27 OFFCURVE",
"322 -27 CURVE",
"451 -27 OFFCURVE",
"574 44 OFFCURVE",
"690 127 CURVE",
"690 151 LINE",
"565 62 OFFCURVE",
"436 -4 OFFCURVE",
"322 -4 CURVE",
"189 -4 OFFCURVE",
"109 62 OFFCURVE",
"109 157 CURVE",
"109 276 OFFCURVE",
"244 353 OFFCURVE",
"386 352 CURVE",
"505 353 OFFCURVE",
"619 310 OFFCURVE",
"692 270 CURVE",
"692 293 LINE"
);
}
);
};
layerId = "B29C398E-974A-40D0-A0A0-00935056D4B4";
name = "Light Extended";
paths = (
{
closed = 1;
nodes = (
"675 375 LINE",
"675 -165 LINE",
"700 -165 LINE",
"700 375 LINE"
);
},
{
closed = 1;
nodes = (
"493 -142 LINE",
"493 -165 LINE",
"860 -165 LINE",
"860 -142 LINE"
);
},
{
closed = 1;
nodes = (
"540 353 OFFCURVE",
"703 295 OFFCURVE",
"832 234 CURVE",
"832 258 LINE",
"704 320 OFFCURVE",
"551 376 OFFCURVE",
"397 375 CURVE",
"232 376 OFFCURVE",
"84 300 OFFCURVE",
"84 164 CURVE",
"84 48 OFFCURVE",
"179 -20 OFFCURVE",
"322 -20 CURVE",
"451 -20 OFFCURVE",
"574 44 OFFCURVE",
"690 127 CURVE",
"690 151 LINE",
"565 62 OFFCURVE",
"436 3 OFFCURVE",
"322 3 CURVE",
"189 3 OFFCURVE",
"109 69 OFFCURVE",
"109 164 CURVE",
"109 283 OFFCURVE",
"243 353 OFFCURVE",
"397 352 CURVE"
);
}
);
width = 870;
},
{
layerId = "FA480B27-EBBD-4830-9868-98507D39050C";
name = Bold;
width = 420;
},
{
layerId = "543F9737-16F7-428D-9F96-2EBD9FC8D3B6";
name = Light;
width = 420;
}
);
unicode = 0071;
},
{
glyphname = r;
lastChange = "2015-08-01 22:35:37 +0000";
layers = (
{
layerId = "B29C398E-974A-40D0-A0A0-00935056D4B4";
name = "Light Extended";
paths = (
{
closed = 1;
nodes = (
"472 376 OFFCURVE",
"356 315 OFFCURVE",
"234 221 CURVE",
"234 198 LINE",
"366 297 OFFCURVE",
"487 353 OFFCURVE",
"615 353 CURVE",
"615 222 LINE",
"640 222 LINE",
"640 375 LINE",
"615 376 LINE"
);
},
{
closed = 1;
nodes = (
"222 0 LINE",
"247 0 LINE",
"247 357 LINE",
"222 357 LINE"
);
},
{
closed = 1;
nodes = (
"40 23 LINE",
"40 0 LINE",
"408 0 LINE",
"408 23 LINE"
);
},
{
closed = 1;
nodes = (
"40 357 LINE",
"40 334 LINE",
"247 334 LINE",
"247 357 LINE"
);
}
);
width = 690;
},
{
layerId = "FA480B27-EBBD-4830-9868-98507D39050C";
name = Bold;
width = 420;
},
{
layerId = "543F9737-16F7-428D-9F96-2EBD9FC8D3B6";
name = Light;
width = 420;
}
);
leftMetricsKey = "=n";
unicode = 0072;
},
{
color = 6;
glyphname = s;
lastChange = "2015-08-01 21:58:02 +0000";
layers = (
{
background = {
paths = (
{
closed = 1;
nodes = (
"571 137 OFFCURVE",
"503 152 OFFCURVE",
"335 163 CURVE SMOOTH",
"167 174 OFFCURVE",
"89 204 OFFCURVE",
"89 272 CURVE SMOOTH",
"89 332 OFFCURVE",
"155 377 OFFCURVE",
"291 377 CURVE",
"414 377 OFFCURVE",
"526 333 OFFCURVE",
"575 270 CURVE",
"555 277 LINE",
"555 376 LINE",
"579 376 LINE",
"579 240 LINE",
"506 326 OFFCURVE",
"386 355 OFFCURVE",
"286 355 CURVE",
"189 355 OFFCURVE",
"113 323 OFFCURVE",
"113 273 CURVE SMOOTH",
"113 222 OFFCURVE",
"176 199 OFFCURVE",
"335 188 CURVE SMOOTH",
"510 176 OFFCURVE",
"595 158 OFFCURVE",
"595 81 CURVE",
"595 14 OFFCURVE",
"504 -20 OFFCURVE",
"370 -20 CURVE",
"247 -20 OFFCURVE",
"127 23 OFFCURVE",
"85 86 CURVE",
"106 79 LINE",
"106 -20 LINE",
"82 -20 LINE",
"82 116 LINE",
"148 30 OFFCURVE",
"274 2 OFFCURVE",
"375 2 CURVE",
"470 2 OFFCURVE",
"571 22 OFFCURVE",
"571 80 CURVE"
);
}
);
};
layerId = "B29C398E-974A-40D0-A0A0-00935056D4B4";
name = "Light Extended";
paths = (
{
closed = 1;
nodes = (
"571 137 OFFCURVE",
"503 152 OFFCURVE",
"335 163 CURVE SMOOTH",
"167 174 OFFCURVE",
"89 204 OFFCURVE",
"89 272 CURVE SMOOTH",
"89 332 OFFCURVE",
"155 377 OFFCURVE",
"291 377 CURVE SMOOTH",
"414 377 OFFCURVE",
"523 323 OFFCURVE",
"572 260 CURVE",
"557 267 LINE",
"557 376 LINE",
"579 376 LINE",
"579 230 LINE",
"506 316 OFFCURVE",
"396 355 OFFCURVE",
"286 355 CURVE SMOOTH",
"184 355 OFFCURVE",
"113 323 OFFCURVE",
"113 273 CURVE SMOOTH",
"113 222 OFFCURVE",
"176 199 OFFCURVE",
"335 188 CURVE SMOOTH",
"510 176 OFFCURVE",
"595 158 OFFCURVE",
"595 81 CURVE SMOOTH",
"595 14 OFFCURVE",
"509 -20 OFFCURVE",
"380 -20 CURVE SMOOTH",
"257 -20 OFFCURVE",
"135 33 OFFCURVE",
"88 96 CURVE",
"104 89 LINE",
"104 -20 LINE",
"82 -20 LINE",
"82 126 LINE",
"151 40 OFFCURVE",
"279 2 OFFCURVE",
"385 2 CURVE SMOOTH",
"475 2 OFFCURVE",
"571 22 OFFCURVE",
"571 80 CURVE SMOOTH"
);
}
);
width = 683;
},
{
layerId = "FA480B27-EBBD-4830-9868-98507D39050C";
name = Bold;
paths = (
{
closed = 1;
nodes = (
"316 -21 OFFCURVE",
"409 18 OFFCURVE",
"409 97 CURVE SMOOTH",
"409 172 OFFCURVE",
"340 197 OFFCURVE",
"268 218 CURVE SMOOTH",
"201 237 OFFCURVE",
"166 243 OFFCURVE",
"166 263 CURVE SMOOTH",
"166 281 OFFCURVE",
"185 286 OFFCURVE",
"216 286 CURVE SMOOTH",
"255 286 OFFCURVE",
"324 274 OFFCURVE",
"384 246 CURVE",
"384 340 LINE",
"324 364 OFFCURVE",
"269 375 OFFCURVE",
"205 376 CURVE",
"112 376 OFFCURVE",
"35 336 OFFCURVE",
"35 257 CURVE SMOOTH",
"35 183 OFFCURVE",
"100 151 OFFCURVE",
"179 128 CURVE SMOOTH",
"241 111 OFFCURVE",
"278 108 OFFCURVE",
"278 88 CURVE SMOOTH",
"278 69 OFFCURVE",
"250 67 OFFCURVE",
"215 67 CURVE SMOOTH",
"179 67 OFFCURVE",
"101 83 OFFCURVE",
"36 119 CURVE",
"36 22 LINE",
"99 -10 OFFCURVE",
"158 -21 OFFCURVE",
"231 -21 CURVE SMOOTH"
);
}
);
width = 433;
},
{
layerId = "543F9737-16F7-428D-9F96-2EBD9FC8D3B6";
name = Light;
paths = (
{
closed = 1;
nodes = (
"298 -25 OFFCURVE",
"375 8 OFFCURVE",
"375 78 CURVE SMOOTH",
"375 153 OFFCURVE",
"285 167 OFFCURVE",
"223 185 CURVE SMOOTH",
"159 203 OFFCURVE",
"97 223 OFFCURVE",
"97 274 CURVE SMOOTH",
"97 323 OFFCURVE",
"152 351 OFFCURVE",
"202 351 CURVE SMOOTH",
"245 351 OFFCURVE",
"302 337 OFFCURVE",
"349 318 CURVE",
"349 343 LINE",
"302 363 OFFCURVE",
"251 375 OFFCURVE",
"202 375 CURVE SMOOTH",
"123 375 OFFCURVE",
"71 334 OFFCURVE",
"71 272 CURVE SMOOTH",
"71 204 OFFCURVE",
"148 179 OFFCURVE",
"222 160 CURVE SMOOTH",
"282 144 OFFCURVE",
"349 132 OFFCURVE",
"349 77 CURVE SMOOTH",
"349 25 OFFCURVE",
"286 -1 OFFCURVE",
"234 -1 CURVE SMOOTH",
"185 -1 OFFCURVE",
"131 6 OFFCURVE",
"66 41 CURVE",
"67 13 LINE",
"130 -17 OFFCURVE",
"179 -25 OFFCURVE",
"234 -25 CURVE SMOOTH"
);
}
);
width = 433;
}
);
unicode = 0073;
},
{
glyphname = s.alt;
lastChange = "2015-08-01 12:21:47 +0000";
layers = (
{
background = {
paths = (
{
closed = 1;
nodes = (
"503 173 OFFCURVE",
"599 154 OFFCURVE",
"599 78 CURVE SMOOTH",
"599 6 OFFCURVE",
"498 -27 OFFCURVE",
"361 -27 CURVE SMOOTH",
"243 -27 OFFCURVE",
"144 2 OFFCURVE",
"70 41 CURVE",
"82 65 LINE",
"148 25 OFFCURVE",
"248 -4 OFFCURVE",
"361 -4 CURVE SMOOTH",
"486 -4 OFFCURVE",
"573 22 OFFCURVE",
"573 76 CURVE SMOOTH",
"573 134 OFFCURVE",
"494 148 OFFCURVE",
"328 160 CURVE SMOOTH",
"160 172 OFFCURVE",
"85 200 OFFCURVE",
"89 268 CURVE SMOOTH",
"92 337 OFFCURVE",
"169 375 OFFCURVE",
"312 375 CURVE SMOOTH",
"410 375 OFFCURVE",
"498 365 OFFCURVE",
"577 344 CURVE",
"577 241 LINE",
"552 241 LINE",
"552 326 LINE",
"497 339 OFFCURVE",
"404 352 OFFCURVE",
"305 352 CURVE SMOOTH",
"202 352 OFFCURVE",
"118 326 OFFCURVE",
"114 270 CURVE SMOOTH",
"111 218 OFFCURVE",
"170 195 OFFCURVE",
"328 185 CURVE SMOOTH"
);
}
);
};
layerId = "B29C398E-974A-40D0-A0A0-00935056D4B4";
name = "Light Extended";
paths = (
{
closed = 1;
nodes = (
"503 176 OFFCURVE",
"599 154 OFFCURVE",
"599 78 CURVE SMOOTH",
"599 6 OFFCURVE",
"498 -20 OFFCURVE",
"361 -20 CURVE SMOOTH",
"243 -20 OFFCURVE",
"144 9 OFFCURVE",
"70 48 CURVE",
"82 71 LINE",
"148 31 OFFCURVE",
"248 3 OFFCURVE",
"361 3 CURVE SMOOTH",
"487 3 OFFCURVE",
"575 22 OFFCURVE",
"575 76 CURVE SMOOTH",
"575 134 OFFCURVE",
"496 151 OFFCURVE",
"328 163 CURVE SMOOTH",
"160 175 OFFCURVE",
"89 204 OFFCURVE",
"89 272 CURVE SMOOTH",
"89 339 OFFCURVE",
"169 375 OFFCURVE",
"312 375 CURVE SMOOTH",
"410 375 OFFCURVE",
"498 365 OFFCURVE",
"577 344 CURVE",
"577 241 LINE",
"552 241 LINE",
"552 326 LINE",
"497 340 OFFCURVE",
"404 353 OFFCURVE",
"305 353 CURVE SMOOTH",
"201 353 OFFCURVE",
"113 330 OFFCURVE",
"113 273 CURVE SMOOTH",
"113 222 OFFCURVE",
"169 199 OFFCURVE",
"328 188 CURVE SMOOTH"
);
}
);
width = 683;
},
{
layerId = "FA480B27-EBBD-4830-9868-98507D39050C";
name = Bold;
width = 420;
},
{
layerId = "543F9737-16F7-428D-9F96-2EBD9FC8D3B6";
name = Light;
width = 420;
}
);
},
{
glyphname = s.alt2;
lastChange = "2015-08-01 12:21:47 +0000";
layers = (
{
background = {
paths = (
{
closed = 0;
nodes = (
"338 158 LINE",
"218 178 OFFCURVE",
"124 193 OFFCURVE",
"124 266 CURVE SMOOTH",
"124 344 OFFCURVE",
"226 375 OFFCURVE",
"349 375 CURVE",
"432 376 OFFCURVE",
"500 365 OFFCURVE",
"579 344 CURVE",
"579 238 LINE",
"554 238 LINE",
"554 326 LINE",
"499 339 OFFCURVE",
"426 351 OFFCURVE",
"342 352 CURVE",
"243 351 OFFCURVE",
"149 332 OFFCURVE",
"149 266 CURVE SMOOTH",
"149 216 OFFCURVE",
"225 202 OFFCURVE",
"339 183 CURVE"
);
},
{
closed = 0;
nodes = (
"347 -24 LINE",
"258 -24 OFFCURVE",
"148 -2 OFFCURVE",
"101 43 CURVE",
"112 66 LINE",
"154 25 OFFCURVE",
"247 0 OFFCURVE",
"349 -3 CURVE"
);
},
{
closed = 0;
nodes = (
"371 -23 LINE",
"494 -23 OFFCURVE",
"596 8 OFFCURVE",
"596 86 CURVE SMOOTH",
"596 159 OFFCURVE",
"503 174 OFFCURVE",
"382 195 CURVE"
);
},
{
closed = 0;
nodes = (
"382 169 LINE",
"496 150 OFFCURVE",
"571 136 OFFCURVE",
"571 86 CURVE SMOOTH",
"571 20 OFFCURVE",
"477 1 OFFCURVE",
"378 0 CURVE"
);
}
);
};
layerId = "B29C398E-974A-40D0-A0A0-00935056D4B4";
name = "Light Extended";
paths = (
{
closed = 1;
nodes = (
"498 -20 OFFCURVE",
"602 6 OFFCURVE",
"602 81 CURVE SMOOTH",
"602 158 OFFCURVE",
"517 178 OFFCURVE",
"333 193 CURVE SMOOTH",
"167 206 OFFCURVE",
"109 226 OFFCURVE",
"109 277 CURVE SMOOTH",
"109 335 OFFCURVE",
"201 353 OFFCURVE",
"312 353 CURVE SMOOTH",
"404 353 OFFCURVE",
"513 332 OFFCURVE",
"584 308 CURVE",
"584 330 LINE",
"510 355 OFFCURVE",
"410 375 OFFCURVE",
"312 375 CURVE SMOOTH",
"169 375 OFFCURVE",
"85 346 OFFCURVE",
"85 277 CURVE SMOOTH",
"85 208 OFFCURVE",
"156 182 OFFCURVE",
"331 167 CURVE SMOOTH",
"508 153 OFFCURVE",
"578 139 OFFCURVE",
"578 81 CURVE SMOOTH",
"578 23 OFFCURVE",
"486 2 OFFCURVE",
"370 2 CURVE SMOOTH",
"261 2 OFFCURVE",
"149 33 OFFCURVE",
"63 75 CURVE",
"63 48 LINE",
"149 11 OFFCURVE",
"255 -20 OFFCURVE",
"370 -20 CURVE SMOOTH"
);
}
);
width = 683;
},
{
layerId = "FA480B27-EBBD-4830-9868-98507D39050C";
name = Bold;
paths = (
{
closed = 1;
nodes = (
"316 -21 OFFCURVE",
"409 18 OFFCURVE",
"409 97 CURVE SMOOTH",
"409 172 OFFCURVE",
"340 197 OFFCURVE",
"268 218 CURVE SMOOTH",
"201 237 OFFCURVE",
"166 243 OFFCURVE",
"166 263 CURVE SMOOTH",
"166 281 OFFCURVE",
"185 286 OFFCURVE",
"216 286 CURVE SMOOTH",
"255 286 OFFCURVE",
"324 274 OFFCURVE",
"384 246 CURVE",
"384 340 LINE",
"324 364 OFFCURVE",
"269 375 OFFCURVE",
"205 376 CURVE",
"112 376 OFFCURVE",
"35 336 OFFCURVE",
"35 257 CURVE SMOOTH",
"35 183 OFFCURVE",
"100 151 OFFCURVE",
"179 128 CURVE SMOOTH",
"241 111 OFFCURVE",
"278 108 OFFCURVE",
"278 88 CURVE SMOOTH",
"278 69 OFFCURVE",
"250 67 OFFCURVE",
"215 67 CURVE SMOOTH",
"179 67 OFFCURVE",
"101 83 OFFCURVE",
"36 119 CURVE",
"36 22 LINE",
"99 -10 OFFCURVE",
"158 -21 OFFCURVE",
"231 -21 CURVE SMOOTH"
);
}
);
width = 433;
},
{
layerId = "543F9737-16F7-428D-9F96-2EBD9FC8D3B6";
name = Light;
paths = (
{
closed = 1;
nodes = (
"298 -25 OFFCURVE",
"375 8 OFFCURVE",
"375 78 CURVE SMOOTH",
"375 153 OFFCURVE",
"285 167 OFFCURVE",
"223 185 CURVE SMOOTH",
"159 203 OFFCURVE",
"97 223 OFFCURVE",
"97 274 CURVE SMOOTH",
"97 323 OFFCURVE",
"152 351 OFFCURVE",
"202 351 CURVE SMOOTH",
"245 351 OFFCURVE",
"302 337 OFFCURVE",
"349 318 CURVE",
"349 343 LINE",
"302 363 OFFCURVE",
"251 375 OFFCURVE",
"202 375 CURVE SMOOTH",
"123 375 OFFCURVE",
"71 334 OFFCURVE",
"71 272 CURVE SMOOTH",
"71 204 OFFCURVE",
"148 179 OFFCURVE",
"222 160 CURVE SMOOTH",
"282 144 OFFCURVE",
"349 132 OFFCURVE",
"349 77 CURVE SMOOTH",
"349 25 OFFCURVE",
"286 -1 OFFCURVE",
"234 -1 CURVE SMOOTH",
"185 -1 OFFCURVE",
"131 6 OFFCURVE",
"66 41 CURVE",
"67 13 LINE",
"130 -17 OFFCURVE",
"179 -25 OFFCURVE",
"234 -25 CURVE SMOOTH"
);
}
);
width = 433;
}
);
},
{
glyphname = t;
lastChange = "2015-08-01 12:21:47 +0000";
layers = (
{
layerId = "B29C398E-974A-40D0-A0A0-00935056D4B4";
name = "Light Extended";
paths = (
{
closed = 1;
nodes = (
"395 357 LINE",
"28 357 LINE",
"28 334 LINE",
"395 334 LINE"
);
},
{
closed = 1;
nodes = (
"433 47 LINE",
"392 26 OFFCURVE",
"330 3 OFFCURVE",
"261 3 CURVE SMOOTH",
"199 3 OFFCURVE",
"157 31 OFFCURVE",
"157 113 CURVE",
"157 340 LINE",
"157 347 LINE",
"157 476 LINE",
"132 476 LINE",
"132 348 LINE",
"132 342 LINE",
"132 113 LINE",
"132 17 OFFCURVE",
"182 -20 OFFCURVE",
"263 -20 CURVE SMOOTH",
"333 -20 OFFCURVE",
"397 4 OFFCURVE",
"440 25 CURVE"
);
}
);
width = 475;
},
{
layerId = "FA480B27-EBBD-4830-9868-98507D39050C";
name = Bold;
width = 420;
},
{
layerId = "543F9737-16F7-428D-9F96-2EBD9FC8D3B6";
name = Light;
width = 420;
}
);
unicode = 0074;
},
{
glyphname = t.alt;
lastChange = "2015-08-01 12:21:47 +0000";
layers = (
{
layerId = "B29C398E-974A-40D0-A0A0-00935056D4B4";
name = "Light Extended";
paths = (
{
closed = 1;
nodes = (
"395 357 LINE",
"63 357 LINE",
"63 334 LINE",
"395 334 LINE"
);
},
{
closed = 1;
nodes = (
"422 43 LINE",
"385 23 OFFCURVE",
"327 3 OFFCURVE",
"272 3 CURVE SMOOTH",
"210 3 OFFCURVE",
"168 31 OFFCURVE",
"168 113 CURVE",
"168 195 OFFCURVE",
"206 321 OFFCURVE",
"211 340 CURVE",
"212 347 LINE",
"212 490 LINE",
"187 490 LINE",
"187 348 LINE",
"188 342 LINE",
"182 321 OFFCURVE",
"143 196 OFFCURVE",
"143 113 CURVE",
"143 17 OFFCURVE",
"193 -20 OFFCURVE",
"273 -20 CURVE SMOOTH",
"330 -20 OFFCURVE",
"390 1 OFFCURVE",
"430 21 CURVE"
);
}
);
width = 493;
},
{
layerId = "FA480B27-EBBD-4830-9868-98507D39050C";
name = Bold;
width = 420;
},
{
layerId = "543F9737-16F7-428D-9F96-2EBD9FC8D3B6";
name = Light;
width = 420;
}
);
},
{
glyphname = u;
lastChange = "2015-08-01 22:35:43 +0000";
layers = (
{
background = {
paths = (
{
closed = 1;
nodes = (
"734 98 LINE",
"734 32 OFFCURVE",
"781 -16 OFFCURVE",
"844 -16 CURVE SMOOTH",
"934 -16 OFFCURVE",
"962 63 OFFCURVE",
"962 116 CURVE",
"937 116 LINE",
"937 60 OFFCURVE",
"910 8 OFFCURVE",
"846 8 CURVE SMOOTH",
"800 8 OFFCURVE",
"758 43 OFFCURVE",
"758 98 CURVE",
"758 207 LINE",
"758 307 OFFCURVE",
"701 377 OFFCURVE",
"557 377 CURVE",
"444 377 OFFCURVE",
"331 364 OFFCURVE",
"206 336 CURVE",
"206 310 LINE",
"332 339 OFFCURVE",
"444 353 OFFCURVE",
"557 353 CURVE",
"688 353 OFFCURVE",
"734 291 OFFCURVE",
"734 207 CURVE"
);
},
{
closed = 1;
nodes = (
"177 15 OFFCURVE",
"251 -20 OFFCURVE",
"351 -20 CURVE",
"480 -20 OFFCURVE",
"622 22 OFFCURVE",
"744 77 CURVE",
"744 100 LINE",
"617 46 OFFCURVE",
"478 4 OFFCURVE",
"351 4 CURVE",
"266 4 OFFCURVE",
"202 32 OFFCURVE",
"202 99 CURVE",
"202 167 OFFCURVE",
"293 205 OFFCURVE",
"409 205 CURVE",
"514 205 OFFCURVE",
"635 185 OFFCURVE",
"744 157 CURVE",
"744 181 LINE",
"635 207 OFFCURVE",
"529 229 OFFCURVE",
"409 229 CURVE",
"279 229 OFFCURVE",
"177 185 OFFCURVE",
"177 99 CURVE"
);
}
);
};
layerId = "B29C398E-974A-40D0-A0A0-00935056D4B4";
name = "Light Extended";
paths = (
{
closed = 1;
nodes = (
"695 334 LINE",
"695 357 LINE",
"489 357 LINE",
"489 334 LINE"
);
},
{
closed = 1;
nodes = (
"493 -20 OFFCURVE",
"588 30 OFFCURVE",
"688 78 CURVE",
"688 102 LINE",
"588 52 OFFCURVE",
"478 3 OFFCURVE",
"379 3 CURVE",
"269 4 OFFCURVE",
"208 50 OFFCURVE",
"208 155 CURVE",
"208 357 LINE",
"183 357 LINE",
"183 155 LINE",
"183 29 OFFCURVE",
"259 -20 OFFCURVE",
"379 -20 CURVE"
);
},
{
closed = 1;
nodes = (
"195 334 LINE",
"195 357 LINE",
"-5 357 LINE",
"-5 334 LINE"
);
},
{
closed = 1;
nodes = (
"677 18 OFFCURVE",
"715 -20 OFFCURVE",
"765 -20 CURVE SMOOTH",
"797 -20 OFFCURVE",
"823 -8 OFFCURVE",
"848 9 CURVE",
"838 29 LINE",
"815 12 OFFCURVE",
"793 3 OFFCURVE",
"766 3 CURVE SMOOTH",
"734 3 OFFCURVE",
"702 28 OFFCURVE",
"702 84 CURVE",
"702 357 LINE",
"677 357 LINE",
"677 84 LINE"
);
}
);
width = 843;
},
{
layerId = "FA480B27-EBBD-4830-9868-98507D39050C";
name = Bold;
width = 420;
},
{
layerId = "543F9737-16F7-428D-9F96-2EBD9FC8D3B6";
name = Light;
width = 420;
}
);
rightMetricsKey = "=n";
unicode = 0075;
},
{
glyphname = u.alt;
lastChange = "2015-08-01 22:35:49 +0000";
layers = (
{
background = {
paths = (
{
closed = 1;
nodes = (
"727 98 LINE",
"727 32 OFFCURVE",
"774 -16 OFFCURVE",
"837 -16 CURVE SMOOTH",
"927 -16 OFFCURVE",
"955 63 OFFCURVE",
"955 116 CURVE",
"930 116 LINE",
"930 60 OFFCURVE",
"903 8 OFFCURVE",
"839 8 CURVE SMOOTH",
"793 8 OFFCURVE",
"751 43 OFFCURVE",
"751 98 CURVE",
"751 207 LINE",
"751 307 OFFCURVE",
"694 377 OFFCURVE",
"550 377 CURVE",
"437 377 OFFCURVE",
"324 364 OFFCURVE",
"199 336 CURVE",
"199 310 LINE",
"325 339 OFFCURVE",
"437 353 OFFCURVE",
"550 353 CURVE",
"681 353 OFFCURVE",
"727 291 OFFCURVE",
"727 207 CURVE"
);
},
{
closed = 1;
nodes = (
"170 15 OFFCURVE",
"244 -20 OFFCURVE",
"344 -20 CURVE",
"473 -20 OFFCURVE",
"615 22 OFFCURVE",
"737 77 CURVE",
"737 100 LINE",
"610 46 OFFCURVE",
"471 4 OFFCURVE",
"344 4 CURVE",
"259 4 OFFCURVE",
"195 32 OFFCURVE",
"195 99 CURVE",
"195 167 OFFCURVE",
"286 205 OFFCURVE",
"402 205 CURVE",
"507 205 OFFCURVE",
"628 185 OFFCURVE",
"737 157 CURVE",
"737 181 LINE",
"628 207 OFFCURVE",
"522 229 OFFCURVE",
"402 229 CURVE",
"272 229 OFFCURVE",
"170 185 OFFCURVE",
"170 99 CURVE"
);
}
);
};
guideLines = (
{
position = "{376, 119}";
}
);
layerId = "B29C398E-974A-40D0-A0A0-00935056D4B4";
name = "Light Extended";
paths = (
{
closed = 1;
nodes = (
"688 334 LINE",
"688 357 LINE",
"482 357 LINE",
"482 334 LINE"
);
},
{
closed = 1;
nodes = (
"486 -20 OFFCURVE",
"581 31 OFFCURVE",
"681 79 CURVE",
"681 101 LINE",
"581 52 OFFCURVE",
"471 3 OFFCURVE",
"372 3 CURVE",
"262 3 OFFCURVE",
"201 50 OFFCURVE",
"201 156 CURVE",
"201 357 LINE",
"176 357 LINE",
"176 156 LINE",
"176 30 OFFCURVE",
"252 -19 OFFCURVE",
"372 -20 CURVE"
);
},
{
closed = 1;
nodes = (
"188 334 LINE",
"188 357 LINE",
"-5 357 LINE",
"-5 334 LINE"
);
},
{
closed = 1;
nodes = (
"670 29 OFFCURVE",
"697 -20 OFFCURVE",
"760 -20 CURVE SMOOTH",
"827 -20 OFFCURVE",
"850 39 OFFCURVE",
"850 88 CURVE SMOOTH",
"850 102 LINE",
"825 102 LINE",
"825 88 LINE SMOOTH",
"825 38 OFFCURVE",
"804 3 OFFCURVE",
"762 3 CURVE SMOOTH",
"716 3 OFFCURVE",
"695 38 OFFCURVE",
"695 98 CURVE",
"695 357 LINE",
"670 357 LINE",
"670 98 LINE"
);
}
);
width = 870;
},
{
layerId = "FA480B27-EBBD-4830-9868-98507D39050C";
name = Bold;
width = 420;
},
{
layerId = "543F9737-16F7-428D-9F96-2EBD9FC8D3B6";
name = Light;
width = 420;
}
);
leftMetricsKey = "=u";
rightMetricsKey = "=d.alt";
},
{
glyphname = v;
lastChange = "2015-08-01 22:20:26 +0000";
layers = (
{
layerId = "B29C398E-974A-40D0-A0A0-00935056D4B4";
name = "Light Extended";
paths = (
{
closed = 1;
nodes = (
"10 357 LINE",
"10 334 LINE",
"283 334 LINE",
"283 357 LINE"
);
},
{
closed = 1;
nodes = (
"499 357 LINE",
"499 334 LINE",
"773 334 LINE",
"773 357 LINE"
);
},
{
closed = 1;
nodes = (
"655 348 LINE",
"628 348 LINE",
"390 8 LINE",
"152 348 LINE",
"122 348 LINE",
"389 -31 LINE"
);
}
);
width = 783;
},
{
layerId = "FA480B27-EBBD-4830-9868-98507D39050C";
name = Bold;
width = 420;
},
{
layerId = "543F9737-16F7-428D-9F96-2EBD9FC8D3B6";
name = Light;
width = 420;
}
);
unicode = 0076;
},
{
glyphname = w;
lastChange = "2015-08-01 12:21:47 +0000";
layers = (
{
layerId = "B29C398E-974A-40D0-A0A0-00935056D4B4";
name = "Light Extended";
paths = (
{
closed = 1;
nodes = (
"14 357 LINE",
"14 334 LINE",
"266 334 LINE",
"266 357 LINE"
);
},
{
closed = 1;
nodes = (
"353 357 LINE",
"353 335 LINE",
"690 335 LINE",
"690 357 LINE"
);
},
{
closed = 1;
nodes = (
"776 357 LINE",
"776 334 LINE",
"1029 334 LINE",
"1029 357 LINE"
);
},
{
closed = 1;
nodes = (
"635 348 LINE",
"608 348 LINE",
"368 9 LINE",
"156 348 LINE",
"127 348 LINE",
"365 -31 LINE"
);
},
{
closed = 1;
nodes = (
"885 348 LINE",
"673 9 LINE",
"438 348 LINE",
"410 348 LINE",
"673 -31 LINE",
"911 348 LINE"
);
}
);
width = 1043;
},
{
layerId = "FA480B27-EBBD-4830-9868-98507D39050C";
name = Bold;
width = 420;
},
{
layerId = "543F9737-16F7-428D-9F96-2EBD9FC8D3B6";
name = Light;
width = 420;
}
);
unicode = 0077;
},
{
color = 6;
glyphname = x;
lastChange = "2015-08-01 22:04:45 +0000";
layers = (
{
background = {
paths = (
{
closed = 1;
nodes = (
"751 357 LINE",
"442 357 LINE",
"442 333 LINE",
"751 333 LINE"
);
},
{
closed = 1;
nodes = (
"384 189 LINE",
"379 189 LINE",
"90 0 LINE",
"125 0 LINE",
"396 172 LINE",
"400 172 LINE",
"651 350 LINE",
"615 350 LINE"
);
},
{
closed = 1;
nodes = (
"18 0 LINE",
"326 0 LINE",
"326 25 LINE",
"18 25 LINE"
);
},
{
closed = 1;
nodes = (
"389 170 LINE",
"469 63 OFFCURVE",
"519 -20 OFFCURVE",
"613 -20 CURVE SMOOTH",
"711 -20 OFFCURVE",
"752 59 OFFCURVE",
"752 112 CURVE",
"727 112 LINE",
"727 56 OFFCURVE",
"686 4 OFFCURVE",
"615 4 CURVE SMOOTH",
"538 4 OFFCURVE",
"482 85 OFFCURVE",
"405 187 CURVE",
"396 186 LINE",
"315 293 OFFCURVE",
"265 357 OFFCURVE",
"171 357 CURVE SMOOTH",
"74 357 OFFCURVE",
"32 278 OFFCURVE",
"32 225 CURVE",
"57 225 LINE",
"57 281 OFFCURVE",
"98 333 OFFCURVE",
"169 333 CURVE SMOOTH",
"246 333 OFFCURVE",
"302 271 OFFCURVE",
"379 169 CURVE"
);
}
);
};
layerId = "B29C398E-974A-40D0-A0A0-00935056D4B4";
name = "Light Extended";
paths = (
{
closed = 1;
nodes = (
"711 -20 OFFCURVE",
"752 59 OFFCURVE",
"752 112 CURVE",
"727 112 LINE",
"727 55 OFFCURVE",
"686 3 OFFCURVE",
"618 3 CURVE SMOOTH",
"546 3 OFFCURVE",
"493 71 OFFCURVE",
"399 198 CURVE SMOOTH",
"320 305 OFFCURVE",
"265 377 OFFCURVE",
"171 377 CURVE SMOOTH",
"74 377 OFFCURVE",
"32 298 OFFCURVE",
"32 245 CURVE",
"57 245 LINE",
"57 302 OFFCURVE",
"98 354 OFFCURVE",
"169 354 CURVE SMOOTH",
"246 354 OFFCURVE",
"301 292 OFFCURVE",
"380 185 CURVE SMOOTH",
"465 69 OFFCURVE",
"524 -20 OFFCURVE",
"617 -20 CURVE SMOOTH"
);
},
{
closed = 1;
nodes = (
"326 0 LINE",
"326 23 LINE",
"18 23 LINE",
"18 0 LINE"
);
},
{
closed = 1;
nodes = (
"142 9 LINE",
"400 178 LINE",
"402 175 LINE",
"670 348 LINE",
"633 348 LINE",
"387 190 LINE",
"385 193 LINE",
"105 9 LINE"
);
},
{
closed = 1;
nodes = (
"757 334 LINE",
"757 357 LINE",
"449 357 LINE",
"449 334 LINE"
);
}
);
width = 769;
},
{
layerId = "FA480B27-EBBD-4830-9868-98507D39050C";
name = Bold;
width = 420;
},
{
layerId = "543F9737-16F7-428D-9F96-2EBD9FC8D3B6";
name = Light;
width = 420;
}
);
unicode = 0078;
},
{
color = 6;
glyphname = x.alt;
lastChange = "2015-08-01 22:04:45 +0000";
layers = (
{
background = {
paths = (
{
closed = 1;
nodes = (
"270 334 LINE",
"270 357 LINE",
"18 357 LINE",
"18 334 LINE"
);
},
{
closed = 1;
nodes = (
"124 350 LINE",
"355 171 LINE",
"362 171 LINE",
"573 0 LINE",
"610 0 LINE",
"379 186 LINE",
"373 186 LINE",
"161 350 LINE"
);
},
{
closed = 1;
nodes = (
"456 23 LINE",
"456 0 LINE",
"709 0 LINE",
"709 23 LINE"
);
},
{
closed = 1;
nodes = (
"709 357 LINE",
"456 357 LINE",
"456 334 LINE",
"709 334 LINE"
);
},
{
closed = 1;
nodes = (
"18 0 LINE",
"270 0 LINE",
"270 23 LINE",
"18 23 LINE"
);
},
{
closed = 1;
nodes = (
"373 164 LINE",
"379 164 LINE",
"610 350 LINE",
"573 350 LINE",
"362 179 LINE",
"355 179 LINE",
"124 0 LINE",
"161 0 LINE"
);
},
{
closed = 1;
nodes = (
"124 350 LINE",
"573 0 LINE",
"610 0 LINE",
"161 350 LINE"
);
}
);
};
layerId = "B29C398E-974A-40D0-A0A0-00935056D4B4";
name = "Light Extended";
paths = (
{
closed = 1;
nodes = (
"270 334 LINE",
"270 357 LINE",
"18 357 LINE",
"18 334 LINE"
);
},
{
closed = 1;
nodes = (
"456 23 LINE",
"456 0 LINE",
"709 0 LINE",
"709 23 LINE"
);
},
{
closed = 1;
nodes = (
"709 357 LINE",
"456 357 LINE",
"456 334 LINE",
"709 334 LINE"
);
},
{
closed = 1;
nodes = (
"18 0 LINE",
"270 0 LINE",
"270 23 LINE",
"18 23 LINE"
);
},
{
closed = 1;
nodes = (
"270 334 LINE",
"270 357 LINE",
"18 357 LINE",
"18 334 LINE"
);
},
{
closed = 1;
nodes = (
"456 23 LINE",
"456 0 LINE",
"709 0 LINE",
"709 23 LINE"
);
},
{
closed = 1;
nodes = (
"709 357 LINE",
"456 357 LINE",
"456 334 LINE",
"709 334 LINE"
);
},
{
closed = 1;
nodes = (
"18 0 LINE",
"270 0 LINE",
"270 23 LINE",
"18 23 LINE"
);
},
{
closed = 1;
nodes = (
"123 350 LINE",
"354 171 LINE",
"358 171 LINE",
"573 0 LINE",
"609 0 LINE",
"380 183 LINE",
"376 183 LINE",
"159 350 LINE"
);
},
{
closed = 1;
nodes = (
"358 183 LINE",
"354 183 LINE",
"125 0 LINE",
"159 0 LINE",
"374 171 LINE",
"378 171 LINE",
"609 350 LINE",
"575 350 LINE"
);
}
);
width = 727;
},
{
layerId = "FA480B27-EBBD-4830-9868-98507D39050C";
name = Bold;
width = 420;
},
{
layerId = "543F9737-16F7-428D-9F96-2EBD9FC8D3B6";
name = Light;
width = 420;
}
);
},
{
glyphname = y;
lastChange = "2015-08-01 12:21:47 +0000";
layers = (
{
layerId = "B29C398E-974A-40D0-A0A0-00935056D4B4";
name = "Light Extended";
paths = (
{
closed = 1;
nodes = (
"148 348 LINE",
"120 348 LINE",
"364 -44 LINE",
"379 -20 LINE"
);
},
{
closed = 1;
nodes = (
"7 357 LINE",
"7 334 LINE",
"280 334 LINE",
"280 357 LINE"
);
},
{
closed = 1;
nodes = (
"461 357 LINE",
"461 334 LINE",
"734 334 LINE",
"734 357 LINE"
);
},
{
closed = 1;
nodes = (
"613 343 LINE",
"585 343 LINE",
"345 -49 LINE SMOOTH",
"297 -128 OFFCURVE",
"253 -170 OFFCURVE",
"183 -170 CURVE SMOOTH",
"127 -170 OFFCURVE",
"85 -153 OFFCURVE",
"35 -129 CURVE",
"27 -151 LINE",
"79 -173 OFFCURVE",
"118 -193 OFFCURVE",
"182 -193 CURVE SMOOTH",
"269 -193 OFFCURVE",
"320 -134 OFFCURVE",
"373 -48 CURVE SMOOTH"
);
}
);
width = 741;
},
{
layerId = "FA480B27-EBBD-4830-9868-98507D39050C";
name = Bold;
width = 420;
},
{
layerId = "543F9737-16F7-428D-9F96-2EBD9FC8D3B6";
name = Light;
width = 420;
}
);
unicode = 0079;
},
{
color = 6;
glyphname = z;
lastChange = "2015-08-01 22:10:48 +0000";
layers = (
{
background = {
paths = (
{
closed = 1;
nodes = (
"563 260 LINE",
"448 300 OFFCURVE",
"311 353 OFFCURVE",
"95 353 CURVE",
"95 222 LINE",
"70 222 LINE",
"70 375 LINE",
"95 375 LINE SMOOTH",
"326 375 OFFCURVE",
"456 320 OFFCURVE",
"571 279 CURVE"
);
},
{
closed = 1;
nodes = (
"657 361 LINE",
"578 150 OFFCURVE",
"195 200 OFFCURVE",
"74 -29 CURVE",
"53 -18 LINE",
"169 216 OFFCURVE",
"555 166 OFFCURVE",
"635 370 CURVE"
);
},
{
closed = 1;
nodes = (
"680 90 LINE",
"669 20 OFFCURVE",
"613 -31 OFFCURVE",
"504 -31 CURVE SMOOTH",
"407 -31 OFFCURVE",
"246 29 OFFCURVE",
"146 64 CURVE",
"158 85 LINE",
"260 49 OFFCURVE",
"408 -8 OFFCURVE",
"505 -8 CURVE SMOOTH",
"582 -8 OFFCURVE",
"644 26 OFFCURVE",
"657 92 CURVE"
);
},
{
closed = 0;
nodes = (
"537 -20 LINE SMOOTH",
"617 -20 OFFCURVE",
"670 31 OFFCURVE",
"683 99 CURVE",
"662 103 LINE",
"651 34 OFFCURVE",
"597 2 OFFCURVE",
"539 2 CURVE SMOOTH"
);
}
);
};
layerId = "B29C398E-974A-40D0-A0A0-00935056D4B4";
name = "Light Extended";
paths = (
{
closed = 1;
nodes = (
"563 260 LINE",
"448 300 OFFCURVE",
"311 353 OFFCURVE",
"95 353 CURVE",
"95 222 LINE",
"70 222 LINE",
"70 375 LINE",
"95 375 LINE SMOOTH",
"326 375 OFFCURVE",
"456 320 OFFCURVE",
"571 279 CURVE"
);
},
{
closed = 1;
nodes = (
"657 361 LINE",
"578 150 OFFCURVE",
"195 200 OFFCURVE",
"74 -29 CURVE",
"53 -18 LINE",
"169 216 OFFCURVE",
"555 166 OFFCURVE",
"635 370 CURVE"
);
},
{
closed = 1;
nodes = (
"683 100 LINE",
"670 20 OFFCURVE",
"613 -31 OFFCURVE",
"499 -31 CURVE SMOOTH",
"402 -31 OFFCURVE",
"272 15 OFFCURVE",
"142 70 CURVE",
"158 85 LINE",
"286 32 OFFCURVE",
"413 -8 OFFCURVE",
"500 -8 CURVE SMOOTH",
"582 -8 OFFCURVE",
"647 26 OFFCURVE",
"660 104 CURVE"
);
}
);
width = 687;
},
{
layerId = "FA480B27-EBBD-4830-9868-98507D39050C";
name = Bold;
width = 420;
},
{
layerId = "543F9737-16F7-428D-9F96-2EBD9FC8D3B6";
name = Light;
width = 420;
}
);
unicode = 007A;
},
{
glyphname = two.001;
lastChange = "2015-08-15 15:43:52 +0000";
layers = (
{
layerId = "B29C398E-974A-40D0-A0A0-00935056D4B4";
name = "Light Extended";
paths = (
{
closed = 1;
nodes = (
"418 156 LINE SMOOTH",
"544 210 OFFCURVE",
"630 261 OFFCURVE",
"630 343 CURVE SMOOTH",
"630 437 OFFCURVE",
"525 490 OFFCURVE",
"388 490 CURVE SMOOTH",
"262 490 OFFCURVE",
"141 446 OFFCURVE",
"74 353 CURVE",
"91 338 LINE",
"158 426 OFFCURVE",
"273 467 OFFCURVE",
"388 467 CURVE SMOOTH",
"521 467 OFFCURVE",
"605 417 OFFCURVE",
"605 344 CURVE SMOOTH",
"605 276 OFFCURVE",
"537 232 OFFCURVE",
"416 179 CURVE SMOOTH",
"58 23 LINE",
"80 11 LINE"
);
},
{
closed = 1;
nodes = (
"652 0 LINE",
"652 172 LINE",
"628 172 LINE",
"628 23 LINE",
"59 23 LINE",
"59 0 LINE"
);
}
);
width = 736;
},
{
layerId = "543F9737-16F7-428D-9F96-2EBD9FC8D3B6";
name = Light;
width = 420;
},
{
layerId = "FA480B27-EBBD-4830-9868-98507D39050C";
name = Bold;
width = 420;
}
);
},
{
glyphname = seven.001;
lastChange = "2015-08-17 00:38:18 +0000";
layers = (
{
layerId = "B29C398E-974A-40D0-A0A0-00935056D4B4";
name = "Light Extended";
paths = (
{
closed = 1;
nodes = (
"617 382 OFFCURVE",
"537 324 OFFCURVE",
"362 247 CURVE SMOOTH",
"200 176 OFFCURVE",
"141 101 OFFCURVE",
"141 0 CURVE",
"166 0 LINE",
"166 85 OFFCURVE",
"213 154 OFFCURVE",
"372 225 CURVE SMOOTH",
"545 302 OFFCURVE",
"642 367 OFFCURVE",
"642 453 CURVE",
"617 453 LINE"
);
},
{
closed = 1;
nodes = (
"59 470 LINE",
"59 298 LINE",
"83 298 LINE",
"83 447 LINE",
"642 447 LINE",
"642 470 LINE"
);
}
);
width = 642;
},
{
layerId = "FA480B27-EBBD-4830-9868-98507D39050C";
name = Bold;
width = 420;
},
{
layerId = "543F9737-16F7-428D-9F96-2EBD9FC8D3B6";
name = Light;
width = 420;
}
);
},
{
glyphname = zero;
lastChange = "2015-08-15 16:31:35 +0000";
layers = (
{
layerId = "B29C398E-974A-40D0-A0A0-00935056D4B4";
name = "Light Extended";
paths = (
{
closed = 1;
nodes = (
"581 -20 OFFCURVE",
"741 65 OFFCURVE",
"741 236 CURVE",
"741 400 OFFCURVE",
"581 491 OFFCURVE",
"400 491 CURVE",
"219 491 OFFCURVE",
"59 400 OFFCURVE",
"59 236 CURVE",
"59 65 OFFCURVE",
"219 -20 OFFCURVE",
"400 -20 CURVE"
);
},
{
closed = 1;
nodes = (
"231 3 OFFCURVE",
"85 82 OFFCURVE",
"85 236 CURVE",
"85 382 OFFCURVE",
"231 468 OFFCURVE",
"400 468 CURVE",
"570 468 OFFCURVE",
"716 382 OFFCURVE",
"716 236 CURVE",
"716 82 OFFCURVE",
"570 3 OFFCURVE",
"400 3 CURVE"
);
},
{
closed = 1;
nodes = (
"371 265 OFFCURVE",
"354 253 OFFCURVE",
"354 234 CURVE",
"354 217 OFFCURVE",
"371 204 OFFCURVE",
"401 204 CURVE",
"432 204 OFFCURVE",
"448 217 OFFCURVE",
"448 234 CURVE",
"448 253 OFFCURVE",
"432 265 OFFCURVE",
"401 265 CURVE"
);
}
);
width = 801;
},
{
layerId = "543F9737-16F7-428D-9F96-2EBD9FC8D3B6";
name = Light;
width = 420;
},
{
layerId = "FA480B27-EBBD-4830-9868-98507D39050C";
name = Bold;
width = 420;
}
);
unicode = 0030;
},
{
glyphname = one;
lastChange = "2015-08-17 00:34:49 +0000";
layers = (
{
layerId = "B29C398E-974A-40D0-A0A0-00935056D4B4";
name = "Light Extended";
paths = (
{
closed = 1;
nodes = (
"272 0 LINE",
"296 0 LINE",
"296 490 LINE",
"272 490 LINE"
);
},
{
closed = 1;
nodes = (
"74 23 LINE",
"74 0 LINE",
"477 0 LINE",
"477 23 LINE"
);
},
{
closed = 1;
nodes = (
"79 346 LINE",
"178 361 OFFCURVE",
"264 396 OFFCURVE",
"291 485 CURVE",
"272 490 LINE",
"245 414 OFFCURVE",
"163 381 OFFCURVE",
"75 371 CURVE"
);
}
);
width = 512;
},
{
layerId = "543F9737-16F7-428D-9F96-2EBD9FC8D3B6";
name = Light;
width = 420;
},
{
layerId = "FA480B27-EBBD-4830-9868-98507D39050C";
name = Bold;
width = 420;
}
);
unicode = 0031;
},
{
glyphname = two;
lastChange = "2015-08-07 15:57:45 +0000";
layers = (
{
layerId = "B29C398E-974A-40D0-A0A0-00935056D4B4";
name = "Light Extended";
paths = (
{
closed = 1;
nodes = (
"84 118 OFFCURVE",
"162 163 OFFCURVE",
"359 204 CURVE SMOOTH",
"538 241 OFFCURVE",
"640 265 OFFCURVE",
"640 361 CURVE SMOOTH",
"640 457 OFFCURVE",
"515 490 OFFCURVE",
"403 490 CURVE SMOOTH",
"267 490 OFFCURVE",
"172 461 OFFCURVE",
"68 413 CURVE",
"68 386 LINE",
"176 441 OFFCURVE",
"293 467 OFFCURVE",
"403 467 CURVE SMOOTH",
"511 467 OFFCURVE",
"613 437 OFFCURVE",
"615 362 CURVE SMOOTH",
"617 286 OFFCURVE",
"525 263 OFFCURVE",
"349 226 CURVE SMOOTH",
"151 185 OFFCURVE",
"59 133 OFFCURVE",
"59 17 CURVE",
"84 17 LINE"
);
},
{
closed = 1;
nodes = (
"652 0 LINE",
"652 172 LINE",
"628 172 LINE",
"628 23 LINE",
"59 23 LINE",
"59 0 LINE"
);
}
);
width = 736;
},
{
layerId = "543F9737-16F7-428D-9F96-2EBD9FC8D3B6";
name = Light;
width = 420;
},
{
layerId = "FA480B27-EBBD-4830-9868-98507D39050C";
name = Bold;
width = 420;
}
);
unicode = 0032;
},
{
glyphname = three;
lastChange = "2015-08-07 16:22:26 +0000";
layers = (
{
layerId = "B29C398E-974A-40D0-A0A0-00935056D4B4";
name = "Light Extended";
paths = (
{
closed = 1;
nodes = (
"100 91 LINE",
"134 46 OFFCURVE",
"232 -20 OFFCURVE",
"396 -20 CURVE SMOOTH",
"588 -20 OFFCURVE",
"698 39 OFFCURVE",
"698 115 CURVE SMOOTH",
"698 208 OFFCURVE",
"569 234 OFFCURVE",
"403 234 CURVE",
"403 223 LINE",
"570 223 OFFCURVE",
"670 279 OFFCURVE",
"670 352 CURVE SMOOTH",
"670 441 OFFCURVE",
"565 490 OFFCURVE",
"408 490 CURVE SMOOTH",
"297 490 OFFCURVE",
"187 460 OFFCURVE",
"114 392 CURVE",
"129 375 LINE",
"199 439 OFFCURVE",
"297 467 OFFCURVE",
"408 467 CURVE SMOOTH",
"561 467 OFFCURVE",
"645 420 OFFCURVE",
"645 352 CURVE SMOOTH",
"645 292 OFFCURVE",
"568 240 OFFCURVE",
"398 240 CURVE SMOOTH",
"236 240 LINE",
"236 218 LINE",
"398 218 LINE SMOOTH",
"593 218 OFFCURVE",
"673 184 OFFCURVE",
"673 115 CURVE SMOOTH",
"673 50 OFFCURVE",
"567 3 OFFCURVE",
"398 3 CURVE SMOOTH",
"241 3 OFFCURVE",
"151 60 OFFCURVE",
"118 105 CURVE"
);
}
);
width = 795;
},
{
layerId = "FA480B27-EBBD-4830-9868-98507D39050C";
name = Bold;
width = 420;
},
{
layerId = "543F9737-16F7-428D-9F96-2EBD9FC8D3B6";
name = Light;
width = 420;
}
);
unicode = 0033;
},
{
glyphname = four;
lastChange = "2015-08-17 00:40:17 +0000";
layers = (
{
layerId = "B29C398E-974A-40D0-A0A0-00935056D4B4";
name = "Light Extended";
paths = (
{
closed = 1;
nodes = (
"495 490 LINE",
"457 490 LINE",
"10 148 LINE",
"40 140 LINE"
);
},
{
closed = 1;
nodes = (
"653 125 LINE",
"653 148 LINE",
"10 148 LINE",
"10 125 LINE"
);
},
{
closed = 1;
nodes = (
"470 -20 LINE",
"495 -20 LINE",
"495 490 LINE",
"470 490 LINE"
);
}
);
width = 663;
},
{
layerId = "FA480B27-EBBD-4830-9868-98507D39050C";
name = Bold;
width = 420;
},
{
layerId = "543F9737-16F7-428D-9F96-2EBD9FC8D3B6";
name = Light;
width = 420;
}
);
unicode = 0034;
},
{
glyphname = five;
lastChange = "2015-08-17 00:37:49 +0000";
layers = (
{
background = {
paths = (
{
closed = 1;
nodes = (
"533 -27 OFFCURVE",
"693 55 OFFCURVE",
"693 231 CURVE",
"693 400 OFFCURVE",
"533 496 OFFCURVE",
"352 496 CURVE",
"171 496 OFFCURVE",
"11 400 OFFCURVE",
"11 231 CURVE",
"11 55 OFFCURVE",
"171 -27 OFFCURVE",
"352 -27 CURVE"
);
},
{
closed = 1;
nodes = (
"181 -3 OFFCURVE",
"36 73 OFFCURVE",
"36 231 CURVE",
"36 382 OFFCURVE",
"181 472 OFFCURVE",
"352 472 CURVE",
"522 472 OFFCURVE",
"669 382 OFFCURVE",
"669 231 CURVE",
"669 73 OFFCURVE",
"522 -3 OFFCURVE",
"352 -3 CURVE"
);
},
{
closed = 1;
nodes = (
"323 265 OFFCURVE",
"305 253 OFFCURVE",
"305 234 CURVE",
"305 217 OFFCURVE",
"323 204 OFFCURVE",
"353 204 CURVE",
"384 204 OFFCURVE",
"400 217 OFFCURVE",
"400 234 CURVE",
"400 253 OFFCURVE",
"384 265 OFFCURVE",
"353 265 CURVE"
);
}
);
};
layerId = "B29C398E-974A-40D0-A0A0-00935056D4B4";
name = "Light Extended";
paths = (
{
closed = 1;
nodes = (
"102 447 LINE",
"623 447 LINE",
"623 470 LINE",
"102 470 LINE"
);
},
{
closed = 1;
nodes = (
"546 251 OFFCURVE",
"619 211 OFFCURVE",
"617 135 CURVE SMOOTH",
"615 62 OFFCURVE",
"510 4 OFFCURVE",
"381 4 CURVE SMOOTH",
"277 4 OFFCURVE",
"178 32 OFFCURVE",
"84 81 CURVE",
"84 50 LINE",
"174 10 OFFCURVE",
"252 -20 OFFCURVE",
"381 -20 CURVE SMOOTH",
"514 -20 OFFCURVE",
"642 42 OFFCURVE",
"642 136 CURVE SMOOTH",
"642 232 OFFCURVE",
"546 273 OFFCURVE",
"391 275 CURVE SMOOTH",
"277 277 OFFCURVE",
"192 260 OFFCURVE",
"101 244 CURVE",
"101 220 LINE",
"190 237 OFFCURVE",
"270 253 OFFCURVE",
"381 252 CURVE SMOOTH"
);
},
{
closed = 1;
nodes = (
"101 220 LINE",
"125 236 LINE",
"125 470 LINE",
"101 470 LINE"
);
}
);
width = 708;
},
{
layerId = "543F9737-16F7-428D-9F96-2EBD9FC8D3B6";
name = Light;
width = 420;
},
{
layerId = "FA480B27-EBBD-4830-9868-98507D39050C";
name = Bold;
width = 420;
}
);
unicode = 0035;
},
{
glyphname = six;
lastChange = "2015-08-07 15:48:08 +0000";
layers = (
{
layerId = "B29C398E-974A-40D0-A0A0-00935056D4B4";
name = "Light Extended";
paths = (
{
closed = 1;
nodes = (
"612 457 LINE",
"555 473 OFFCURVE",
"494 489 OFFCURVE",
"391 489 CURVE SMOOTH",
"210 489 OFFCURVE",
"63 387 OFFCURVE",
"63 222 CURVE SMOOTH",
"63 72 OFFCURVE",
"175 -20 OFFCURVE",
"366 -20 CURVE SMOOTH",
"524 -20 OFFCURVE",
"652 47 OFFCURVE",
"652 141 CURVE SMOOTH",
"652 237 OFFCURVE",
"546 283 OFFCURVE",
"401 285 CURVE SMOOTH",
"267 287 OFFCURVE",
"158 257 OFFCURVE",
"81 224 CURVE",
"81 200 LINE",
"156 234 OFFCURVE",
"260 263 OFFCURVE",
"391 262 CURVE SMOOTH",
"546 261 OFFCURVE",
"629 216 OFFCURVE",
"627 140 CURVE SMOOTH",
"625 67 OFFCURVE",
"520 4 OFFCURVE",
"366 4 CURVE SMOOTH",
"197 4 OFFCURVE",
"87 89 OFFCURVE",
"87 219 CURVE SMOOTH",
"87 371 OFFCURVE",
"219 465 OFFCURVE",
"391 465 CURVE SMOOTH",
"487 465 OFFCURVE",
"551 449 OFFCURVE",
"606 434 CURVE"
);
}
);
width = 726;
},
{
layerId = "FA480B27-EBBD-4830-9868-98507D39050C";
name = Bold;
width = 420;
},
{
layerId = "543F9737-16F7-428D-9F96-2EBD9FC8D3B6";
name = Light;
width = 420;
}
);
unicode = 0036;
},
{
glyphname = seven;
lastChange = "2015-08-17 00:37:54 +0000";
layers = (
{
layerId = "B29C398E-974A-40D0-A0A0-00935056D4B4";
name = "Light Extended";
paths = (
{
closed = 1;
nodes = (
"207 0 LINE",
"240 0 LINE",
"652 447 LINE",
"624 453 LINE"
);
},
{
closed = 1;
nodes = (
"49 470 LINE",
"49 298 LINE",
"73 298 LINE",
"73 447 LINE",
"652 447 LINE",
"652 470 LINE"
);
}
);
width = 642;
},
{
layerId = "FA480B27-EBBD-4830-9868-98507D39050C";
name = Bold;
width = 420;
},
{
layerId = "543F9737-16F7-428D-9F96-2EBD9FC8D3B6";
name = Light;
width = 420;
}
);
unicode = 0037;
},
{
glyphname = eight;
lastChange = "2015-08-07 15:55:54 +0000";
layers = (
{
background = {
paths = (
{
closed = 1;
nodes = (
"180 227 OFFCURVE",
"129 293 OFFCURVE",
"129 358 CURVE SMOOTH",
"129 429 OFFCURVE",
"219 490 OFFCURVE",
"411 490 CURVE SMOOTH",
"597 490 OFFCURVE",
"688 419 OFFCURVE",
"688 344 CURVE SMOOTH",
"688 284 OFFCURVE",
"629 239 OFFCURVE",
"569 212 CURVE",
"541 219 LINE",
"602 246 OFFCURVE",
"663 285 OFFCURVE",
"663 344 CURVE SMOOTH",
"663 408 OFFCURVE",
"578 467 OFFCURVE",
"409 467 CURVE SMOOTH",
"240 467 OFFCURVE",
"154 418 OFFCURVE",
"154 358 CURVE SMOOTH",
"154 299 OFFCURVE",
"207 252 OFFCURVE",
"409 247 CURVE SMOOTH",
"659 241 OFFCURVE",
"708 178 OFFCURVE",
"708 112 CURVE SMOOTH",
"708 41 OFFCURVE",
"618 -20 OFFCURVE",
"406 -20 CURVE SMOOTH",
"200 -20 OFFCURVE",
"109 51 OFFCURVE",
"109 126 CURVE SMOOTH",
"109 186 OFFCURVE",
"158 231 OFFCURVE",
"228 258 CURVE",
"256 251 LINE",
"185 224 OFFCURVE",
"134 185 OFFCURVE",
"134 126 CURVE SMOOTH",
"134 62 OFFCURVE",
"219 3 OFFCURVE",
"408 3 CURVE SMOOTH",
"597 3 OFFCURVE",
"683 52 OFFCURVE",
"683 112 CURVE SMOOTH",
"683 173 OFFCURVE",
"629 219 OFFCURVE",
"407 223 CURVE SMOOTH"
);
}
);
};
layerId = "B29C398E-974A-40D0-A0A0-00935056D4B4";
name = "Light Extended";
paths = (
{
closed = 1;
nodes = (
"170 227 OFFCURVE",
"109 293 OFFCURVE",
"109 358 CURVE SMOOTH",
"109 429 OFFCURVE",
"209 490 OFFCURVE",
"401 490 CURVE SMOOTH",
"607 490 OFFCURVE",
"708 419 OFFCURVE",
"708 344 CURVE SMOOTH",
"708 279 OFFCURVE",
"644 239 OFFCURVE",
"579 212 CURVE",
"551 219 LINE",
"617 246 OFFCURVE",
"683 280 OFFCURVE",
"683 344 CURVE SMOOTH",
"683 408 OFFCURVE",
"588 467 OFFCURVE",
"399 467 CURVE SMOOTH",
"230 467 OFFCURVE",
"134 418 OFFCURVE",
"134 358 CURVE SMOOTH",
"134 299 OFFCURVE",
"197 252 OFFCURVE",
"409 247 CURVE SMOOTH",
"669 241 OFFCURVE",
"728 178 OFFCURVE",
"728 112 CURVE SMOOTH",
"728 41 OFFCURVE",
"628 -20 OFFCURVE",
"416 -20 CURVE SMOOTH",
"190 -20 OFFCURVE",
"89 51 OFFCURVE",
"89 126 CURVE SMOOTH",
"89 191 OFFCURVE",
"143 231 OFFCURVE",
"218 258 CURVE",
"246 251 LINE",
"170 224 OFFCURVE",
"114 190 OFFCURVE",
"114 126 CURVE SMOOTH",
"114 62 OFFCURVE",
"209 3 OFFCURVE",
"418 3 CURVE SMOOTH",
"607 3 OFFCURVE",
"703 52 OFFCURVE",
"703 112 CURVE SMOOTH",
"703 173 OFFCURVE",
"639 219 OFFCURVE",
"407 223 CURVE SMOOTH"
);
}
);
width = 829;
},
{
layerId = "FA480B27-EBBD-4830-9868-98507D39050C";
name = Bold;
width = 420;
},
{
layerId = "543F9737-16F7-428D-9F96-2EBD9FC8D3B6";
name = Light;
width = 420;
}
);
unicode = 0038;
},
{
glyphname = nine;
lastChange = "2015-08-07 15:48:17 +0000";
layers = (
{
layerId = "B29C398E-974A-40D0-A0A0-00935056D4B4";
name = "Light Extended";
paths = (
{
closed = 1;
nodes = (
"103 12 LINE",
"160 -4 OFFCURVE",
"221 -20 OFFCURVE",
"324 -20 CURVE SMOOTH",
"505 -20 OFFCURVE",
"652 82 OFFCURVE",
"652 247 CURVE SMOOTH",
"652 397 OFFCURVE",
"540 489 OFFCURVE",
"349 489 CURVE SMOOTH",
"191 489 OFFCURVE",
"63 422 OFFCURVE",
"63 328 CURVE SMOOTH",
"63 232 OFFCURVE",
"169 186 OFFCURVE",
"314 184 CURVE SMOOTH",
"448 182 OFFCURVE",
"557 212 OFFCURVE",
"634 245 CURVE",
"634 269 LINE",
"559 235 OFFCURVE",
"455 206 OFFCURVE",
"324 207 CURVE SMOOTH",
"169 208 OFFCURVE",
"86 253 OFFCURVE",
"88 329 CURVE SMOOTH",
"90 402 OFFCURVE",
"195 465 OFFCURVE",
"349 465 CURVE SMOOTH",
"518 465 OFFCURVE",
"628 380 OFFCURVE",
"628 250 CURVE SMOOTH",
"628 98 OFFCURVE",
"496 4 OFFCURVE",
"324 4 CURVE SMOOTH",
"228 4 OFFCURVE",
"164 20 OFFCURVE",
"109 35 CURVE"
);
}
);
width = 705;
},
{
layerId = "FA480B27-EBBD-4830-9868-98507D39050C";
name = Bold;
width = 420;
},
{
layerId = "543F9737-16F7-428D-9F96-2EBD9FC8D3B6";
name = Light;
width = 420;
}
);
unicode = 0039;
},
{
glyphname = two.alt;
lastChange = "2015-08-01 12:21:47 +0000";
layers = (
{
layerId = "B29C398E-974A-40D0-A0A0-00935056D4B4";
name = "Light Extended";
paths = (
{
closed = 1;
nodes = (
"634 123 LINE",
"624 46 OFFCURVE",
"581 4 OFFCURVE",
"496 4 CURVE SMOOTH",
"389 4 OFFCURVE",
"285 58 OFFCURVE",
"181 121 CURVE",
"169 100 LINE",
"272 38 OFFCURVE",
"384 -20 OFFCURVE",
"495 -20 CURVE SMOOTH",
"600 -20 OFFCURVE",
"649 41 OFFCURVE",
"658 120 CURVE"
);
},
{
closed = 1;
nodes = (
"575 258 OFFCURVE",
"447 218 OFFCURVE",
"322 184 CURVE SMOOTH",
"182 146 OFFCURVE",
"104 106 OFFCURVE",
"46 -15 CURVE",
"65 -26 LINE",
"126 89 OFFCURVE",
"192 125 OFFCURVE",
"328 162 CURVE SMOOTH",
"461 198 OFFCURVE",
"599 245 OFFCURVE",
"599 355 CURVE SMOOTH",
"599 444 OFFCURVE",
"503 491 OFFCURVE",
"371 491 CURVE SMOOTH",
"251 491 OFFCURVE",
"139 451 OFFCURVE",
"48 382 CURVE",
"48 351 LINE",
"142 429 OFFCURVE",
"259 468 OFFCURVE",
"371 468 CURVE SMOOTH",
"498 468 OFFCURVE",
"575 424 OFFCURVE",
"575 356 CURVE SMOOTH"
);
}
);
width = 725;
},
{
layerId = "543F9737-16F7-428D-9F96-2EBD9FC8D3B6";
name = Light;
width = 420;
},
{
layerId = "FA480B27-EBBD-4830-9868-98507D39050C";
name = Bold;
width = 420;
}
);
},
{
glyphname = five.alt;
lastChange = "2015-08-17 00:39:37 +0000";
layers = (
{
layerId = "B29C398E-974A-40D0-A0A0-00935056D4B4";
name = "Light Extended";
paths = (
{
closed = 1;
nodes = (
"84 447 LINE",
"578 447 LINE",
"578 470 LINE",
"84 470 LINE"
);
},
{
closed = 1;
nodes = (
"109 191 LINE",
"109 470 LINE",
"85 470 LINE",
"84 177 LINE",
"170 200 OFFCURVE",
"259 223 OFFCURVE",
"370 223 CURVE SMOOTH",
"488 223 OFFCURVE",
"567 182 OFFCURVE",
"565 91 CURVE SMOOTH",
"562 -20 OFFCURVE",
"378 -107 OFFCURVE",
"97 -93 CURVE",
"97 -116 LINE",
"383 -130 OFFCURVE",
"590 -40 OFFCURVE",
"590 92 CURVE SMOOTH",
"590 203 OFFCURVE",
"492 247 OFFCURVE",
"370 247 CURVE SMOOTH",
"259 247 OFFCURVE",
"171 224 OFFCURVE",
"89 202 CURVE"
);
}
);
width = 628;
},
{
layerId = "543F9737-16F7-428D-9F96-2EBD9FC8D3B6";
name = Light;
width = 420;
},
{
layerId = "FA480B27-EBBD-4830-9868-98507D39050C";
name = Bold;
width = 420;
}
);
},
{
glyphname = two.alt2;
lastChange = "2015-08-01 12:21:47 +0000";
layers = (
{
layerId = "B29C398E-974A-40D0-A0A0-00935056D4B4";
name = "Light Extended";
paths = (
{
closed = 1;
nodes = (
"275 29 OFFCURVE",
"392 -20 OFFCURVE",
"596 -20 CURVE SMOOTH",
"620 -20 LINE",
"620 134 LINE",
"596 134 LINE",
"596 3 LINE",
"407 3 OFFCURVE",
"284 52 OFFCURVE",
"155 115 CURVE",
"146 94 LINE"
);
},
{
closed = 1;
nodes = (
"575 260 OFFCURVE",
"447 218 OFFCURVE",
"322 184 CURVE SMOOTH",
"182 146 OFFCURVE",
"104 106 OFFCURVE",
"46 -15 CURVE",
"65 -26 LINE",
"126 89 OFFCURVE",
"192 125 OFFCURVE",
"328 162 CURVE SMOOTH",
"461 198 OFFCURVE",
"599 247 OFFCURVE",
"599 354 CURVE SMOOTH",
"599 443 OFFCURVE",
"503 490 OFFCURVE",
"371 490 CURVE SMOOTH",
"251 490 OFFCURVE",
"139 451 OFFCURVE",
"48 381 CURVE",
"48 350 LINE",
"142 428 OFFCURVE",
"259 467 OFFCURVE",
"371 467 CURVE SMOOTH",
"498 467 OFFCURVE",
"575 423 OFFCURVE",
"575 354 CURVE SMOOTH"
);
}
);
width = 687;
},
{
layerId = "543F9737-16F7-428D-9F96-2EBD9FC8D3B6";
name = Light;
width = 420;
},
{
layerId = "FA480B27-EBBD-4830-9868-98507D39050C";
name = Bold;
width = 420;
}
);
},
{
glyphname = asterisk;
lastChange = "2015-08-01 12:21:47 +0000";
layers = (
{
background = {
paths = (
{
closed = 1;
nodes = (
"141 547 OFFCURVE",
"155 510 OFFCURVE",
"158 482 CURVE SMOOTH",
"160 458 LINE",
"171 458 LINE",
"173 482 LINE SMOOTH",
"175 510 OFFCURVE",
"190 547 OFFCURVE",
"190 561 CURVE SMOOTH",
"190 573 OFFCURVE",
"182 585 OFFCURVE",
"166 585 CURVE",
"149 585 OFFCURVE",
"141 573 OFFCURVE",
"141 561 CURVE SMOOTH"
);
},
{
closed = 1;
nodes = (
"222 330 OFFCURVE",
"220 288 OFFCURVE",
"249 288 CURVE SMOOTH",
"264 288 OFFCURVE",
"274 299 OFFCURVE",
"274 312 CURVE SMOOTH",
"274 337 OFFCURVE",
"232 351 OFFCURVE",
"207 379 CURVE SMOOTH",
"190 396 LINE",
"182 390 LINE",
"195 370 LINE SMOOTH"
);
},
{
closed = 1;
nodes = (
"111 288 OFFCURVE",
"109 330 OFFCURVE",
"136 370 CURVE SMOOTH",
"149 390 LINE",
"141 396 LINE",
"125 379 LINE SMOOTH",
"99 351 OFFCURVE",
"57 337 OFFCURVE",
"57 312 CURVE SMOOTH",
"57 299 OFFCURVE",
"67 288 OFFCURVE",
"82 288 CURVE SMOOTH"
);
},
{
closed = 1;
nodes = (
"83 457 OFFCURVE",
"56 489 OFFCURVE",
"33 487 CURVE SMOOTH",
"20 486 OFFCURVE",
"11 474 OFFCURVE",
"13 461 CURVE SMOOTH",
"15 428 OFFCURVE",
"62 442 OFFCURVE",
"109 431 CURVE SMOOTH",
"132 425 LINE",
"135 435 LINE",
"114 445 LINE SMOOTH"
);
},
{
closed = 1;
nodes = (
"196 435 LINE",
"199 425 LINE",
"222 431 LINE SMOOTH",
"270 442 OFFCURVE",
"316 428 OFFCURVE",
"319 461 CURVE SMOOTH",
"320 474 OFFCURVE",
"311 486 OFFCURVE",
"298 487 CURVE SMOOTH",
"275 489 OFFCURVE",
"248 457 OFFCURVE",
"217 445 CURVE SMOOTH"
);
}
);
};
layerId = "B29C398E-974A-40D0-A0A0-00935056D4B4";
name = "Light Extended";
paths = (
{
closed = 1;
nodes = (
"137 553 OFFCURVE",
"153 515 OFFCURVE",
"156 485 CURVE SMOOTH",
"158 461 LINE",
"172 461 LINE",
"174 485 LINE SMOOTH",
"177 514 OFFCURVE",
"195 553 OFFCURVE",
"195 568 CURVE SMOOTH",
"195 581 OFFCURVE",
"185 593 OFFCURVE",
"166 594 CURVE",
"145 593 OFFCURVE",
"137 581 OFFCURVE",
"137 568 CURVE SMOOTH"
);
},
{
closed = 1;
nodes = (
"233 325 OFFCURVE",
"231 281 OFFCURVE",
"266 281 CURVE SMOOTH",
"284 281 OFFCURVE",
"295 292 OFFCURVE",
"295 305 CURVE SMOOTH",
"295 332 OFFCURVE",
"246 347 OFFCURVE",
"214 377 CURVE SMOOTH",
"195 395 LINE",
"185 388 LINE",
"201 367 LINE SMOOTH"
);
},
{
closed = 1;
nodes = (
"99 281 OFFCURVE",
"97 325 OFFCURVE",
"129 367 CURVE SMOOTH",
"145 388 LINE",
"136 395 LINE",
"115 377 LINE SMOOTH",
"85 347 OFFCURVE",
"35 332 OFFCURVE",
"35 305 CURVE SMOOTH",
"35 292 OFFCURVE",
"47 281 OFFCURVE",
"64 281 CURVE SMOOTH"
);
},
{
closed = 1;
nodes = (
"66 458 OFFCURVE",
"35 491 OFFCURVE",
"9 491 CURVE SMOOTH",
"-8 491 OFFCURVE",
"-19 480 OFFCURVE",
"-19 465 CURVE SMOOTH",
"-19 428 OFFCURVE",
"39 443 OFFCURVE",
"97 431 CURVE SMOOTH",
"125 425 LINE",
"128 436 LINE",
"104 445 LINE SMOOTH"
);
},
{
closed = 1;
nodes = (
"202 436 LINE",
"206 425 LINE",
"233 431 LINE SMOOTH",
"292 443 OFFCURVE",
"349 428 OFFCURVE",
"349 465 CURVE SMOOTH",
"349 480 OFFCURVE",
"338 491 OFFCURVE",
"321 491 CURVE SMOOTH",
"295 491 OFFCURVE",
"265 458 OFFCURVE",
"227 445 CURVE SMOOTH"
);
}
);
width = 331;
},
{
layerId = "543F9737-16F7-428D-9F96-2EBD9FC8D3B6";
name = Light;
width = 420;
},
{
layerId = "FA480B27-EBBD-4830-9868-98507D39050C";
name = Bold;
width = 420;
}
);
unicode = 002A;
},
{
glyphname = backslash;
lastChange = "2015-08-01 12:21:47 +0000";
layers = (
{
layerId = "B29C398E-974A-40D0-A0A0-00935056D4B4";
name = "Light Extended";
paths = (
{
closed = 1;
nodes = (
"396 -79 LINE",
"63 561 LINE",
"35 561 LINE",
"368 -79 LINE"
);
}
);
width = 417;
},
{
layerId = "543F9737-16F7-428D-9F96-2EBD9FC8D3B6";
name = Light;
width = 420;
},
{
layerId = "FA480B27-EBBD-4830-9868-98507D39050C";
name = Bold;
width = 420;
}
);
unicode = 005C;
},
{
glyphname = periodcentered;
lastChange = "2015-08-01 12:21:47 +0000";
layers = (
{
layerId = "B29C398E-974A-40D0-A0A0-00935056D4B4";
name = "Light Extended";
paths = (
{
closed = 1;
nodes = (
"92 267 OFFCURVE",
"74 253 OFFCURVE",
"74 234 CURVE",
"74 216 OFFCURVE",
"92 203 OFFCURVE",
"123 203 CURVE",
"155 203 OFFCURVE",
"172 216 OFFCURVE",
"172 234 CURVE",
"172 253 OFFCURVE",
"155 267 OFFCURVE",
"123 267 CURVE"
);
}
);
width = 246;
},
{
layerId = "543F9737-16F7-428D-9F96-2EBD9FC8D3B6";
name = Light;
width = 420;
},
{
layerId = "FA480B27-EBBD-4830-9868-98507D39050C";
name = Bold;
width = 420;
}
);
unicode = 00B7;
},
{
color = 6;
glyphname = comma;
lastChange = "2015-08-01 22:17:03 +0000";
layers = (
{
background = {
paths = (
{
closed = 1;
nodes = (
"188 25 OFFCURVE",
"169 45 OFFCURVE",
"132 45 CURVE SMOOTH",
"101 45 OFFCURVE",
"82 30 OFFCURVE",
"82 11 CURVE SMOOTH",
"82 -8 OFFCURVE",
"100 -20 OFFCURVE",
"125 -20 CURVE SMOOTH",
"140 -20 OFFCURVE",
"153 -18 OFFCURVE",
"165 -15 CURVE",
"158 -59 OFFCURVE",
"117 -103 OFFCURVE",
"67 -148 CURVE",
"78 -160 LINE",
"139 -112 OFFCURVE",
"188 -50 OFFCURVE",
"188 -7 CURVE SMOOTH"
);
}
);
};
layerId = "B29C398E-974A-40D0-A0A0-00935056D4B4";
name = "Light Extended";
paths = (
{
closed = 1;
nodes = (
"186 25 OFFCURVE",
"167 45 OFFCURVE",
"132 45 CURVE SMOOTH",
"101 45 OFFCURVE",
"82 30 OFFCURVE",
"82 11 CURVE SMOOTH",
"82 -8 OFFCURVE",
"100 -20 OFFCURVE",
"125 -20 CURVE SMOOTH",
"140 -20 OFFCURVE",
"153 -18 OFFCURVE",
"165 -15 CURVE",
"158 -59 OFFCURVE",
"117 -103 OFFCURVE",
"67 -148 CURVE",
"78 -160 LINE",
"139 -112 OFFCURVE",
"186 -50 OFFCURVE",
"186 -7 CURVE SMOOTH"
);
}
);
width = 262;
},
{
layerId = "543F9737-16F7-428D-9F96-2EBD9FC8D3B6";
name = Light;
width = 420;
},
{
layerId = "FA480B27-EBBD-4830-9868-98507D39050C";
name = Bold;
width = 420;
}
);
unicode = 002C;
},
{
glyphname = exclam;
lastChange = "2015-08-01 12:21:47 +0000";
layers = (
{
components = (
{
name = period;
}
);
guideLines = (
{
angle = 90;
position = "{136, 230}";
}
);
layerId = "B29C398E-974A-40D0-A0A0-00935056D4B4";
name = "Light Extended";
paths = (
{
closed = 1;
nodes = (
"111 272 CURVE SMOOTH",
"115 148 LINE",
"132 148 LINE",
"136 272 LINE SMOOTH",
"141 423 OFFCURVE",
"154 524 OFFCURVE",
"154 542 CURVE",
"154 559 OFFCURVE",
"145 573 OFFCURVE",
"124 573 CURVE",
"102 573 OFFCURVE",
"93 559 OFFCURVE",
"93 542 CURVE",
"93 524 OFFCURVE",
"106 424 OFFCURVE"
);
}
);
width = 246;
},
{
layerId = "543F9737-16F7-428D-9F96-2EBD9FC8D3B6";
name = Light;
width = 420;
},
{
layerId = "FA480B27-EBBD-4830-9868-98507D39050C";
name = Bold;
width = 420;
}
);
unicode = 0021;
},
{
glyphname = numbersign;
lastChange = "2015-08-01 12:21:47 +0000";
layers = (
{
layerId = "B29C398E-974A-40D0-A0A0-00935056D4B4";
name = "Light Extended";
paths = (
{
closed = 1;
nodes = (
"622 490 LINE",
"597 490 LINE",
"419 0 LINE",
"443 0 LINE"
);
},
{
closed = 1;
nodes = (
"328 490 LINE",
"303 490 LINE",
"125 0 LINE",
"149 0 LINE"
);
},
{
closed = 1;
nodes = (
"49 332 LINE",
"748 332 LINE",
"748 355 LINE",
"49 355 LINE"
);
},
{
closed = 1;
nodes = (
"0 152 LINE",
"699 152 LINE",
"699 175 LINE",
"0 175 LINE"
);
}
);
width = 748;
},
{
layerId = "543F9737-16F7-428D-9F96-2EBD9FC8D3B6";
name = Light;
width = 420;
},
{
layerId = "FA480B27-EBBD-4830-9868-98507D39050C";
name = Bold;
width = 420;
}
);
unicode = 0023;
},
{
glyphname = period;
lastChange = "2015-08-01 12:21:47 +0000";
layers = (
{
layerId = "B29C398E-974A-40D0-A0A0-00935056D4B4";
name = "Light Extended";
paths = (
{
closed = 1;
nodes = (
"92 44 OFFCURVE",
"74 31 OFFCURVE",
"74 12 CURVE",
"74 -6 OFFCURVE",
"92 -20 OFFCURVE",
"123 -20 CURVE",
"155 -20 OFFCURVE",
"172 -6 OFFCURVE",
"172 12 CURVE",
"172 31 OFFCURVE",
"155 44 OFFCURVE",
"123 44 CURVE"
);
}
);
width = 246;
},
{
layerId = "543F9737-16F7-428D-9F96-2EBD9FC8D3B6";
name = Light;
width = 420;
},
{
layerId = "FA480B27-EBBD-4830-9868-98507D39050C";
name = Bold;
width = 420;
}
);
unicode = 002E;
},
{
glyphname = question;
lastChange = "2015-08-01 12:21:47 +0000";
layers = (
{
background = {
paths = (
{
closed = 0;
nodes = (
"255 272 LINE SMOOTH",
"259 148 LINE",
"275 148 LINE",
"279 272 LINE SMOOTH"
);
}
);
};
layerId = "B29C398E-974A-40D0-A0A0-00935056D4B4";
name = "Light Extended";
paths = (
{
closed = 1;
nodes = (
"213 44 OFFCURVE",
"195 31 OFFCURVE",
"195 12 CURVE",
"195 -6 OFFCURVE",
"213 -20 OFFCURVE",
"244 -20 CURVE",
"277 -20 OFFCURVE",
"293 -6 OFFCURVE",
"293 12 CURVE",
"293 31 OFFCURVE",
"277 44 OFFCURVE",
"244 44 CURVE"
);
},
{
closed = 1;
nodes = (
"226 129 CURVE",
"240 132 LINE",
"223 167 OFFCURVE",
"217 187 OFFCURVE",
"217 210 CURVE SMOOTH",
"217 285 OFFCURVE",
"474 285 OFFCURVE",
"474 416 CURVE SMOOTH",
"474 491 OFFCURVE",
"391 517 OFFCURVE",
"301 517 CURVE SMOOTH",
"204 517 OFFCURVE",
"114 497 OFFCURVE",
"42 471 CURVE",
"42 444 LINE",
"115 472 OFFCURVE",
"204 494 OFFCURVE",
"301 494 CURVE SMOOTH",
"384 494 OFFCURVE",
"449 471 OFFCURVE",
"449 417 CURVE SMOOTH",
"449 305 OFFCURVE",
"194 303 OFFCURVE",
"194 216 CURVE SMOOTH",
"194 193 OFFCURVE",
"202 169 OFFCURVE"
);
}
);
width = 523;
},
{
layerId = "543F9737-16F7-428D-9F96-2EBD9FC8D3B6";
name = Light;
width = 420;
},
{
layerId = "FA480B27-EBBD-4830-9868-98507D39050C";
name = Bold;
width = 420;
}
);
unicode = 003F;
},
{
color = 6;
glyphname = quotesingle;
lastChange = "2015-08-01 22:17:18 +0000";
layers = (
{
layerId = "B29C398E-974A-40D0-A0A0-00935056D4B4";
name = "Light Extended";
paths = (
{
closed = 1;
nodes = (
"186 540 OFFCURVE",
"167 560 OFFCURVE",
"132 560 CURVE SMOOTH",
"101 560 OFFCURVE",
"82 545 OFFCURVE",
"82 526 CURVE SMOOTH",
"82 507 OFFCURVE",
"100 496 OFFCURVE",
"125 496 CURVE SMOOTH",
"140 496 OFFCURVE",
"153 498 OFFCURVE",
"165 500 CURVE",
"158 456 OFFCURVE",
"117 412 OFFCURVE",
"67 367 CURVE",
"78 355 LINE",
"139 403 OFFCURVE",
"186 465 OFFCURVE",
"186 508 CURVE SMOOTH"
);
}
);
width = 262;
},
{
layerId = "543F9737-16F7-428D-9F96-2EBD9FC8D3B6";
name = Light;
width = 420;
},
{
layerId = "FA480B27-EBBD-4830-9868-98507D39050C";
name = Bold;
width = 420;
}
);
unicode = 0027;
},
{
color = 6;
glyphname = semicolon;
lastChange = "2015-08-01 22:17:30 +0000";
layers = (
{
components = (
{
name = period;
transform = "{1, 0, 0, 1, 4, 311}";
}
);
layerId = "B29C398E-974A-40D0-A0A0-00935056D4B4";
name = "Light Extended";
paths = (
{
closed = 1;
nodes = (
"186 25 OFFCURVE",
"167 45 OFFCURVE",
"132 45 CURVE SMOOTH",
"101 45 OFFCURVE",
"82 30 OFFCURVE",
"82 11 CURVE SMOOTH",
"82 -8 OFFCURVE",
"100 -20 OFFCURVE",
"125 -20 CURVE SMOOTH",
"140 -20 OFFCURVE",
"153 -18 OFFCURVE",
"165 -15 CURVE",
"158 -59 OFFCURVE",
"117 -103 OFFCURVE",
"67 -148 CURVE",
"78 -160 LINE",
"139 -112 OFFCURVE",
"186 -50 OFFCURVE",
"186 -7 CURVE SMOOTH"
);
}
);
width = 249;
},
{
layerId = "543F9737-16F7-428D-9F96-2EBD9FC8D3B6";
name = Light;
width = 420;
},
{
layerId = "FA480B27-EBBD-4830-9868-98507D39050C";
name = Bold;
width = 420;
}
);
unicode = 003B;
},
{
glyphname = slash;
lastChange = "2015-08-01 12:21:47 +0000";
layers = (
{
layerId = "B29C398E-974A-40D0-A0A0-00935056D4B4";
name = "Light Extended";
paths = (
{
closed = 1;
nodes = (
"382 561 LINE",
"354 561 LINE",
"21 -79 LINE",
"49 -79 LINE"
);
}
);
width = 417;
},
{
layerId = "543F9737-16F7-428D-9F96-2EBD9FC8D3B6";
name = Light;
width = 420;
},
{
layerId = "FA480B27-EBBD-4830-9868-98507D39050C";
name = Bold;
width = 420;
}
);
unicode = 002F;
},
{
glyphname = underscore;
lastChange = "2015-08-01 12:21:47 +0000";
layers = (
{
layerId = "B29C398E-974A-40D0-A0A0-00935056D4B4";
name = "Light Extended";
paths = (
{
closed = 1;
nodes = (
"-35 -67 LINE",
"-35 -91 LINE",
"385 -91 LINE",
"385 -67 LINE"
);
}
);
width = 350;
},
{
layerId = "543F9737-16F7-428D-9F96-2EBD9FC8D3B6";
name = Light;
width = 420;
},
{
layerId = "FA480B27-EBBD-4830-9868-98507D39050C";
name = Bold;
width = 420;
}
);
unicode = 005F;
},
{
glyphname = braceleft;
lastChange = "2015-08-15 16:25:26 +0000";
layers = (
{
background = {
paths = (
{
closed = 1;
nodes = (
"10 228 LINE",
"102 228 LINE SMOOTH",
"190 228 OFFCURVE",
"206 192 OFFCURVE",
"206 149 CURVE SMOOTH",
"206 106 OFFCURVE",
"163 48 OFFCURVE",
"163 -11 CURVE SMOOTH",
"163 -87 OFFCURVE",
"229 -132 OFFCURVE",
"324 -131 CURVE SMOOTH",
"371 -131 OFFCURVE",
"409 -128 OFFCURVE",
"445 -125 CURVE",
"443 -103 LINE",
"409 -106 OFFCURVE",
"372 -108 OFFCURVE",
"325 -108 CURVE SMOOTH",
"249 -108 OFFCURVE",
"185 -81 OFFCURVE",
"185 -6 CURVE SMOOTH",
"185 42 OFFCURVE",
"227 100 OFFCURVE",
"227 149 CURVE SMOOTH",
"227 198 OFFCURVE",
"204 244 OFFCURVE",
"116 244 CURVE",
"116 235 LINE",
"204 235 OFFCURVE",
"227 281 OFFCURVE",
"227 330 CURVE SMOOTH",
"227 379 OFFCURVE",
"185 437 OFFCURVE",
"185 485 CURVE SMOOTH",
"185 560 OFFCURVE",
"249 587 OFFCURVE",
"325 587 CURVE SMOOTH",
"372 587 OFFCURVE",
"409 585 OFFCURVE",
"443 582 CURVE",
"445 604 LINE",
"409 607 OFFCURVE",
"371 610 OFFCURVE",
"324 610 CURVE SMOOTH",
"229 611 OFFCURVE",
"163 566 OFFCURVE",
"163 490 CURVE SMOOTH",
"163 431 OFFCURVE",
"206 373 OFFCURVE",
"206 330 CURVE SMOOTH",
"206 287 OFFCURVE",
"190 251 OFFCURVE",
"102 251 CURVE SMOOTH",
"10 251 LINE"
);
}
);
};
layerId = "B29C398E-974A-40D0-A0A0-00935056D4B4";
name = "Light Extended";
paths = (
{
closed = 1;
nodes = (
"234 235 OFFCURVE",
"300 271 OFFCURVE",
"300 324 CURVE SMOOTH",
"300 419 OFFCURVE",
"113 404 OFFCURVE",
"113 504 CURVE SMOOTH",
"113 577 OFFCURVE",
"217 601 OFFCURVE",
"298 601 CURVE SMOOTH",
"347 601 OFFCURVE",
"405 598 OFFCURVE",
"444 594 CURVE",
"444 617 LINE",
"401 622 OFFCURVE",
"341 625 OFFCURVE",
"290 625 CURVE SMOOTH",
"194 625 OFFCURVE",
"88 592 OFFCURVE",
"88 507 CURVE SMOOTH",
"88 385 OFFCURVE",
"276 398 OFFCURVE",
"276 325 CURVE SMOOTH",
"276 282 OFFCURVE",
"230 251 OFFCURVE",
"132 251 CURVE SMOOTH",
"70 251 LINE",
"70 229 LINE",
"132 229 LINE SMOOTH",
"230 229 OFFCURVE",
"276 198 OFFCURVE",
"276 155 CURVE SMOOTH",
"276 87 OFFCURVE",
"88 90 OFFCURVE",
"88 -27 CURVE SMOOTH",
"88 -112 OFFCURVE",
"194 -145 OFFCURVE",
"290 -145 CURVE SMOOTH",
"341 -145 OFFCURVE",
"401 -142 OFFCURVE",
"444 -137 CURVE",
"444 -114 LINE",
"405 -118 OFFCURVE",
"347 -121 OFFCURVE",
"298 -121 CURVE SMOOTH",
"217 -121 OFFCURVE",
"113 -97 OFFCURVE",
"113 -24 CURVE SMOOTH",
"113 76 OFFCURVE",
"300 61 OFFCURVE",
"300 156 CURVE SMOOTH",
"300 209 OFFCURVE",
"234 245 OFFCURVE",
"146 245 CURVE",
"146 235 LINE"
);
}
);
width = 430;
},
{
layerId = "543F9737-16F7-428D-9F96-2EBD9FC8D3B6";
name = Light;
width = 420;
},
{
layerId = "FA480B27-EBBD-4830-9868-98507D39050C";
name = Bold;
width = 420;
}
);
unicode = 007B;
},
{
glyphname = bracketleft;
lastChange = "2015-08-01 12:21:47 +0000";
layers = (
{
layerId = "B29C398E-974A-40D0-A0A0-00935056D4B4";
name = "Light Extended";
paths = (
{
closed = 1;
nodes = (
"84 -96 LINE",
"109 -96 LINE",
"109 584 LINE",
"84 584 LINE"
);
},
{
closed = 1;
nodes = (
"86 561 LINE",
"308 561 LINE",
"308 584 LINE",
"86 584 LINE"
);
},
{
closed = 1;
nodes = (
"86 -96 LINE",
"308 -96 LINE",
"308 -73 LINE",
"86 -73 LINE"
);
}
);
width = 336;
},
{
layerId = "543F9737-16F7-428D-9F96-2EBD9FC8D3B6";
name = Light;
width = 420;
},
{
layerId = "FA480B27-EBBD-4830-9868-98507D39050C";
name = Bold;
width = 420;
}
);
unicode = 005B;
},
{
glyphname = parenleft;
lastChange = "2015-08-15 15:46:16 +0000";
layers = (
{
layerId = "B29C398E-974A-40D0-A0A0-00935056D4B4";
name = "Light Extended";
paths = (
{
closed = 1;
nodes = (
"84 49 OFFCURVE",
"214 -64 OFFCURVE",
"298 -109 CURVE",
"306 -90 LINE",
"233 -46 OFFCURVE",
"109 57 OFFCURVE",
"109 245 CURVE",
"109 433 OFFCURVE",
"233 536 OFFCURVE",
"306 580 CURVE",
"298 599 LINE",
"214 554 OFFCURVE",
"84 441 OFFCURVE",
"84 245 CURVE"
);
}
);
width = 334;
},
{
layerId = "543F9737-16F7-428D-9F96-2EBD9FC8D3B6";
name = Light;
width = 420;
},
{
layerId = "FA480B27-EBBD-4830-9868-98507D39050C";
name = Bold;
width = 420;
}
);
unicode = 0028;
},
{
glyphname = emdash;
lastChange = "2015-08-01 12:21:47 +0000";
layers = (
{
layerId = "B29C398E-974A-40D0-A0A0-00935056D4B4";
name = "Light Extended";
paths = (
{
closed = 1;
nodes = (
"28 190 LINE",
"28 167 LINE",
"854 167 LINE",
"854 190 LINE"
);
}
);
width = 882;
},
{
layerId = "543F9737-16F7-428D-9F96-2EBD9FC8D3B6";
name = Light;
width = 420;
},
{
layerId = "FA480B27-EBBD-4830-9868-98507D39050C";
name = Bold;
width = 420;
}
);
unicode = 2014;
},
{
glyphname = endash;
lastChange = "2015-08-01 12:21:47 +0000";
layers = (
{
layerId = "B29C398E-974A-40D0-A0A0-00935056D4B4";
name = "Light Extended";
paths = (
{
closed = 1;
nodes = (
"28 190 LINE",
"28 167 LINE",
"567 167 LINE",
"567 190 LINE"
);
}
);
width = 595;
},
{
layerId = "543F9737-16F7-428D-9F96-2EBD9FC8D3B6";
name = Light;
width = 420;
},
{
layerId = "FA480B27-EBBD-4830-9868-98507D39050C";
name = Bold;
width = 420;
}
);
unicode = 2013;
},
{
glyphname = hyphen;
lastChange = "2015-08-01 12:21:47 +0000";
layers = (
{
layerId = "B29C398E-974A-40D0-A0A0-00935056D4B4";
name = "Light Extended";
paths = (
{
closed = 1;
nodes = (
"28 191 LINE",
"28 167 LINE",
"298 167 LINE",
"298 191 LINE"
);
}
);
width = 326;
},
{
layerId = "543F9737-16F7-428D-9F96-2EBD9FC8D3B6";
name = Light;
width = 420;
},
{
layerId = "FA480B27-EBBD-4830-9868-98507D39050C";
name = Bold;
width = 420;
}
);
unicode = 002D;
},
{
glyphname = guillemetleft;
lastChange = "2015-08-17 00:26:28 +0000";
layers = (
{
layerId = "B29C398E-974A-40D0-A0A0-00935056D4B4";
name = "Light Extended";
paths = (
{
closed = 1;
nodes = (
"465 236 OFFCURVE",
"574 334 OFFCURVE",
"610 428 CURVE",
"590 437 LINE",
"556 348 OFFCURVE",
"453 251 OFFCURVE",
"323 251 CURVE SMOOTH",
"321 251 LINE",
"321 228 LINE",
"323 228 LINE SMOOTH",
"453 228 OFFCURVE",
"556 131 OFFCURVE",
"590 42 CURVE",
"610 51 LINE",
"574 145 OFFCURVE",
"465 243 OFFCURVE",
"347 243 CURVE",
"347 236 LINE"
);
},
{
closed = 1;
nodes = (
"194 236 OFFCURVE",
"298 329 OFFCURVE",
"339 428 CURVE",
"319 437 LINE",
"280 343 OFFCURVE",
"182 251 OFFCURVE",
"22 251 CURVE SMOOTH",
"10 251 LINE",
"10 228 LINE",
"22 228 LINE SMOOTH",
"182 228 OFFCURVE",
"280 136 OFFCURVE",
"319 42 CURVE",
"339 51 LINE",
"298 150 OFFCURVE",
"194 243 OFFCURVE",
"46 243 CURVE",
"46 236 LINE"
);
}
);
width = 630;
},
{
layerId = "543F9737-16F7-428D-9F96-2EBD9FC8D3B6";
name = Light;
width = 420;
},
{
layerId = "FA480B27-EBBD-4830-9868-98507D39050C";
name = Bold;
width = 420;
}
);
unicode = 00AB;
},
{
glyphname = guilsinglleft;
lastChange = "2015-08-17 00:25:56 +0000";
layers = (
{
layerId = "B29C398E-974A-40D0-A0A0-00935056D4B4";
name = "Light Extended";
paths = (
{
closed = 1;
nodes = (
"194 236 OFFCURVE",
"298 329 OFFCURVE",
"339 428 CURVE",
"319 437 LINE",
"280 343 OFFCURVE",
"182 251 OFFCURVE",
"22 251 CURVE SMOOTH",
"10 251 LINE",
"10 228 LINE",
"22 228 LINE SMOOTH",
"182 228 OFFCURVE",
"280 136 OFFCURVE",
"319 42 CURVE",
"339 51 LINE",
"298 150 OFFCURVE",
"194 243 OFFCURVE",
"46 243 CURVE",
"46 236 LINE"
);
}
);
width = 359;
},
{
layerId = "543F9737-16F7-428D-9F96-2EBD9FC8D3B6";
name = Light;
width = 600;
},
{
layerId = "FA480B27-EBBD-4830-9868-98507D39050C";
name = Bold;
width = 600;
}
);
unicode = 2039;
},
{
glyphname = quotedblleft;
lastChange = "2015-08-01 12:21:47 +0000";
layers = (
{
background = {
paths = (
{
closed = 1;
nodes = (
"72 381 OFFCURVE",
"93 362 OFFCURVE",
"122 362 CURVE",
"147 362 OFFCURVE",
"165 377 OFFCURVE",
"165 397 CURVE SMOOTH",
"165 420 OFFCURVE",
"138 433 OFFCURVE",
"99 429 CURVE",
"104 467 OFFCURVE",
"131 510 OFFCURVE",
"180 555 CURVE",
"168 567 LINE",
"107 519 OFFCURVE",
"72 456 OFFCURVE",
"72 412 CURVE"
);
},
{
closed = 1;
nodes = (
"216 381 OFFCURVE",
"237 362 OFFCURVE",
"266 362 CURVE",
"291 362 OFFCURVE",
"308 377 OFFCURVE",
"308 397 CURVE SMOOTH",
"308 420 OFFCURVE",
"281 433 OFFCURVE",
"242 429 CURVE",
"247 467 OFFCURVE",
"274 510 OFFCURVE",
"323 555 CURVE",
"312 567 LINE",
"251 519 OFFCURVE",
"216 456 OFFCURVE",
"216 412 CURVE"
);
}
);
};
components = (
{
name = quoteleft;
transform = "{1, 0, 0, 1, 143, 0}";
},
{
name = quoteleft;
}
);
layerId = "B29C398E-974A-40D0-A0A0-00935056D4B4";
name = "Light Extended";
width = 391;
},
{
components = (
{
name = quoteleft;
},
{
name = quoteleft;
}
);
layerId = "543F9737-16F7-428D-9F96-2EBD9FC8D3B6";
name = Light;
width = 420;
},
{
components = (
{
name = quoteleft;
},
{
name = quoteleft;
}
);
layerId = "FA480B27-EBBD-4830-9868-98507D39050C";
name = Bold;
width = 420;
}
);
unicode = 201C;
},
{
color = 6;
glyphname = quoteleft;
lastChange = "2015-08-01 22:18:04 +0000";
layers = (
{
layerId = "B29C398E-974A-40D0-A0A0-00935056D4B4";
name = "Light Extended";
paths = (
{
closed = 1;
nodes = (
"76 387 OFFCURVE",
"95 367 OFFCURVE",
"130 367 CURVE SMOOTH",
"161 367 OFFCURVE",
"180 382 OFFCURVE",
"180 401 CURVE SMOOTH",
"180 419 OFFCURVE",
"162 431 OFFCURVE",
"137 431 CURVE SMOOTH",
"122 431 OFFCURVE",
"109 429 OFFCURVE",
"97 426 CURVE",
"104 470 OFFCURVE",
"145 515 OFFCURVE",
"195 560 CURVE",
"183 572 LINE",
"122 524 OFFCURVE",
"76 462 OFFCURVE",
"76 419 CURVE SMOOTH"
);
}
);
width = 262;
},
{
layerId = "543F9737-16F7-428D-9F96-2EBD9FC8D3B6";
name = Light;
width = 420;
},
{
layerId = "FA480B27-EBBD-4830-9868-98507D39050C";
name = Bold;
width = 420;
}
);
unicode = 2018;
},
{
color = 6;
glyphname = quoteright;
lastChange = "2015-08-01 22:18:17 +0000";
layers = (
{
layerId = "B29C398E-974A-40D0-A0A0-00935056D4B4";
name = "Light Extended";
paths = (
{
closed = 1;
nodes = (
"186 540 OFFCURVE",
"167 560 OFFCURVE",
"132 560 CURVE SMOOTH",
"101 560 OFFCURVE",
"82 545 OFFCURVE",
"82 526 CURVE SMOOTH",
"82 507 OFFCURVE",
"100 496 OFFCURVE",
"125 496 CURVE SMOOTH",
"140 496 OFFCURVE",
"153 498 OFFCURVE",
"165 500 CURVE",
"158 456 OFFCURVE",
"117 412 OFFCURVE",
"67 367 CURVE",
"78 355 LINE",
"139 403 OFFCURVE",
"186 465 OFFCURVE",
"186 508 CURVE SMOOTH"
);
}
);
width = 262;
},
{
layerId = "543F9737-16F7-428D-9F96-2EBD9FC8D3B6";
name = Light;
width = 420;
},
{
layerId = "FA480B27-EBBD-4830-9868-98507D39050C";
name = Bold;
width = 420;
}
);
unicode = 2019;
},
{
glyphname = dollar;
lastChange = "2015-08-17 00:34:35 +0000";
layers = (
{
layerId = "B29C398E-974A-40D0-A0A0-00935056D4B4";
name = "Light Extended";
paths = (
{
closed = 1;
nodes = (
"425 594 LINE",
"425 -106 LINE",
"402 -106 LINE",
"402 594 LINE"
);
},
{
closed = 1;
nodes = (
"217 467 OFFCURVE",
"136 434 OFFCURVE",
"136 362 CURVE SMOOTH",
"136 300 OFFCURVE",
"211 262 OFFCURVE",
"414 244 CURVE SMOOTH",
"633 225 OFFCURVE",
"731 189 OFFCURVE",
"731 103 CURVE SMOOTH",
"731 19 OFFCURVE",
"637 -20 OFFCURVE",
"516 -20 CURVE SMOOTH",
"364 -20 OFFCURVE",
"190 55 OFFCURVE",
"117 130 CURVE",
"132 130 LINE",
"132 -20 LINE",
"109 -20 LINE",
"109 168 LINE",
"205 64 OFFCURVE",
"388 3 OFFCURVE",
"517 3 CURVE SMOOTH",
"621 3 OFFCURVE",
"707 32 OFFCURVE",
"707 103 CURVE SMOOTH",
"707 172 OFFCURVE",
"619 203 OFFCURVE",
"413 220 CURVE SMOOTH",
"188 239 OFFCURVE",
"111 289 OFFCURVE",
"111 362 CURVE SMOOTH",
"111 445 OFFCURVE",
"196 490 OFFCURVE",
"328 490 CURVE SMOOTH",
"492 490 OFFCURVE",
"615 413 OFFCURVE",
"687 338 CURVE",
"673 338 LINE",
"673 490 LINE",
"696 490 LINE",
"696 301 LINE",
"599 404 OFFCURVE",
"473 467 OFFCURVE",
"326 467 CURVE SMOOTH"
);
}
);
width = 808;
},
{
layerId = "543F9737-16F7-428D-9F96-2EBD9FC8D3B6";
name = Light;
width = 420;
},
{
layerId = "FA480B27-EBBD-4830-9868-98507D39050C";
name = Bold;
width = 420;
}
);
unicode = 0024;
},
{
glyphname = yen;
lastChange = "2015-08-15 17:50:59 +0000";
layers = (
{
layerId = "B29C398E-974A-40D0-A0A0-00935056D4B4";
name = "Light Extended";
paths = (
{
closed = 1;
nodes = (
"729 488 LINE",
"453 165 LINE",
"467 151 LINE",
"742 470 LINE"
);
},
{
closed = 1;
nodes = (
"188 490 LINE",
"175 470 LINE",
"451 151 LINE",
"468 165 LINE"
);
},
{
closed = 1;
nodes = (
"472 161 LINE",
"447 161 LINE",
"447 0 LINE",
"472 0 LINE"
);
},
{
closed = 1;
nodes = (
"654 0 LINE",
"654 23 LINE",
"265 23 LINE",
"265 0 LINE"
);
},
{
closed = 1;
nodes = (
"568 490 LINE",
"568 467 LINE",
"904 467 LINE",
"904 490 LINE"
);
},
{
closed = 1;
nodes = (
"14 490 LINE",
"14 467 LINE",
"351 467 LINE",
"351 490 LINE"
);
},
{
closed = 1;
nodes = (
"100 172 LINE",
"100 150 LINE",
"821 150 LINE",
"821 172 LINE"
);
},
{
closed = 1;
nodes = (
"100 322 LINE",
"100 300 LINE",
"821 300 LINE",
"821 322 LINE"
);
}
);
width = 918;
},
{
layerId = "543F9737-16F7-428D-9F96-2EBD9FC8D3B6";
name = Light;
width = 420;
},
{
layerId = "FA480B27-EBBD-4830-9868-98507D39050C";
name = Bold;
width = 420;
}
);
unicode = 00A5;
},
{
glyphname = equal;
lastChange = "2015-08-15 17:12:23 +0000";
layers = (
{
layerId = "B29C398E-974A-40D0-A0A0-00935056D4B4";
name = "Light Extended";
paths = (
{
closed = 1;
nodes = (
"70 127 LINE",
"70 103 LINE",
"567 103 LINE",
"567 127 LINE"
);
},
{
closed = 1;
nodes = (
"70 397 LINE",
"70 373 LINE",
"567 373 LINE",
"567 397 LINE"
);
}
);
width = 637;
},
{
layerId = "543F9737-16F7-428D-9F96-2EBD9FC8D3B6";
name = Light;
width = 420;
},
{
layerId = "FA480B27-EBBD-4830-9868-98507D39050C";
name = Bold;
width = 420;
}
);
unicode = 003D;
},
{
glyphname = micro;
lastChange = "2015-08-15 17:11:12 +0000";
layers = (
{
layerId = "B29C398E-974A-40D0-A0A0-00935056D4B4";
name = "Light Extended";
paths = (
{
closed = 1;
nodes = (
"482 -20 OFFCURVE",
"577 30 OFFCURVE",
"677 78 CURVE",
"677 102 LINE",
"577 52 OFFCURVE",
"467 3 OFFCURVE",
"378 3 CURVE",
"278 4 OFFCURVE",
"217 50 OFFCURVE",
"217 155 CURVE",
"217 357 LINE",
"200 357 LINE",
"200 155 LINE",
"200 29 OFFCURVE",
"268 -20 OFFCURVE",
"378 -20 CURVE"
);
},
{
closed = 1;
nodes = (
"666 18 OFFCURVE",
"704 -20 OFFCURVE",
"754 -20 CURVE SMOOTH",
"786 -20 OFFCURVE",
"812 -8 OFFCURVE",
"837 9 CURVE",
"827 29 LINE",
"804 12 OFFCURVE",
"782 3 OFFCURVE",
"755 3 CURVE SMOOTH",
"723 3 OFFCURVE",
"691 28 OFFCURVE",
"691 84 CURVE",
"691 357 LINE",
"666 357 LINE",
"666 84 LINE"
);
},
{
closed = 1;
nodes = (
"10 357 LINE",
"10 334 LINE",
"217 334 LINE",
"217 357 LINE"
);
},
{
closed = 1;
nodes = (
"193 -165 LINE",
"217 -165 LINE",
"217 0 LINE",
"217 32 OFFCURVE",
"211 65 OFFCURVE",
"208 97 CURVE",
"208 357 LINE",
"193 357 LINE"
);
}
);
width = 832;
},
{
layerId = "543F9737-16F7-428D-9F96-2EBD9FC8D3B6";
name = Light;
width = 420;
},
{
layerId = "FA480B27-EBBD-4830-9868-98507D39050C";
name = Bold;
width = 420;
}
);
leftMetricsKey = "=h";
rightMetricsKey = "=n";
unicode = 00B5;
},
{
glyphname = plus;
lastChange = "2015-08-01 12:21:47 +0000";
layers = (
{
layerId = "B29C398E-974A-40D0-A0A0-00935056D4B4";
name = "Light Extended";
paths = (
{
closed = 1;
nodes = (
"307 0 LINE",
"331 0 LINE",
"331 490 LINE",
"307 490 LINE"
);
},
{
closed = 1;
nodes = (
"70 257 LINE",
"70 233 LINE",
"567 233 LINE",
"567 257 LINE"
);
}
);
width = 637;
},
{
layerId = "543F9737-16F7-428D-9F96-2EBD9FC8D3B6";
name = Light;
width = 420;
},
{
layerId = "FA480B27-EBBD-4830-9868-98507D39050C";
name = Bold;
width = 420;
}
);
unicode = 002B;
},
{
glyphname = ampersand.alt;
lastChange = "2015-08-01 12:21:47 +0000";
layers = (
{
layerId = "B29C398E-974A-40D0-A0A0-00935056D4B4";
name = "Light Extended";
paths = (
{
closed = 1;
nodes = (
"707 211 LINE",
"707 57 OFFCURVE",
"544 -22 OFFCURVE",
"293 -22 CURVE SMOOTH",
"94 -22 OFFCURVE",
"23 34 OFFCURVE",
"23 109 CURVE SMOOTH",
"23 192 OFFCURVE",
"118 221 OFFCURVE",
"291 253 CURVE SMOOTH",
"431 281 OFFCURVE",
"498 326 OFFCURVE",
"498 419 CURVE SMOOTH",
"498 468 OFFCURVE",
"459 516 OFFCURVE",
"387 516 CURVE SMOOTH",
"297 516 OFFCURVE",
"236 436 OFFCURVE",
"236 326 CURVE SMOOTH",
"236 88 OFFCURVE",
"590 -227 OFFCURVE",
"876 -227 CURVE SMOOTH",
"1046 -227 OFFCURVE",
"1166 -173 OFFCURVE",
"1242 -66 CURVE",
"1226 -50 LINE",
"1157 -148 OFFCURVE",
"1042 -205 OFFCURVE",
"876 -205 CURVE SMOOTH",
"606 -205 OFFCURVE",
"258 112 OFFCURVE",
"258 332 CURVE SMOOTH",
"258 436 OFFCURVE",
"319 495 OFFCURVE",
"387 495 CURVE SMOOTH",
"443 495 OFFCURVE",
"476 459 OFFCURVE",
"476 414 CURVE SMOOTH",
"476 344 OFFCURVE",
"415 298 OFFCURVE",
"287 276 CURVE SMOOTH",
"100 243 OFFCURVE",
"0 204 OFFCURVE",
"0 109 CURVE SMOOTH",
"0 20 OFFCURVE",
"94 -46 OFFCURVE",
"293 -44 CURVE SMOOTH",
"552 -43 OFFCURVE",
"729 43 OFFCURVE",
"729 209 CURVE"
);
},
{
closed = 1;
nodes = (
"706 182 OFFCURVE",
"770 204 OFFCURVE",
"859 309 CURVE SMOOTH",
"933 398 OFFCURVE",
"969 495 OFFCURVE",
"1069 495 CURVE SMOOTH",
"1137 495 OFFCURVE",
"1185 450 OFFCURVE",
"1187 367 CURVE",
"1210 367 LINE",
"1208 459 OFFCURVE",
"1154 517 OFFCURVE",
"1069 517 CURVE SMOOTH",
"958 517 OFFCURVE",
"918 419 OFFCURVE",
"832 314 CURVE SMOOTH",
"756 222 OFFCURVE",
"684 204 OFFCURVE",
"533 204 CURVE SMOOTH",
"456 204 LINE",
"456 182 LINE",
"533 182 LINE SMOOTH"
);
}
);
width = 682;
},
{
layerId = "FA480B27-EBBD-4830-9868-98507D39050C";
name = Bold;
width = 420;
},
{
layerId = "543F9737-16F7-428D-9F96-2EBD9FC8D3B6";
name = Light;
width = 420;
}
);
},
{
glyphname = bar;
lastChange = "2015-08-15 16:50:06 +0000";
layers = (
{
layerId = "B29C398E-974A-40D0-A0A0-00935056D4B4";
name = "Light Extended";
paths = (
{
closed = 1;
nodes = (
"125 -146 LINE",
"150 -146 LINE",
"150 634 LINE",
"125 634 LINE"
);
}
);
width = 275;
},
{
layerId = "543F9737-16F7-428D-9F96-2EBD9FC8D3B6";
name = Light;
width = 420;
},
{
layerId = "FA480B27-EBBD-4830-9868-98507D39050C";
name = Bold;
width = 420;
}
);
unicode = 007C;
},
{
glyphname = at;
lastChange = "2015-08-17 00:48:16 +0000";
layers = (
{
layerId = "B29C398E-974A-40D0-A0A0-00935056D4B4";
name = "Light Extended";
paths = (
{
closed = 1;
nodes = (
"477 36 OFFCURVE",
"562 58 OFFCURVE",
"641 98 CURVE",
"641 120 LINE",
"559 82 OFFCURVE",
"476 59 OFFCURVE",
"396 59 CURVE SMOOTH",
"329 59 OFFCURVE",
"270 78 OFFCURVE",
"270 119 CURVE SMOOTH",
"270 168 OFFCURVE",
"345 183 OFFCURVE",
"428 183 CURVE SMOOTH",
"504 183 OFFCURVE",
"578 171 OFFCURVE",
"641 162 CURVE",
"641 185 LINE",
"578 195 OFFCURVE",
"505 206 OFFCURVE",
"430 206 CURVE SMOOTH",
"321 206 OFFCURVE",
"246 180 OFFCURVE",
"246 119 CURVE SMOOTH",
"246 65 OFFCURVE",
"309 36 OFFCURVE",
"396 36 CURVE SMOOTH"
);
},
{
closed = 1;
nodes = (
"610 -80 OFFCURVE",
"528 -117 OFFCURVE",
"398 -117 CURVE SMOOTH",
"240 -117 OFFCURVE",
"85 -27 OFFCURVE",
"85 170 CURVE SMOOTH",
"85 349 OFFCURVE",
"244 492 OFFCURVE",
"477 492 CURVE SMOOTH",
"702 492 OFFCURVE",
"841 362 OFFCURVE",
"841 206 CURVE SMOOTH",
"841 105 OFFCURVE",
"782 59 OFFCURVE",
"729 59 CURVE SMOOTH",
"680 59 OFFCURVE",
"653 89 OFFCURVE",
"653 131 CURVE SMOOTH",
"653 203 LINE SMOOTH",
"653 280 OFFCURVE",
"601 331 OFFCURVE",
"483 331 CURVE SMOOTH",
"410 331 OFFCURVE",
"336 314 OFFCURVE",
"263 291 CURVE",
"263 266 LINE",
"337 290 OFFCURVE",
"408 308 OFFCURVE",
"483 308 CURVE SMOOTH",
"584 308 OFFCURVE",
"631 262 OFFCURVE",
"631 203 CURVE SMOOTH",
"631 131 LINE SMOOTH",
"631 77 OFFCURVE",
"664 36 OFFCURVE",
"729 36 CURVE SMOOTH",
"789 36 OFFCURVE",
"866 88 OFFCURVE",
"866 206 CURVE SMOOTH",
"866 382 OFFCURVE",
"713 515 OFFCURVE",
"477 515 CURVE SMOOTH",
"233 515 OFFCURVE",
"60 367 OFFCURVE",
"60 170 CURVE SMOOTH",
"60 -40 OFFCURVE",
"230 -141 OFFCURVE",
"398 -141 CURVE SMOOTH",
"531 -141 OFFCURVE",
"619 -101 OFFCURVE",
"670 -74 CURVE",
"661 -53 LINE"
);
}
);
width = 926;
},
{
layerId = "543F9737-16F7-428D-9F96-2EBD9FC8D3B6";
name = Light;
width = 420;
},
{
layerId = "FA480B27-EBBD-4830-9868-98507D39050C";
name = Bold;
width = 420;
}
);
unicode = 0040;
},
{
glyphname = ampersand;
lastChange = "2015-08-01 12:21:47 +0000";
layers = (
{
background = {
paths = (
{
closed = 1;
nodes = (
"631 253 LINE",
"650 237 OFFCURVE",
"674 208 OFFCURVE",
"674 159 CURVE SMOOTH",
"674 50 OFFCURVE",
"545 -43 OFFCURVE",
"363 -44 CURVE SMOOTH",
"228 -45 OFFCURVE",
"153 4 OFFCURVE",
"153 77 CURVE SMOOTH",
"153 145 OFFCURVE",
"204 186 OFFCURVE",
"341 202 CURVE SMOOTH",
"466 217 OFFCURVE",
"525 255 OFFCURVE",
"525 311 CURVE SMOOTH",
"525 351 OFFCURVE",
"496 377 OFFCURVE",
"456 377 CURVE SMOOTH",
"410 377 OFFCURVE",
"350 332 OFFCURVE",
"350 236 CURVE SMOOTH",
"350 58 OFFCURVE",
"538 -169 OFFCURVE",
"734 -169 CURVE SMOOTH",
"864 -169 OFFCURVE",
"953 -125 OFFCURVE",
"1007 -48 CURVE",
"1019 -61 LINE",
"960 -144 OFFCURVE",
"867 -187 OFFCURVE",
"734 -187 CURVE SMOOTH",
"525 -187 OFFCURVE",
"332 39 OFFCURVE",
"332 237 CURVE SMOOTH",
"332 338 OFFCURVE",
"396 393 OFFCURVE",
"456 393 CURVE SMOOTH",
"512 393 OFFCURVE",
"543 356 OFFCURVE",
"543 312 CURVE SMOOTH",
"543 243 OFFCURVE",
"479 197 OFFCURVE",
"344 185 CURVE SMOOTH",
"248 176 OFFCURVE",
"171 141 OFFCURVE",
"171 80 CURVE SMOOTH",
"171 18 OFFCURVE",
"228 -27 OFFCURVE",
"363 -27 CURVE SMOOTH",
"538 -27 OFFCURVE",
"657 61 OFFCURVE",
"657 160 CURVE SMOOTH",
"657 200 OFFCURVE",
"639 221 OFFCURVE",
"620 239 CURVE"
);
}
);
};
layerId = "B29C398E-974A-40D0-A0A0-00935056D4B4";
name = "Light Extended";
paths = (
{
closed = 1;
nodes = (
"664 335 LINE",
"689 314 OFFCURVE",
"711 272 OFFCURVE",
"711 209 CURVE SMOOTH",
"711 85 OFFCURVE",
"560 -51 OFFCURVE",
"314 -52 CURVE SMOOTH",
"129 -53 OFFCURVE",
"21 8 OFFCURVE",
"21 108 CURVE SMOOTH",
"21 201 OFFCURVE",
"99 240 OFFCURVE",
"290 274 CURVE SMOOTH",
"420 297 OFFCURVE",
"510 343 OFFCURVE",
"510 415 CURVE SMOOTH",
"510 461 OFFCURVE",
"476 497 OFFCURVE",
"419 497 CURVE SMOOTH",
"350 497 OFFCURVE",
"288 437 OFFCURVE",
"288 331 CURVE SMOOTH",
"288 104 OFFCURVE",
"575 -216 OFFCURVE",
"853 -216 CURVE SMOOTH",
"1023 -216 OFFCURVE",
"1140 -158 OFFCURVE",
"1210 -57 CURVE",
"1225 -74 LINE",
"1147 -183 OFFCURVE",
"1026 -239 OFFCURVE",
"853 -239 CURVE SMOOTH",
"562 -239 OFFCURVE",
"265 83 OFFCURVE",
"265 325 CURVE SMOOTH",
"265 437 OFFCURVE",
"327 518 OFFCURVE",
"419 518 CURVE SMOOTH",
"493 518 OFFCURVE",
"532 470 OFFCURVE",
"532 419 CURVE SMOOTH",
"532 326 OFFCURVE",
"437 279 OFFCURVE",
"294 251 CURVE SMOOTH",
"117 218 OFFCURVE",
"45 188 OFFCURVE",
"45 108 CURVE SMOOTH",
"45 23 OFFCURVE",
"129 -29 OFFCURVE",
"314 -29 CURVE SMOOTH",
"551 -29 OFFCURVE",
"688 99 OFFCURVE",
"688 210 CURVE SMOOTH",
"688 263 OFFCURVE",
"674 294 OFFCURVE",
"649 318 CURVE"
);
}
);
width = 735;
},
{
layerId = "FA480B27-EBBD-4830-9868-98507D39050C";
name = Bold;
width = 420;
},
{
layerId = "543F9737-16F7-428D-9F96-2EBD9FC8D3B6";
name = Light;
width = 420;
}
);
unicode = 0026;
},
{
glyphname = paragraph;
lastChange = "2015-08-15 17:06:11 +0000";
layers = (
{
layerId = "B29C398E-974A-40D0-A0A0-00935056D4B4";
name = "Light Extended";
paths = (
{
closed = 1;
nodes = (
"600 446 LINE",
"600 -155 LINE",
"624 -151 LINE",
"624 436 LINE"
);
},
{
closed = 1;
nodes = (
"500 492 OFFCURVE",
"644 433 OFFCURVE",
"757 340 CURVE",
"757 364 LINE",
"648 453 OFFCURVE",
"506 515 OFFCURVE",
"357 516 CURVE SMOOTH",
"212 517 OFFCURVE",
"99 441 OFFCURVE",
"99 335 CURVE SMOOTH",
"99 229 OFFCURVE",
"199 171 OFFCURVE",
"322 171 CURVE SMOOTH",
"451 171 OFFCURVE",
"549 221 OFFCURVE",
"615 268 CURVE",
"615 292 LINE",
"540 239 OFFCURVE",
"436 194 OFFCURVE",
"322 194 CURVE SMOOTH",
"209 194 OFFCURVE",
"124 245 OFFCURVE",
"124 335 CURVE SMOOTH",
"124 427 OFFCURVE",
"223 494 OFFCURVE",
"357 493 CURVE SMOOTH"
);
},
{
closed = 1;
nodes = (
"362 -127 LINE",
"411 -149 OFFCURVE",
"479 -174 OFFCURVE",
"560 -174 CURVE SMOOTH",
"677 -174 OFFCURVE",
"766 -110 OFFCURVE",
"766 24 CURVE SMOOTH",
"766 515 LINE",
"741 515 LINE",
"741 23 LINE SMOOTH",
"741 -95 OFFCURVE",
"660 -151 OFFCURVE",
"561 -151 CURVE SMOOTH",
"488 -151 OFFCURVE",
"418 -126 OFFCURVE",
"369 -104 CURVE"
);
}
);
width = 823;
},
{
layerId = "543F9737-16F7-428D-9F96-2EBD9FC8D3B6";
name = Light;
width = 420;
},
{
layerId = "FA480B27-EBBD-4830-9868-98507D39050C";
name = Bold;
width = 420;
}
);
unicode = 00B6;
},
{
glyphname = copyright;
lastChange = "2015-08-17 00:51:03 +0000";
layers = (
{
background = {
paths = (
{
closed = 1;
nodes = (
"695 36 OFFCURVE",
"780 58 OFFCURVE",
"859 98 CURVE",
"859 120 LINE",
"777 82 OFFCURVE",
"694 59 OFFCURVE",
"614 59 CURVE SMOOTH",
"547 59 OFFCURVE",
"488 78 OFFCURVE",
"488 119 CURVE SMOOTH",
"488 168 OFFCURVE",
"563 183 OFFCURVE",
"646 183 CURVE SMOOTH",
"722 183 OFFCURVE",
"796 171 OFFCURVE",
"859 162 CURVE",
"859 185 LINE",
"796 195 OFFCURVE",
"723 206 OFFCURVE",
"648 206 CURVE SMOOTH",
"539 206 OFFCURVE",
"464 180 OFFCURVE",
"464 119 CURVE SMOOTH",
"464 65 OFFCURVE",
"527 36 OFFCURVE",
"614 36 CURVE SMOOTH"
);
},
{
closed = 1;
nodes = (
"828 -80 OFFCURVE",
"746 -117 OFFCURVE",
"616 -117 CURVE SMOOTH",
"458 -117 OFFCURVE",
"303 -27 OFFCURVE",
"303 170 CURVE SMOOTH",
"303 349 OFFCURVE",
"462 492 OFFCURVE",
"695 492 CURVE SMOOTH",
"920 492 OFFCURVE",
"1059 362 OFFCURVE",
"1059 206 CURVE SMOOTH",
"1059 105 OFFCURVE",
"1000 59 OFFCURVE",
"947 59 CURVE SMOOTH",
"898 59 OFFCURVE",
"871 89 OFFCURVE",
"871 131 CURVE SMOOTH",
"871 203 LINE SMOOTH",
"871 280 OFFCURVE",
"819 331 OFFCURVE",
"701 331 CURVE SMOOTH",
"628 331 OFFCURVE",
"554 314 OFFCURVE",
"481 291 CURVE",
"481 266 LINE",
"555 290 OFFCURVE",
"626 308 OFFCURVE",
"701 308 CURVE SMOOTH",
"802 308 OFFCURVE",
"849 262 OFFCURVE",
"849 203 CURVE SMOOTH",
"849 131 LINE SMOOTH",
"849 77 OFFCURVE",
"882 36 OFFCURVE",
"947 36 CURVE SMOOTH",
"1007 36 OFFCURVE",
"1084 88 OFFCURVE",
"1084 206 CURVE SMOOTH",
"1084 382 OFFCURVE",
"931 515 OFFCURVE",
"695 515 CURVE SMOOTH",
"451 515 OFFCURVE",
"278 367 OFFCURVE",
"278 170 CURVE SMOOTH",
"278 -40 OFFCURVE",
"448 -141 OFFCURVE",
"616 -141 CURVE SMOOTH",
"749 -141 OFFCURVE",
"837 -101 OFFCURVE",
"888 -74 CURVE",
"879 -53 LINE"
);
}
);
};
layerId = "B29C398E-974A-40D0-A0A0-00935056D4B4";
name = "Light Extended";
paths = (
{
closed = 1;
nodes = (
"233 -175 OFFCURVE",
"60 -27 OFFCURVE",
"60 170 CURVE",
"60 367 OFFCURVE",
"233 515 OFFCURVE",
"477 515 CURVE",
"721 515 OFFCURVE",
"894 367 OFFCURVE",
"894 170 CURVE",
"894 -27 OFFCURVE",
"721 -175 OFFCURVE",
"477 -175 CURVE"
);
},
{
closed = 1;
nodes = (
"244 492 OFFCURVE",
"85 349 OFFCURVE",
"85 170 CURVE",
"85 -9 OFFCURVE",
"244 -152 OFFCURVE",
"477 -152 CURVE",
"710 -152 OFFCURVE",
"869 -9 OFFCURVE",
"869 170 CURVE",
"869 349 OFFCURVE",
"710 492 OFFCURVE",
"477 492 CURVE"
);
},
{
closed = 1;
nodes = (
"359 308 OFFCURVE",
"254 255 OFFCURVE",
"254 154 CURVE SMOOTH",
"254 71 OFFCURVE",
"343 4 OFFCURVE",
"458 3 CURVE SMOOTH",
"563 2 OFFCURVE",
"641 46 OFFCURVE",
"686 107 CURVE",
"702 92 LINE",
"655 26 OFFCURVE",
"582 -20 OFFCURVE",
"458 -20 CURVE SMOOTH",
"332 -20 OFFCURVE",
"229 50 OFFCURVE",
"229 154 CURVE SMOOTH",
"229 272 OFFCURVE",
"348 331 OFFCURVE",
"463 331 CURVE SMOOTH",
"562 331 OFFCURVE",
"643 285 OFFCURVE",
"689 227 CURVE",
"676 232 LINE",
"676 331 LINE",
"699 331 LINE",
"699 196 LINE",
"632 275 OFFCURVE",
"547 308 OFFCURVE",
"461 308 CURVE SMOOTH"
);
}
);
width = 954;
},
{
layerId = "543F9737-16F7-428D-9F96-2EBD9FC8D3B6";
name = Light;
width = 420;
},
{
layerId = "FA480B27-EBBD-4830-9868-98507D39050C";
name = Bold;
width = 420;
}
);
unicode = 00A9;
},
{
glyphname = registered;
lastChange = "2015-08-17 01:03:05 +0000";
layers = (
{
layerId = "B29C398E-974A-40D0-A0A0-00935056D4B4";
name = "Light Extended";
paths = (
{
closed = 1;
nodes = (
"233 -175 OFFCURVE",
"60 -27 OFFCURVE",
"60 170 CURVE",
"60 367 OFFCURVE",
"233 515 OFFCURVE",
"477 515 CURVE",
"721 515 OFFCURVE",
"894 367 OFFCURVE",
"894 170 CURVE",
"894 -27 OFFCURVE",
"721 -175 OFFCURVE",
"477 -175 CURVE"
);
},
{
closed = 1;
nodes = (
"244 492 OFFCURVE",
"85 349 OFFCURVE",
"85 170 CURVE",
"85 -9 OFFCURVE",
"244 -152 OFFCURVE",
"477 -152 CURVE",
"710 -152 OFFCURVE",
"869 -9 OFFCURVE",
"869 170 CURVE",
"869 349 OFFCURVE",
"710 492 OFFCURVE",
"477 492 CURVE"
);
},
{
closed = 1;
nodes = (
"439 145 LINE SMOOTH",
"482 145 OFFCURVE",
"509 118 OFFCURVE",
"535 84 CURVE SMOOTH",
"567 43 OFFCURVE",
"603 6 OFFCURVE",
"658 6 CURVE SMOOTH",
"715 6 OFFCURVE",
"755 48 OFFCURVE",
"755 111 CURVE SMOOTH",
"755 122 LINE",
"730 122 LINE",
"730 111 LINE SMOOTH",
"730 59 OFFCURVE",
"698 29 OFFCURVE",
"658 29 CURVE SMOOTH",
"618 29 OFFCURVE",
"591 53 OFFCURVE",
"561 91 CURVE SMOOTH",
"528 133 OFFCURVE",
"498 158 OFFCURVE",
"437 158 CURVE SMOOTH",
"330 158 LINE",
"330 145 LINE"
);
},
{
closed = 1;
nodes = (
"337 35 LINE",
"337 296 LINE",
"313 296 LINE",
"313 35 LINE"
);
},
{
closed = 1;
nodes = (
"440 28 LINE",
"440 51 LINE",
"216 50 LINE",
"216 27 LINE"
);
},
{
closed = 1;
nodes = (
"589 146 LINE SMOOTH",
"659 146 OFFCURVE",
"692 184 OFFCURVE",
"692 223 CURVE SMOOTH",
"692 268 OFFCURVE",
"658 304 OFFCURVE",
"589 304 CURVE SMOOTH",
"216 304 LINE",
"216 281 LINE",
"589 281 LINE SMOOTH",
"639 281 OFFCURVE",
"667 258 OFFCURVE",
"667 223 CURVE SMOOTH",
"667 190 OFFCURVE",
"638 168 OFFCURVE",
"589 168 CURVE SMOOTH",
"330 168 LINE",
"330 146 LINE"
);
}
);
width = 954;
},
{
layerId = "543F9737-16F7-428D-9F96-2EBD9FC8D3B6";
name = Light;
width = 420;
},
{
layerId = "FA480B27-EBBD-4830-9868-98507D39050C";
name = Bold;
width = 420;
}
);
unicode = 00AE;
},
{
glyphname = degree;
lastChange = "2015-08-17 01:05:05 +0000";
layers = (
{
layerId = "B29C398E-974A-40D0-A0A0-00935056D4B4";
name = "Light Extended";
paths = (
{
closed = 1;
nodes = (
"124 664 OFFCURVE",
"63 622 OFFCURVE",
"63 539 CURVE",
"63 459 OFFCURVE",
"124 413 OFFCURVE",
"209 413 CURVE",
"298 413 OFFCURVE",
"354 459 OFFCURVE",
"354 539 CURVE",
"354 622 OFFCURVE",
"298 664 OFFCURVE",
"209 664 CURVE"
);
},
{
closed = 1;
nodes = (
"286 642 OFFCURVE",
"331 607 OFFCURVE",
"331 539 CURVE",
"331 473 OFFCURVE",
"286 435 OFFCURVE",
"209 435 CURVE",
"135 435 OFFCURVE",
"86 473 OFFCURVE",
"86 539 CURVE",
"86 607 OFFCURVE",
"135 642 OFFCURVE",
"209 642 CURVE"
);
}
);
width = 420;
},
{
layerId = "543F9737-16F7-428D-9F96-2EBD9FC8D3B6";
name = Light;
width = 420;
},
{
layerId = "FA480B27-EBBD-4830-9868-98507D39050C";
name = Bold;
width = 420;
}
);
unicode = 00B0;
},
{
glyphname = ampersand_alt1;
lastChange = "2015-08-01 12:21:47 +0000";
layers = (
{
layerId = "B29C398E-974A-40D0-A0A0-00935056D4B4";
name = "Light Extended";
paths = (
{
closed = 1;
nodes = (
"840 104 OFFCURVE",
"855 117 OFFCURVE",
"879 117 CURVE SMOOTH",
"926 117 OFFCURVE",
"1000 72 OFFCURVE",
"1000 -22 CURVE SMOOTH",
"1000 -126 OFFCURVE",
"880 -206 OFFCURVE",
"757 -206 CURVE SMOOTH",
"480 -206 OFFCURVE",
"281 113 OFFCURVE",
"281 333 CURVE SMOOTH",
"281 438 OFFCURVE",
"342 497 OFFCURVE",
"410 497 CURVE SMOOTH",
"466 497 OFFCURVE",
"499 461 OFFCURVE",
"499 416 CURVE SMOOTH",
"499 344 OFFCURVE",
"438 299 OFFCURVE",
"309 277 CURVE SMOOTH",
"113 244 OFFCURVE",
"21 192 OFFCURVE",
"21 95 CURVE SMOOTH",
"21 15 OFFCURVE",
"93 -44 OFFCURVE",
"191 -44 CURVE SMOOTH",
"370 -44 OFFCURVE",
"499 79 OFFCURVE",
"599 172 CURVE SMOOTH",
"685 252 OFFCURVE",
"767 335 OFFCURVE",
"867 335 CURVE",
"935 335 OFFCURVE",
"1002 299 OFFCURVE",
"1004 215 CURVE",
"1004 132 OFFCURVE",
"920 59 OFFCURVE",
"880 59 CURVE SMOOTH",
"860 59 OFFCURVE",
"840 69 OFFCURVE",
"840 88 CURVE SMOOTH"
);
},
{
closed = 1;
nodes = (
"819 59 OFFCURVE",
"846 41 OFFCURVE",
"879 41 CURVE SMOOTH",
"937 41 OFFCURVE",
"1027 111 OFFCURVE",
"1027 216 CURVE",
"1021 305 OFFCURVE",
"955 357 OFFCURVE",
"867 357 CURVE",
"753 357 OFFCURVE",
"667 269 OFFCURVE",
"584 190 CURVE SMOOTH",
"486 96 OFFCURVE",
"363 -22 OFFCURVE",
"191 -22 CURVE SMOOTH",
"93 -22 OFFCURVE",
"45 29 OFFCURVE",
"45 95 CURVE SMOOTH",
"45 179 OFFCURVE",
"130 221 OFFCURVE",
"314 255 CURVE SMOOTH",
"455 280 OFFCURVE",
"521 328 OFFCURVE",
"521 420 CURVE SMOOTH",
"521 470 OFFCURVE",
"482 517 OFFCURVE",
"410 517 CURVE SMOOTH",
"319 517 OFFCURVE",
"258 438 OFFCURVE",
"258 327 CURVE SMOOTH",
"258 89 OFFCURVE",
"470 -228 OFFCURVE",
"757 -228 CURVE SMOOTH",
"894 -228 OFFCURVE",
"1024 -143 OFFCURVE",
"1024 -21 CURVE",
"1024 79 OFFCURVE",
"945 135 OFFCURVE",
"879 135 CURVE SMOOTH",
"840 135 OFFCURVE",
"819 113 OFFCURVE",
"819 87 CURVE SMOOTH"
);
}
);
width = 1041;
},
{
layerId = "FA480B27-EBBD-4830-9868-98507D39050C";
name = Bold;
width = 420;
},
{
layerId = "543F9737-16F7-428D-9F96-2EBD9FC8D3B6";
name = Light;
width = 420;
}
);
},
{
glyphname = acute;
lastChange = "2015-08-15 17:35:19 +0000";
layers = (
{
layerId = "B29C398E-974A-40D0-A0A0-00935056D4B4";
name = "Light Extended";
paths = (
{
closed = 1;
nodes = (
"183 579 LINE SMOOTH",
"234 604 OFFCURVE",
"299 639 OFFCURVE",
"315 647 CURVE SMOOTH",
"328 654 OFFCURVE",
"344 646 OFFCURVE",
"348 634 CURVE SMOOTH",
"352 621 OFFCURVE",
"346 608 OFFCURVE",
"332 602 CURVE SMOOTH",
"315 595 OFFCURVE",
"261 576 OFFCURVE",
"196 550 CURVE SMOOTH",
"16 477 LINE",
"10 493 LINE"
);
}
);
width = 420;
},
{
layerId = "543F9737-16F7-428D-9F96-2EBD9FC8D3B6";
name = Light;
width = 420;
},
{
layerId = "FA480B27-EBBD-4830-9868-98507D39050C";
name = Bold;
width = 420;
}
);
unicode = 00B4;
},
{
glyphname = breve;
lastChange = "2015-08-15 17:49:43 +0000";
layers = (
{
layerId = "B29C398E-974A-40D0-A0A0-00935056D4B4";
name = "Light Extended";
paths = (
{
closed = 1;
nodes = (
"284 478 OFFCURVE",
"343 545 OFFCURVE",
"363 620 CURVE",
"383 615 LINE",
"368 540 OFFCURVE",
"307 454 OFFCURVE",
"210 454 CURVE",
"113 454 OFFCURVE",
"52 540 OFFCURVE",
"37 615 CURVE",
"57 620 LINE",
"77 545 OFFCURVE",
"138 478 OFFCURVE",
"211 478 CURVE"
);
}
);
width = 420;
},
{
layerId = "543F9737-16F7-428D-9F96-2EBD9FC8D3B6";
name = Light;
width = 420;
},
{
layerId = "FA480B27-EBBD-4830-9868-98507D39050C";
name = Bold;
width = 420;
}
);
unicode = 02D8;
},
{
glyphname = caron;
lastChange = "2015-08-15 17:49:01 +0000";
layers = (
{
layerId = "B29C398E-974A-40D0-A0A0-00935056D4B4";
name = "Light Extended";
paths = (
{
closed = 1;
nodes = (
"275 546 LINE SMOOTH",
"247 520 OFFCURVE",
"227 501 OFFCURVE",
"214 492 CURVE",
"201 501 OFFCURVE",
"181 520 OFFCURVE",
"153 546 CURVE SMOOTH",
"64 628 LINE",
"52 615 LINE",
"135 525 LINE SMOOTH",
"157 501 OFFCURVE",
"180 472 OFFCURVE",
"195 458 CURVE SMOOTH",
"198 455 OFFCURVE",
"205 450 OFFCURVE",
"214 450 CURVE SMOOTH",
"221 450 OFFCURVE",
"228 453 OFFCURVE",
"233 458 CURVE SMOOTH",
"248 472 OFFCURVE",
"271 501 OFFCURVE",
"293 525 CURVE SMOOTH",
"376 615 LINE",
"364 628 LINE"
);
}
);
width = 420;
},
{
layerId = "543F9737-16F7-428D-9F96-2EBD9FC8D3B6";
name = Light;
width = 420;
},
{
layerId = "FA480B27-EBBD-4830-9868-98507D39050C";
name = Bold;
width = 420;
}
);
unicode = 02C7;
},
{
glyphname = hungarumlaut;
lastChange = "2015-08-15 17:35:13 +0000";
layers = (
{
background = {
paths = (
{
closed = 1;
nodes = (
"384 602 OFFCURVE",
"366 589 OFFCURVE",
"366 570 CURVE",
"366 552 OFFCURVE",
"384 538 OFFCURVE",
"415 538 CURVE",
"447 538 OFFCURVE",
"464 552 OFFCURVE",
"464 570 CURVE",
"464 589 OFFCURVE",
"447 602 OFFCURVE",
"415 602 CURVE"
);
},
{
closed = 1;
nodes = (
"140 602 OFFCURVE",
"122 589 OFFCURVE",
"122 570 CURVE",
"122 552 OFFCURVE",
"140 538 OFFCURVE",
"171 538 CURVE",
"203 538 OFFCURVE",
"220 552 OFFCURVE",
"220 570 CURVE",
"220 589 OFFCURVE",
"203 602 OFFCURVE",
"171 602 CURVE"
);
}
);
};
layerId = "B29C398E-974A-40D0-A0A0-00935056D4B4";
name = "Light Extended";
paths = (
{
closed = 1;
nodes = (
"158 555 LINE SMOOTH",
"186 580 OFFCURVE",
"218 614 OFFCURVE",
"233 625 CURVE SMOOTH",
"244 634 OFFCURVE",
"262 629 OFFCURVE",
"268 618 CURVE SMOOTH",
"274 605 OFFCURVE",
"270 592 OFFCURVE",
"257 583 CURVE SMOOTH",
"242 573 OFFCURVE",
"217 557 OFFCURVE",
"176 529 CURVE SMOOTH",
"79 461 LINE",
"70 475 LINE"
);
},
{
closed = 1;
nodes = (
"354 555 LINE SMOOTH",
"382 580 OFFCURVE",
"414 614 OFFCURVE",
"429 625 CURVE SMOOTH",
"440 634 OFFCURVE",
"458 629 OFFCURVE",
"464 618 CURVE SMOOTH",
"470 605 OFFCURVE",
"466 592 OFFCURVE",
"453 583 CURVE SMOOTH",
"438 573 OFFCURVE",
"413 557 OFFCURVE",
"372 529 CURVE SMOOTH",
"275 461 LINE",
"266 475 LINE"
);
}
);
width = 537;
},
{
layerId = "543F9737-16F7-428D-9F96-2EBD9FC8D3B6";
name = Light;
width = 420;
},
{
layerId = "FA480B27-EBBD-4830-9868-98507D39050C";
name = Bold;
width = 420;
}
);
unicode = 02DD;
},
{
glyphname = macron;
lastChange = "2015-08-15 17:50:01 +0000";
layers = (
{
layerId = "B29C398E-974A-40D0-A0A0-00935056D4B4";
name = "Light Extended";
paths = (
{
closed = 1;
nodes = (
"70 562 LINE",
"70 538 LINE",
"547 538 LINE",
"547 562 LINE"
);
}
);
width = 617;
},
{
layerId = "543F9737-16F7-428D-9F96-2EBD9FC8D3B6";
name = Light;
width = 420;
},
{
layerId = "FA480B27-EBBD-4830-9868-98507D39050C";
name = Bold;
width = 420;
}
);
unicode = 00AF;
},
{
glyphname = ring;
lastChange = "2015-08-15 17:49:21 +0000";
layers = (
{
layerId = "B29C398E-974A-40D0-A0A0-00935056D4B4";
name = "Light Extended";
paths = (
{
closed = 1;
nodes = (
"134 654 OFFCURVE",
"73 612 OFFCURVE",
"73 549 CURVE",
"73 489 OFFCURVE",
"134 443 OFFCURVE",
"209 443 CURVE",
"288 443 OFFCURVE",
"344 489 OFFCURVE",
"344 549 CURVE",
"344 612 OFFCURVE",
"288 654 OFFCURVE",
"209 654 CURVE"
);
},
{
closed = 1;
nodes = (
"276 632 OFFCURVE",
"321 597 OFFCURVE",
"321 549 CURVE",
"321 503 OFFCURVE",
"276 465 OFFCURVE",
"209 465 CURVE",
"145 465 OFFCURVE",
"96 503 OFFCURVE",
"96 549 CURVE",
"96 597 OFFCURVE",
"145 632 OFFCURVE",
"209 632 CURVE"
);
}
);
width = 417;
},
{
layerId = "543F9737-16F7-428D-9F96-2EBD9FC8D3B6";
name = Light;
width = 420;
},
{
layerId = "FA480B27-EBBD-4830-9868-98507D39050C";
name = Bold;
width = 420;
}
);
unicode = 02DA;
},
